<svg width="30" height="32" viewBox="0 0 30 32" fill="none" xmlns="http://www.w3.org/2000/svg">
<path d="M28.803 24.4605C28.6452 24.0122 28.5883 23.8889 28.3742 23.4845C25.8808 23.655 26.1053 23.835 26.2245 21.3839C25.8455 21.197 25.7041 21.1319 25.2077 20.9688C23.5355 22.8031 23.9098 22.7994 22.2386 20.9688C21.8153 21.1081 21.6697 21.163 21.2219 21.3839C21.3395 23.8023 21.5923 23.6698 19.0762 23.4836C18.8322 23.9441 18.7842 24.0692 18.6467 24.4603C19.1191 24.8647 20.0667 25.5834 20.0667 26.0028C20.0667 26.4527 19.0628 27.185 18.5938 27.5564C18.7356 28.0078 18.7775 28.1053 18.9734 28.5166C21.3994 28.2236 21.5453 28.2842 21.1895 30.7878C21.6178 31.0055 21.7142 31.0414 22.1208 31.1828C23.6086 29.1769 23.8397 29.1748 25.3291 31.1828C25.8055 31.017 25.8942 30.9737 26.2611 30.7875C25.8909 28.2561 26.0816 28.2287 28.4763 28.5164C28.6956 28.0559 28.7291 27.9597 28.8563 27.5564C26.8386 25.9597 26.9963 26.0072 28.803 24.4605ZM28.1948 28.0106C25.9058 27.738 25.4092 28.0997 25.7483 30.5184C25.6667 30.5559 25.5828 30.5916 25.4975 30.6247C24.0567 28.7203 23.3923 28.7211 21.9523 30.6247C21.8667 30.5914 21.7828 30.5559 21.7013 30.5183C22.0364 28.1152 21.5567 27.7358 19.2548 28.0105C19.2125 27.9134 19.1745 27.8177 19.1405 27.7216C19.6997 27.2814 20.5358 26.6409 20.5358 26.0028C20.5358 25.3888 19.7117 24.7405 19.1987 24.3136C19.2431 24.2016 19.2933 24.0886 19.3489 23.9755C21.7064 24.1972 21.8731 23.9109 21.7078 21.6697C21.8339 21.6123 21.9639 21.5594 22.0963 21.5114C22.5298 22.0145 23.1298 22.8133 23.7252 22.8133C24.3164 22.8133 24.9145 22.0189 25.3508 21.5114C25.4834 21.5594 25.6133 21.6122 25.7392 21.6697C25.5698 23.9527 25.7717 24.1802 28.1009 23.9748C28.1567 24.0886 28.207 24.2017 28.2514 24.3138C26.515 25.7567 26.4023 26.2228 28.3097 27.7216C28.2752 27.8178 28.2372 27.9137 28.1948 28.0106Z" fill="white"/>
<path d="M23.723 24.1992C22.7354 24.1992 21.9316 25.0028 21.9316 25.9905C21.9316 26.9781 22.7354 27.7819 23.723 27.7819C24.7107 27.7819 25.5145 26.9781 25.5145 25.9905C25.5145 25.0028 24.7107 24.1992 23.723 24.1992ZM23.723 27.3131C22.9937 27.3131 22.4004 26.7198 22.4004 25.9905C22.4004 25.2612 22.9937 24.668 23.723 24.668C24.4524 24.668 25.0457 25.2612 25.0457 25.9905C25.0457 26.7198 24.4524 27.3131 23.723 27.3131Z" fill="white"/>
<path d="M27.5536 0.855469H2.44641C1.11031 0.855469 0.0273438 1.93859 0.0273438 3.27453V25.3642C0.0273438 26.7002 1.11031 27.7831 2.44625 27.7831H16.5592C16.6886 27.7831 16.7936 27.6781 16.7936 27.5488C16.7936 27.4194 16.6886 27.3144 16.5592 27.3144H2.44641C1.36922 27.3144 0.496094 26.4411 0.496094 25.3641V4.94234H29.5039V26.9319C29.5039 27.0613 29.6089 27.1663 29.7383 27.1663C29.8677 27.1663 29.9727 27.0613 29.9727 26.9319V3.27453C29.9727 1.93859 28.8895 0.855469 27.5536 0.855469ZM29.5039 4.47359H0.496094V3.27453C0.496094 2.19906 1.37109 1.32422 2.44641 1.32422H27.5536C28.6291 1.32422 29.5039 2.19922 29.5039 3.27453V4.47359Z" fill="white"/>
<path d="M12.6694 11.8131C12.6694 9.42844 10.7292 7.48828 8.34438 7.48828C5.95969 7.48828 4.01953 9.42844 4.01953 11.8131C4.01953 14.198 5.95969 16.1381 8.34438 16.1381C10.7292 16.138 12.6694 14.1978 12.6694 11.8131ZM9.34156 15.5378C9.62187 15.1681 9.85437 14.6444 10.018 14.0148C10.4995 14.1986 10.8409 14.4252 11.0327 14.5741C10.5669 15.0277 9.9875 15.3647 9.34156 15.5378ZM9.80797 12.0475C9.79625 12.5406 9.74797 12.9981 9.6725 13.4106C8.81719 13.19 7.87219 13.19 7.01656 13.4108C6.94109 12.9981 6.89266 12.5406 6.88109 12.0473L9.80797 12.0475ZM6.88109 11.5787C6.89266 11.0931 6.93953 10.6419 7.01313 10.2342C7.85828 10.4528 8.80625 10.4592 9.67609 10.2342C9.74969 10.6419 9.79656 11.0931 9.80812 11.5787H6.88109ZM11.3497 14.2255C11.1245 14.0445 10.7133 13.7658 10.1222 13.5506C10.2106 13.0883 10.2647 12.5823 10.2769 12.0475H12.1928C12.1433 12.8689 11.8355 13.6216 11.3497 14.2255ZM12.1928 11.5787H10.2769C10.2648 11.0509 10.2122 10.5511 10.1258 10.0936C10.7234 9.87547 11.1364 9.59266 11.3589 9.41266C11.8394 10.0145 12.1436 10.7627 12.1928 11.5787ZM11.0444 9.06344C10.8566 9.21203 10.5139 9.44344 10.0228 9.63094C9.85906 8.99297 9.62469 8.46219 9.34156 8.08859C9.99297 8.26312 10.5767 8.60422 11.0444 9.06344ZM9.57766 9.775C8.79219 9.98266 7.90781 9.98562 7.11172 9.77391C7.705 7.40422 8.96469 7.32531 9.57766 9.775ZM7.3475 8.08844C7.06453 8.46172 6.83047 8.99172 6.66672 9.62906C6.17719 9.44156 5.83422 9.21062 5.64562 9.0625C6.11312 8.60375 6.69656 8.26297 7.3475 8.08844ZM5.33016 9.4125C5.5525 9.5925 5.96547 9.87547 6.56312 10.0936C6.47672 10.5511 6.42406 11.0508 6.41203 11.5787H4.49609C4.54531 10.7625 4.84969 10.0145 5.33016 9.4125ZM4.49609 12.0475H6.41203C6.42422 12.5825 6.47828 13.0886 6.56688 13.5509C5.97594 13.7661 5.56453 14.045 5.33953 14.2258C4.85359 13.6217 4.54578 12.8691 4.49609 12.0475ZM5.65594 14.5736C5.84672 14.4244 6.18766 14.1972 6.67078 14.0134C6.83438 14.6436 7.06703 15.1678 7.3475 15.538C6.70125 15.3647 6.12172 15.0275 5.65594 14.5736ZM7.11594 13.8697C7.8975 13.6637 8.77734 13.6598 9.57297 13.8706C8.97578 16.2266 7.72797 16.2861 7.11594 13.8697Z" fill="white"/>
<path d="M26.369 7.46484H14.6152C14.4859 7.46484 14.3809 7.56984 14.3809 7.69922C14.3809 7.82859 14.4859 7.93359 14.6152 7.93359H26.369C26.4984 7.93359 26.6034 7.82859 26.6034 7.69922C26.6034 7.56969 26.4984 7.46484 26.369 7.46484Z" fill="white"/>
<path d="M14.6152 10.6445H26.369C26.4984 10.6445 26.6034 10.5395 26.6034 10.4102C26.6034 10.2808 26.4984 10.1758 26.369 10.1758H14.6152C14.4859 10.1758 14.3809 10.2808 14.3809 10.4102C14.3809 10.5397 14.4859 10.6445 14.6152 10.6445Z" fill="white"/>
<path d="M14.6152 13.3555H26.369C26.4984 13.3555 26.6034 13.2505 26.6034 13.1211C26.6034 12.9917 26.4984 12.8867 26.369 12.8867H14.6152C14.4859 12.8867 14.3809 12.9917 14.3809 13.1211C14.3809 13.2506 14.4859 13.3555 14.6152 13.3555Z" fill="white"/>
<path d="M26.369 15.5938H14.6152C14.4859 15.5938 14.3809 15.6987 14.3809 15.8281C14.3809 15.9575 14.4859 16.0625 14.6152 16.0625H26.369C26.4984 16.0625 26.6034 15.9575 26.6034 15.8281C26.6034 15.6986 26.4984 15.5938 26.369 15.5938Z" fill="white"/>
<path d="M14.3017 25.2155V20.529L14.6687 20.8979C14.76 20.9896 14.9084 20.9901 15.0001 20.8988C15.0918 20.8076 15.0923 20.6591 15.0011 20.5674L14.2336 19.7957C14.1412 19.7027 13.9904 19.7037 13.8992 19.7977L13.1522 20.5674C13.062 20.6602 13.0642 20.8087 13.157 20.8988C13.2498 20.989 13.3982 20.9868 13.4884 20.894L13.8328 20.5391V25.2158C13.8328 25.3452 13.9378 25.4502 14.0672 25.4502C14.1968 25.4499 14.3017 25.3449 14.3017 25.2155Z" fill="white"/>
<path d="M16.7773 26.5342V18.8344C16.7773 18.6281 16.6102 18.4609 16.4039 18.4609H2.65859C2.45234 18.4609 2.28516 18.6281 2.28516 18.8344V26.5342C2.28516 26.6636 2.39016 26.7686 2.51953 26.7686C2.64891 26.7686 2.75391 26.6636 2.75391 26.5342V18.9295H16.3086V26.5342C16.3086 26.6636 16.4136 26.7686 16.543 26.7686C16.6723 26.7686 16.7773 26.6636 16.7773 26.5342Z" fill="white"/>
<path d="M3.19945 2.01172C2.65336 2.01172 2.20898 2.45609 2.20898 3.00234C2.20898 3.54844 2.65336 3.99281 3.19945 3.99281C3.7457 3.99281 4.19008 3.54844 4.19008 3.00234C4.18992 2.45609 3.7457 2.01172 3.19945 2.01172ZM2.67773 3.00234C2.67773 2.31281 3.72133 2.3125 3.72133 3.00234C3.72117 3.69172 2.67773 3.69187 2.67773 3.00234Z" fill="white"/>
<path d="M6.35766 2.01172C5.81156 2.01172 5.36719 2.45609 5.36719 3.00234C5.36719 3.54844 5.81156 3.99281 6.35766 3.99281C6.90391 3.99281 7.34828 3.54844 7.34828 3.00234C7.34828 2.45609 6.90391 2.01172 6.35766 2.01172ZM5.83594 3.00234C5.83594 2.31281 6.87953 2.3125 6.87953 3.00234C6.87953 3.69172 5.83594 3.69187 5.83594 3.00234Z" fill="white"/>
<path d="M9.51781 2.01172C8.97172 2.01172 8.52734 2.45609 8.52734 3.00234C8.52734 3.54844 8.97172 3.99281 9.51781 3.99281C10.0641 3.99281 10.5084 3.54844 10.5084 3.00234C10.5084 2.45609 10.0641 2.01172 9.51781 2.01172ZM9.51781 3.52406C8.82828 3.52406 8.82844 2.48047 9.51781 2.48047C10.2073 2.48047 10.2077 3.52406 9.51781 3.52406Z" fill="white"/>
</svg>
