<svg width="40" height="40" viewBox="0 0 40 40" fill="none" xmlns="http://www.w3.org/2000/svg">
<path d="M13.6819 21.3398H0.871094C0.741563 21.3398 0.636719 21.4447 0.636719 21.5742C0.636719 22.8267 0.636719 32.0478 0.636719 33.2273C0.636719 33.3569 0.741563 33.4617 0.871094 33.4617H3.0275V35.0409H0.871094C0.741563 35.0409 0.636719 35.1458 0.636719 35.2753V36.4316C0.636719 36.5611 0.741563 36.6659 0.871094 36.6659H13.682C13.8116 36.6659 13.9164 36.5611 13.9164 36.4316V35.2753C13.9164 35.1458 13.8116 35.0409 13.682 35.0409H11.1742V33.4617H13.682C13.8116 33.4617 13.9164 33.3569 13.9164 33.2273C13.9164 32.0481 13.9164 22.8273 13.9164 21.5742C13.9163 21.4448 13.8114 21.3398 13.6819 21.3398ZM13.4475 35.5098V36.1973H1.10547V35.5098C3.72125 35.5098 10.632 35.5098 13.4475 35.5098ZM3.49625 35.0411V33.4619H3.85187V35.0411H3.49625ZM4.32062 35.0411V33.4619H9.88094V35.0411H4.32062ZM10.3497 35.0411V33.4619H10.7053V35.0411H10.3497ZM13.4475 32.993C10.7414 32.993 3.51188 32.993 1.10531 32.993V29.5573H13.4475V32.993ZM13.4475 29.0886H1.10547V25.683H13.4477V29.0886H13.4475ZM13.4475 25.2142H1.10547V21.8086H13.4477V25.2142H13.4475Z" fill="white"/>
<path d="M2.79484 24.2381C3.18141 24.2381 3.49594 23.9236 3.49594 23.537C3.49594 23.1505 3.18141 22.8359 2.79484 22.8359C2.40828 22.8359 2.09375 23.1505 2.09375 23.537C2.09375 23.9236 2.40828 24.2381 2.79484 24.2381ZM2.79484 23.3047C3.10187 23.3047 3.10219 23.7695 2.79484 23.7695C2.48781 23.7694 2.4875 23.3047 2.79484 23.3047Z" fill="white"/>
<path d="M12.0528 24.2381C12.4394 24.2381 12.7539 23.9236 12.7539 23.537C12.7539 23.1505 12.4394 22.8359 12.0528 22.8359C11.6661 22.8359 11.3516 23.1505 11.3516 23.537C11.3516 23.9236 11.6661 24.2381 12.0528 24.2381ZM12.2852 23.537C12.2852 23.8448 11.8203 23.8436 11.8203 23.537C11.8203 23.2305 12.2852 23.2292 12.2852 23.537Z" fill="white"/>
<path d="M2.79484 28.0858C3.18141 28.0858 3.49594 27.7712 3.49594 27.3847C3.49594 26.9981 3.18141 26.6836 2.79484 26.6836C2.40828 26.6836 2.09375 26.9981 2.09375 27.3847C2.09375 27.7712 2.40828 28.0858 2.79484 28.0858ZM2.79484 27.1523C3.10187 27.1523 3.10219 27.6172 2.79484 27.6172C2.48781 27.617 2.4875 27.1523 2.79484 27.1523Z" fill="white"/>
<path d="M12.0528 28.0858C12.4394 28.0858 12.7539 27.7712 12.7539 27.3847C12.7539 26.9981 12.4394 26.6836 12.0528 26.6836C11.6661 26.6836 11.3516 26.9981 11.3516 27.3847C11.3516 27.7712 11.6661 28.0858 12.0528 28.0858ZM12.0528 27.1523C12.3598 27.1523 12.3598 27.6172 12.0528 27.6172C11.7456 27.617 11.7455 27.1523 12.0528 27.1523Z" fill="white"/>
<path d="M2.79484 31.9764C3.18141 31.9764 3.49594 31.6619 3.49594 31.2753C3.49594 30.8887 3.18141 30.5742 2.79484 30.5742C2.40828 30.5742 2.09375 30.8887 2.09375 31.2753C2.09375 31.6619 2.40828 31.9764 2.79484 31.9764ZM2.79484 31.043C3.10187 31.043 3.10219 31.5078 2.79484 31.5078C2.48781 31.5077 2.4875 31.043 2.79484 31.043Z" fill="white"/>
<path d="M12.0528 31.9764C12.4394 31.9764 12.7539 31.6619 12.7539 31.2753C12.7539 30.8887 12.4394 30.5742 12.0528 30.5742C11.6661 30.5742 11.3516 30.8887 11.3516 31.2753C11.3516 31.6619 11.6661 31.9764 12.0528 31.9764ZM12.2852 31.2753C12.2852 31.5831 11.8203 31.5819 11.8203 31.2753C11.8203 30.9687 12.2852 30.9675 12.2852 31.2753Z" fill="white"/>
<path d="M13.6819 2.02344H0.871094C0.741563 2.02344 0.636719 2.12828 0.636719 2.25781C0.636719 3.49375 0.636719 12.6778 0.636719 13.9109C0.636719 14.0405 0.741563 14.1453 0.871094 14.1453H3.0275V15.7245H0.871094C0.741563 15.7245 0.636719 15.8294 0.636719 15.9589V17.1152C0.636719 17.2447 0.741563 17.3495 0.871094 17.3495H13.682C13.8116 17.3495 13.9164 17.2447 13.9164 17.1152V15.9589C13.9164 15.8294 13.8116 15.7245 13.682 15.7245H11.1742V14.1453H13.682C13.8116 14.1453 13.9164 14.0405 13.9164 13.9109C13.9164 12.6759 13.9164 3.52172 13.9164 2.25781C13.9163 2.12828 13.8114 2.02344 13.6819 2.02344ZM13.4475 16.1933V16.8808H1.10547V16.1933C2.46844 16.1933 11.9005 16.1933 13.4475 16.1933ZM3.49625 15.7245V14.1453H3.85187V15.7245H3.49625ZM4.32062 15.7245V14.1453H9.88094V15.7245H4.32062ZM10.3497 15.7245V14.1453H10.7053V15.7245H10.3497ZM13.4475 13.6766C10.7414 13.6766 3.51188 13.6766 1.10531 13.6766V10.2408H13.4475V13.6766ZM13.4475 9.77203H1.10547V6.36641H13.4477V9.77203H13.4475ZM13.4475 5.89766H1.10547V2.49219H13.4477V5.89766H13.4475Z" fill="white"/>
<path d="M2.79484 4.92563C3.18141 4.92563 3.49594 4.61109 3.49594 4.22453C3.49594 3.83797 3.18141 3.52344 2.79484 3.52344C2.40828 3.52344 2.09375 3.83797 2.09375 4.22453C2.09375 4.61109 2.40828 4.92563 2.79484 4.92563ZM3.02719 4.22438C3.02719 4.53141 2.56234 4.53172 2.56234 4.22438C2.56234 3.91734 3.02719 3.91719 3.02719 4.22438Z" fill="white"/>
<path d="M12.0528 4.92563C12.4394 4.92563 12.7539 4.61109 12.7539 4.22453C12.7539 3.83797 12.4394 3.52344 12.0528 3.52344C11.6661 3.52344 11.3516 3.83797 11.3516 4.22453C11.3516 4.61109 11.6661 4.92563 12.0528 4.92563ZM12.0528 3.99203C12.3598 3.99203 12.3598 4.45688 12.0528 4.45688C11.7456 4.45688 11.7455 3.99203 12.0528 3.99203Z" fill="white"/>
<path d="M2.79484 8.77344C3.18141 8.77344 3.49594 8.45891 3.49594 8.07234C3.49594 7.68563 3.18141 7.37109 2.79484 7.37109C2.40828 7.37109 2.09375 7.68563 2.09375 8.07234C2.09359 8.45891 2.40828 8.77344 2.79484 8.77344ZM3.02719 8.07219C3.02719 8.37922 2.56234 8.37953 2.56234 8.07219C2.56234 7.765 3.02719 7.765 3.02719 8.07219Z" fill="white"/>
<path d="M12.0528 8.77344C12.4394 8.77344 12.7539 8.45891 12.7539 8.07234C12.7539 7.68563 12.4394 7.37109 12.0528 7.37109C11.6661 7.37109 11.3516 7.68563 11.3516 8.07234C11.3516 8.45891 11.6661 8.77344 12.0528 8.77344ZM12.2852 8.07219C12.2852 8.38 11.8203 8.37875 11.8203 8.07219C11.8203 7.765 12.2852 7.765 12.2852 8.07219Z" fill="white"/>
<path d="M2.79484 12.6602C3.18141 12.6602 3.49594 12.3456 3.49594 11.9591C3.49594 11.5723 3.18141 11.2578 2.79484 11.2578C2.40828 11.2578 2.09375 11.5723 2.09375 11.9591C2.09359 12.3456 2.40828 12.6602 2.79484 12.6602ZM2.79484 11.7266C3.10188 11.7266 3.10219 12.1914 2.79484 12.1914C2.48766 12.1914 2.48766 11.7266 2.79484 11.7266Z" fill="white"/>
<path d="M12.0528 12.6602C12.4394 12.6602 12.7539 12.3456 12.7539 11.9591C12.7539 11.5723 12.4394 11.2578 12.0528 11.2578C11.6661 11.2578 11.3516 11.5723 11.3516 11.9591C11.3516 12.3456 11.6661 12.6602 12.0528 12.6602ZM12.2852 11.9591C12.2852 12.2669 11.8203 12.2656 11.8203 11.9591C11.8203 11.6519 12.2852 11.6517 12.2852 11.9591Z" fill="white"/>
<path d="M21.6125 6.08984L17.4767 19.2358H15.2891C15.1597 19.2358 15.0547 19.3408 15.0547 19.4702C15.0547 19.5995 15.1597 19.7045 15.2891 19.7045H17.4764L21.6123 32.9347C21.643 33.0325 21.7336 33.0991 21.8359 33.0991H27.2111C27.3405 33.0991 27.4455 32.9941 27.4455 32.8647C27.4455 32.7353 27.3405 32.6303 27.2111 32.6303H22.0083L17.9675 19.7045H27.2111C27.3405 19.7045 27.4455 19.5995 27.4455 19.4702C27.4455 19.3408 27.3405 19.2358 27.2111 19.2358H17.9681L22.008 6.39453H27.2111C27.3405 6.39453 27.4455 6.28953 27.4455 6.16016C27.4455 6.03078 27.3405 5.92578 27.2111 5.92578H21.8361C21.7338 5.92594 21.6431 5.99219 21.6125 6.08984Z" fill="white"/>
<path d="M32.7497 4.54868L31.9792 3.63196L32.7672 2.58633C32.845 2.48305 32.8244 2.33602 32.7211 2.25821C32.6178 2.18024 32.4708 2.20086 32.3928 2.3043L31.4925 3.49899C31.4267 3.58617 31.43 3.70727 31.5003 3.79086L32.391 4.85039C32.4742 4.94946 32.6221 4.96227 32.7211 4.87899L32.7213 4.87883C32.8202 4.79555 32.833 4.64774 32.7497 4.54868Z" fill="white"/>
<path d="M35.3844 2.2582C35.2809 2.33616 35.2603 2.48304 35.3383 2.58648L36.1264 3.6321L35.3558 4.54882C35.2725 4.64788 35.2853 4.7957 35.3844 4.87898L35.3845 4.87913C35.4836 4.96241 35.6314 4.9496 35.7147 4.85054L36.6053 3.79101C36.6756 3.70741 36.6788 3.58632 36.6131 3.49898L35.7128 2.30445C35.6347 2.20085 35.4878 2.18023 35.3844 2.2582Z" fill="white"/>
<path d="M34.7076 1.76662C34.5872 1.7188 34.451 1.77771 34.4033 1.89802L33.1729 4.99865C33.1251 5.11896 33.184 5.25521 33.3043 5.30287C33.4246 5.35068 33.5608 5.29177 33.6085 5.17146L34.839 2.07083C34.8868 1.95052 34.8279 1.81443 34.7076 1.76662Z" fill="white"/>
<path d="M32.1991 6.59766H31.5215V7.06641H32.1991V6.59766Z" fill="white"/>
<path d="M31.7559 8.45312H36.2959C36.4252 8.45312 36.5302 8.34813 36.5302 8.21875C36.5302 8.08937 36.4252 7.98438 36.2959 7.98438H31.7559C31.6265 7.98438 31.5215 8.08937 31.5215 8.21875C31.5215 8.34813 31.6265 8.45312 31.7559 8.45312Z" fill="white"/>
<path d="M31.7559 9.75781H36.2959C36.4252 9.75781 36.5302 9.65281 36.5302 9.52344C36.5302 9.39406 36.4252 9.28906 36.2959 9.28906H31.7559C31.6265 9.28906 31.5215 9.39406 31.5215 9.52344C31.5215 9.65297 31.6265 9.75781 31.7559 9.75781Z" fill="white"/>
<path d="M33.6425 6.59766H32.9648V7.06641H33.6425V6.59766Z" fill="white"/>
<path d="M35.0878 6.59766H34.4102V7.06641H35.0878V6.59766Z" fill="white"/>
<path d="M36.5312 6.59766H35.8535V7.06641H36.5312V6.59766Z" fill="white"/>
<path d="M32.7497 18.0799L31.9792 17.1632L32.7672 16.1176C32.845 16.0143 32.8244 15.8673 32.7211 15.7895C32.6178 15.7115 32.4708 15.7321 32.3928 15.8355L31.4925 17.0302C31.4267 17.1174 31.43 17.2385 31.5003 17.3221L32.391 18.3816C32.4742 18.4807 32.6221 18.4935 32.7211 18.4102L32.7213 18.4101C32.8202 18.3268 32.833 18.179 32.7497 18.0799Z" fill="white"/>
<path d="M35.3844 15.7893C35.2809 15.8673 35.2603 16.0142 35.3383 16.1176L36.1264 17.1632L35.3558 18.08C35.2725 18.179 35.2853 18.3268 35.3844 18.4101L35.3845 18.4103C35.4836 18.4936 35.6314 18.4807 35.7147 18.3817L36.6053 17.3221C36.6756 17.2386 36.6788 17.1175 36.6131 17.0301L35.7128 15.8356C35.6347 15.7321 35.4878 15.7115 35.3844 15.7893Z" fill="white"/>
<path d="M34.7076 15.294C34.5872 15.2461 34.451 15.3051 34.4033 15.4254L33.1729 18.526C33.1251 18.6463 33.184 18.7826 33.3043 18.8302C33.4246 18.878 33.5608 18.8191 33.6085 18.6988L34.839 15.5982C34.8868 15.4779 34.8279 15.3416 34.7076 15.294Z" fill="white"/>
<path d="M32.1991 20.125H31.5215V20.5938H32.1991V20.125Z" fill="white"/>
<path d="M31.7559 21.9844H36.2959C36.4252 21.9844 36.5302 21.8794 36.5302 21.75C36.5302 21.6206 36.4252 21.5156 36.2959 21.5156H31.7559C31.6265 21.5156 31.5215 21.6206 31.5215 21.75C31.5215 21.8795 31.6265 21.9844 31.7559 21.9844Z" fill="white"/>
<path d="M31.7559 23.2852H36.2959C36.4252 23.2852 36.5302 23.1802 36.5302 23.0508C36.5302 22.9214 36.4252 22.8164 36.2959 22.8164H31.7559C31.6265 22.8164 31.5215 22.9214 31.5215 23.0508C31.5215 23.1802 31.6265 23.2852 31.7559 23.2852Z" fill="white"/>
<path d="M33.6425 20.125H32.9648V20.5938H33.6425V20.125Z" fill="white"/>
<path d="M35.0878 20.125H34.4102V20.5938H35.0878V20.125Z" fill="white"/>
<path d="M36.5312 20.125H35.8535V20.5938H36.5312V20.125Z" fill="white"/>
<path d="M32.7497 31.6073L31.9792 30.6905L32.7672 29.6449C32.845 29.5416 32.8244 29.3946 32.7211 29.3168C32.6178 29.2388 32.4708 29.2595 32.3928 29.3629L31.4925 30.5576C31.4267 30.6448 31.43 30.7659 31.5003 30.8495L32.391 31.909C32.4742 32.008 32.6221 32.0209 32.7211 31.9376L32.7213 31.9374C32.8202 31.8543 32.833 31.7063 32.7497 31.6073Z" fill="white"/>
<path d="M35.3844 29.3168C35.2809 29.3948 35.2603 29.5416 35.3383 29.6449L36.1264 30.6905L35.3558 31.6073C35.2725 31.7063 35.2853 31.8541 35.3844 31.9374L35.3845 31.9376C35.4836 32.0209 35.6314 32.008 35.7147 31.909L36.6053 30.8495C36.6756 30.7659 36.6788 30.6448 36.6131 30.5574L35.7128 29.3629C35.6347 29.2595 35.4878 29.2388 35.3844 29.3168Z" fill="white"/>
<path d="M34.7076 28.8213C34.5872 28.7735 34.451 28.8324 34.4033 28.9527L33.1729 32.0535C33.1251 32.1738 33.184 32.3101 33.3043 32.3577C33.4246 32.4055 33.5608 32.3466 33.6085 32.2263L34.839 29.1255C34.8868 29.0052 34.8279 28.869 34.7076 28.8213Z" fill="white"/>
<path d="M32.1991 33.6562H31.5215V34.125H32.1991V33.6562Z" fill="white"/>
<path d="M31.7559 35.5117H36.2959C36.4252 35.5117 36.5302 35.4069 36.5302 35.2773C36.5302 35.148 36.4254 35.043 36.2959 35.043H31.7559C31.6265 35.043 31.5215 35.1478 31.5215 35.2773C31.5215 35.4069 31.6265 35.5117 31.7559 35.5117Z" fill="white"/>
<path d="M31.7559 36.8164H36.2959C36.4252 36.8164 36.5302 36.7116 36.5302 36.582C36.5302 36.4527 36.4254 36.3477 36.2959 36.3477H31.7559C31.6265 36.3477 31.5215 36.4525 31.5215 36.582C31.5215 36.7114 31.6265 36.8164 31.7559 36.8164Z" fill="white"/>
<path d="M33.6425 33.6562H32.9648V34.125H33.6425V33.6562Z" fill="white"/>
<path d="M35.0878 33.6562H34.4102V34.125H35.0878V33.6562Z" fill="white"/>
<path d="M36.5312 33.6562H35.8535V34.125H36.5312V33.6562Z" fill="white"/>
<path d="M39.1291 1.02453H38.1673V0.53125C38.1673 0.401719 38.0624 0.296875 37.9329 0.296875H30.1738C30.0443 0.296875 29.9395 0.401719 29.9395 0.53125V11.0986C29.9395 11.2281 30.0443 11.333 30.1738 11.333H30.953V12.2277C30.953 12.3572 31.0579 12.462 31.1874 12.462H39.1291C39.2587 12.462 39.3635 12.3572 39.3635 12.2277V1.25891C39.3635 1.12938 39.2587 1.02453 39.1291 1.02453ZM30.4082 10.8642V0.765625H37.6985V10.8642H30.4082ZM38.8948 11.9933H31.4218V11.333H37.9329C38.0624 11.333 38.1673 11.2281 38.1673 11.0986V1.49328H38.8948V11.9933Z" fill="white"/>
<path d="M39.1291 14.6402H38.1673V14.0586C38.1673 13.9291 38.0624 13.8242 37.9329 13.8242H30.1738C30.0443 13.8242 29.9395 13.9291 29.9395 14.0586V24.6259C29.9395 24.7555 30.0443 24.8603 30.1738 24.8603H30.953V25.8434C30.953 25.973 31.0579 26.0778 31.1874 26.0778H39.1291C39.2587 26.0778 39.3635 25.973 39.3635 25.8434V14.8745C39.3635 14.745 39.2587 14.6402 39.1291 14.6402ZM30.4082 24.3916V14.293H37.6985V24.3916H30.4082ZM38.8948 25.6091H31.4218V24.8603H37.9329C38.0624 24.8603 38.1673 24.7555 38.1673 24.6259V15.1089H38.8948V25.6091Z" fill="white"/>
<path d="M39.1291 28.2598H38.1673V27.5898C38.1673 27.4603 38.0624 27.3555 37.9329 27.3555H30.1738C30.0443 27.3555 29.9395 27.4603 29.9395 27.5898V38.1572C29.9395 38.2867 30.0443 38.3916 30.1738 38.3916H30.953V39.463C30.953 39.5925 31.0579 39.6973 31.1874 39.6973H39.1291C39.2587 39.6973 39.3635 39.5925 39.3635 39.463V28.4942C39.3635 28.3647 39.2587 28.2598 39.1291 28.2598ZM30.4082 37.9228V27.8242H37.6985V37.9228H30.4082ZM38.8948 39.2286H31.4218V38.3916H37.9329C38.0624 38.3916 38.1673 38.2867 38.1673 38.1572V28.7286H38.8948V39.2286Z" fill="white"/>
</svg>
