<svg width="40" height="36" viewBox="0 0 40 36" fill="none" xmlns="http://www.w3.org/2000/svg">
<path d="M2.55397 9.83984C1.95037 9.84016 1.64819 10.5739 2.07444 10.9997C2.49787 11.4225 3.23381 11.1272 3.2335 10.5186C3.23334 10.1433 2.92943 9.83969 2.55397 9.83984ZM2.55506 10.7294C2.27678 10.7303 2.27537 10.3095 2.55365 10.3086C2.83537 10.3067 2.83037 10.7284 2.55506 10.7294Z" fill="white"/>
<path d="M10.8948 10.0315C10.4657 10.4612 10.7763 11.1909 11.3757 11.1906C11.7573 11.1893 12.0548 10.8813 12.0544 10.5109C12.054 9.90369 11.3184 9.60697 10.8948 10.0315ZM11.5243 10.6601C11.4463 10.7384 11.334 10.722 11.3755 10.7218C11.2591 10.722 11.1651 10.6279 11.1649 10.5117C11.1648 10.3229 11.393 10.2317 11.524 10.3626C11.5909 10.4293 11.5857 10.5113 11.5857 10.5113C11.5859 10.5674 11.564 10.6203 11.5243 10.6601Z" fill="white"/>
<path d="M2.55519 13.5703C1.6405 13.5947 1.67675 14.9291 2.55613 14.9286C2.74331 14.928 2.91144 14.8544 3.03628 14.7294C3.46363 14.3012 3.15613 13.57 2.55519 13.5703ZM2.70456 14.3983C2.62644 14.4764 2.51472 14.4602 2.55581 14.46C2.43988 14.4602 2.34535 14.3666 2.34519 14.2497C2.34503 14.0613 2.573 13.9697 2.70425 14.1006C2.78644 14.1827 2.78675 14.3156 2.70456 14.3983Z" fill="white"/>
<path d="M10.6992 14.2428C10.6994 14.6181 11.0034 14.9217 11.3789 14.9215C11.9869 14.9193 12.282 14.1847 11.8583 13.7617C11.43 13.3339 10.6989 13.6418 10.6992 14.2428ZM11.168 14.2425C11.1678 14.0537 11.3961 13.9625 11.527 14.0934C11.5939 14.1601 11.5888 14.2422 11.5888 14.2422C11.5891 14.5198 11.1681 14.5211 11.168 14.2425Z" fill="white"/>
<path d="M2.55953 17.2383C1.95547 17.2386 1.65453 17.9731 2.08015 18.3981C2.50515 18.8225 3.23953 18.5225 3.23922 17.917C3.2389 17.5417 2.935 17.2381 2.55953 17.2383ZM2.34953 17.9177C2.34922 17.6297 2.77015 17.6452 2.77031 17.9172C2.77062 18.1959 2.34984 18.1958 2.34953 17.9177Z" fill="white"/>
<path d="M10.8998 17.4297C10.475 17.8554 10.7764 18.5891 11.3809 18.5888C11.7625 18.5875 12.0598 18.2796 12.0596 17.9091C12.0589 17.3082 11.3259 17.0027 10.8998 17.4297ZM11.381 18.12C11.1937 18.1207 11.0993 17.8933 11.2314 17.761C11.3096 17.6827 11.4212 17.6993 11.3801 17.6993C11.6628 17.6989 11.6537 18.1191 11.381 18.12Z" fill="white"/>
<path d="M2.5616 20.9414C1.95426 20.9417 1.65801 21.6778 2.08207 22.1012C2.50864 22.5272 3.24145 22.2223 3.24114 21.6202C3.24098 21.2448 2.93707 20.9413 2.5616 20.9414ZM2.41332 21.7695C2.21692 21.5733 2.51379 21.2755 2.71082 21.4717C2.90754 21.6681 2.60957 21.9655 2.41332 21.7695Z" fill="white"/>
<path d="M11.3829 20.9375C10.4767 20.9539 10.497 22.2963 11.3839 22.2958C11.5712 22.2952 11.7392 22.2216 11.864 22.0966C12.0796 21.8806 12.0626 21.6161 12.0626 21.6161C12.0623 21.2408 11.7582 20.937 11.3829 20.9375ZM11.2348 21.7655C11.0378 21.5687 11.336 21.2717 11.5321 21.4677C11.7284 21.6638 11.4326 21.9633 11.2348 21.7655Z" fill="white"/>
<path d="M12.936 27.9516C13.0652 27.9512 13.1698 27.8464 13.1698 27.7172L13.1696 26.5669C13.1696 26.4375 13.0646 26.3325 12.9352 26.3325L11.737 26.3327C11.6791 26.0394 11.5165 25.7778 11.276 25.5987L11.2759 23.7125C11.2765 23.7125 12.9357 23.7122 12.9357 23.7122C13.0649 23.7119 13.1695 23.607 13.1695 23.4778C13.169 19.8313 13.1685 16.8236 13.1674 8.65234C13.1674 8.52281 13.0624 8.41797 12.933 8.41797L0.724609 8.41984C0.724609 8.41984 0.724297 8.41984 0.723984 8.41984C0.594766 8.42016 0.490234 8.525 0.490234 8.65422C0.490703 11.7738 0.491172 15.3472 0.492266 23.4797C0.492266 23.6092 0.597266 23.7141 0.726641 23.7141L2.38602 23.7137L2.38633 25.5998C2.1457 25.7789 1.9832 26.0406 1.92539 26.3339C1.92352 26.3339 0.726328 26.3341 0.726328 26.3341C0.597109 26.3344 0.492578 26.4392 0.492578 26.5684L0.492734 27.7189C0.492734 27.8484 0.597734 27.9533 0.727109 27.9533L12.9351 27.9516C12.9355 27.9516 12.9357 27.9516 12.936 27.9516ZM0.958984 8.88859L12.6982 8.88687L12.6985 12.1387C11.0002 12.1391 2.66414 12.1402 0.959297 12.1405L0.958984 8.88859ZM0.959609 12.6094C2.65789 12.6091 10.994 12.608 12.6988 12.6077L12.6991 15.8309C11.0009 15.8313 2.66477 15.8323 0.959922 15.8325L0.959609 12.6094ZM0.960078 16.3013C2.65836 16.3009 10.9945 16.2998 12.6993 16.2997L12.6998 19.5228C11.0015 19.5231 2.66539 19.5242 0.960547 19.5245L0.960078 16.3013ZM0.961016 23.2453L0.960703 19.9934C2.65898 19.9931 10.9951 19.992 12.6999 19.9917L12.7002 23.2438C10.1495 23.2439 3.31008 23.245 0.961016 23.2453ZM10.9495 25.9419C11.0952 26.0339 11.2024 26.1725 11.2557 26.3327L9.84977 26.3328C9.90305 26.1727 10.0101 26.0341 10.1559 25.9419H10.9495ZM10.298 25.4725L10.2979 23.7128H10.8068L10.807 25.4725H10.298ZM9.82914 23.7128L9.8293 25.5991C9.58883 25.7781 9.42633 26.0397 9.36852 26.333L4.29352 26.3338C4.2357 26.0406 4.07305 25.7791 3.83273 25.6002L3.83258 23.7137L9.82914 23.7128ZM3.50633 25.943C3.65211 26.035 3.75914 26.1738 3.81258 26.3338L2.40664 26.3339C2.45992 26.1737 2.56695 26.0352 2.71273 25.943H3.50633ZM2.85508 25.4736L2.85492 23.7139C2.88398 23.7139 3.33492 23.7138 3.36398 23.7139L3.36414 25.4736H2.85508ZM12.7009 27.4828L0.961641 27.4845V26.8028C1.22523 26.8028 11.9884 26.8014 12.7009 26.8012V27.4828Z" fill="white"/>
<path d="M6.78711 6.97626C6.91648 6.97626 7.02148 6.87142 7.02148 6.74189L7.02227 3.54048L14.9813 3.5422C15.0365 4.3322 15.3674 5.06798 15.9327 5.6336C17.9082 7.60985 21.3377 6.36704 21.5362 3.5436L29.4948 3.54532L29.494 7.44235C29.494 7.57173 29.5988 7.67673 29.7284 7.67673C29.8577 7.67673 29.9627 7.57189 29.9627 7.44235L29.9635 3.31079C29.9635 3.18142 29.8587 3.07642 29.7291 3.07642L21.5362 3.07454C21.4159 1.35454 19.9885 0.0151669 18.2502 0.0195419C16.5184 0.0239169 15.1018 1.36126 14.9815 3.07314L6.78805 3.07126H6.78742C6.6582 3.07157 6.55367 3.17642 6.55367 3.30564L6.55273 6.74189C6.55273 6.87126 6.65758 6.97626 6.78711 6.97626ZM18.2593 0.488761C20.7807 0.489386 22.0129 3.5436 20.2523 5.30329C19.151 6.40392 17.366 6.40485 16.2641 5.30235C14.5121 3.5497 15.7237 0.495167 18.2593 0.488761Z" fill="white"/>
<path d="M29.7445 28.3086C29.6152 28.3088 29.5103 28.4139 29.5105 28.5433L29.5158 32.4389L21.5569 32.4498C21.4334 30.7461 20.01 29.3977 18.2758 29.4C18.2727 29.4 18.2698 29.4 18.2667 29.4C16.5367 29.407 15.1216 30.7577 15.0031 32.4587H7.04344L7.03906 29.2683C7.03891 29.1389 6.93375 29.0341 6.80438 29.0342C6.675 29.0344 6.57016 29.1395 6.57031 29.2689L6.575 32.7047C6.57516 32.8341 6.68031 32.9389 6.80969 32.9387H15.0031C15.1266 34.6667 16.5617 35.98 18.2847 35.9777C18.2878 35.9777 18.2906 35.9777 18.2937 35.9777C20.0239 35.9706 21.4391 34.6198 21.5575 32.9186L29.7508 32.9073H29.7514C29.8806 32.9069 29.985 32.8019 29.9848 32.6727L29.9792 28.5427C29.9791 28.4131 29.8741 28.3084 29.7445 28.3086ZM18.2919 35.5089C18.2894 35.5089 18.2867 35.5089 18.2841 35.5089C16.7255 35.5111 15.4623 34.2514 15.4602 32.6927C15.458 31.1403 16.717 29.8752 18.2686 29.8688C18.2711 29.8688 18.2737 29.8688 18.2764 29.8688C19.8314 29.8666 21.0981 31.13 21.1003 32.685C21.1025 34.2373 19.8433 35.5025 18.2919 35.5089Z" fill="white"/>
<path d="M25.7501 26.4492L25.5488 26.8727C25.6934 26.9414 25.8413 27.0073 25.9882 27.0684L26.1684 26.6356C26.0284 26.5775 25.8877 26.5147 25.7501 26.4492Z" fill="white"/>
<path d="M26.5941 26.8008L26.4355 27.242C26.586 27.2961 26.7398 27.347 26.8926 27.3934L27.029 26.945C26.8837 26.9008 26.7373 26.8522 26.5941 26.8008Z" fill="white"/>
<path d="M24.9434 26.0156L24.7012 26.417C24.8374 26.4992 24.978 26.5794 25.119 26.655L25.3409 26.242C25.2066 26.17 25.073 26.0939 24.9434 26.0156Z" fill="white"/>
<path d="M27.4694 27.0664L27.3555 27.5211C27.51 27.5598 27.6677 27.5953 27.8239 27.6264L27.9153 27.1667C27.7666 27.1369 27.6166 27.1033 27.4694 27.0664Z" fill="white"/>
<path d="M28.3656 27.2461L28.2969 27.7097C28.4537 27.733 28.6142 27.7527 28.7734 27.7683L28.8192 27.3019C28.6677 27.287 28.515 27.2683 28.3656 27.2461Z" fill="white"/>
<path d="M29.7321 27.3473C29.5795 27.3472 29.4257 27.3434 29.2749 27.3359L29.252 27.8042C29.4101 27.812 29.5715 27.8159 29.7316 27.8161L29.7321 27.3473Z" fill="white"/>
<path d="M20.7188 14.275L21.1512 14.4558C21.2102 14.3147 21.2731 14.1742 21.3381 14.038L20.9152 13.8359C20.8467 13.9792 20.7806 14.1269 20.7188 14.275Z" fill="white"/>
<path d="M21.1348 13.4097L21.5473 13.6322C21.6193 13.4988 21.6957 13.3652 21.7745 13.2348L21.3734 12.9922C21.2905 13.1291 21.2102 13.2695 21.1348 13.4097Z" fill="white"/>
<path d="M22.8681 11.7694L22.522 11.4531C22.4145 11.5708 22.3084 11.6928 22.207 11.8156L22.5681 12.1144C22.6648 11.9975 22.7658 11.8814 22.8681 11.7694Z" fill="white"/>
<path d="M21.6309 12.587L22.0195 12.8491C22.1046 12.7227 22.1938 12.5973 22.2845 12.4763L21.9091 12.1953C21.8138 12.3225 21.7202 12.4544 21.6309 12.587Z" fill="white"/>
<path d="M24.1845 25.5039L23.9043 25.8798C24.0321 25.975 24.164 26.0684 24.2963 26.1575L24.5579 25.7684C24.4318 25.6836 24.3062 25.5947 24.1845 25.5039Z" fill="white"/>
<path d="M38.7756 15.8286L39.2311 15.7173C39.1933 15.563 39.1511 15.407 39.1056 15.2539L38.6562 15.3877C38.6995 15.5333 38.7398 15.6816 38.7756 15.8286Z" fill="white"/>
<path d="M33.9563 9.22453C33.8125 9.15563 33.6648 9.08922 33.5173 9.02734L33.3359 9.45953C33.4763 9.51844 33.6167 9.58156 33.7536 9.64719L33.9563 9.22453Z" fill="white"/>
<path d="M34.8021 9.68453C34.6657 9.60172 34.5254 9.52125 34.3852 9.44531L34.1621 9.8575C34.2955 9.92969 34.429 10.0064 34.559 10.0853L34.8021 9.68453Z" fill="white"/>
<path d="M33.0708 8.85203C32.9202 8.79734 32.7666 8.74594 32.6142 8.69922L32.4766 9.14719C32.6214 9.19172 32.7675 9.24062 32.9108 9.29266L33.0708 8.85203Z" fill="white"/>
<path d="M32.1508 8.57141C31.9966 8.53234 31.8391 8.49641 31.6827 8.46484L31.5898 8.92438C31.7388 8.95438 31.8886 8.98859 32.0355 9.02594L32.1508 8.57141Z" fill="white"/>
<path d="M35.5973 10.2203C35.4704 10.125 35.3387 10.0311 35.206 9.94141L34.9434 10.3297C35.0698 10.4152 35.1951 10.5044 35.3159 10.5952L35.5973 10.2203Z" fill="white"/>
<path d="M31.2111 8.38031C31.0541 8.35656 30.8937 8.33641 30.7347 8.32031L30.6875 8.78656C30.8391 8.80188 30.9916 8.82109 31.1409 8.84375L31.2111 8.38031Z" fill="white"/>
<path d="M20.3926 15.1834L20.8409 15.3205C20.8851 15.1756 20.9338 15.0294 20.9855 14.8858L20.5446 14.7266C20.4904 14.8775 20.4391 15.0312 20.3926 15.1834Z" fill="white"/>
<path d="M37.2403 12.54L37.6181 12.2623C37.5241 12.1344 37.4253 12.0067 37.3245 11.8828L36.9609 12.1786C37.0567 12.2966 37.1508 12.4183 37.2403 12.54Z" fill="white"/>
<path d="M36.337 10.835C36.2186 10.7267 36.0969 10.6206 35.9752 10.5195L35.6758 10.8802C35.7917 10.9764 35.9078 11.0775 36.0206 11.1808L36.337 10.835Z" fill="white"/>
<path d="M37.7446 13.3017L38.1477 13.0623C38.0663 12.9253 37.9805 12.7886 37.8927 12.6562L37.502 12.915C37.5854 13.0411 37.6671 13.1712 37.7446 13.3017Z" fill="white"/>
<path d="M38.1701 14.1042L38.5946 13.9056C38.5273 13.7616 38.4554 13.6172 38.381 13.4766L37.9668 13.6958C38.0374 13.8295 38.1059 13.967 38.1701 14.1042Z" fill="white"/>
<path d="M38.5159 14.9522L38.958 14.7966C38.9051 14.6463 38.8477 14.4952 38.7873 14.3477L38.3535 14.5253C38.4109 14.6655 38.4654 14.8092 38.5159 14.9522Z" fill="white"/>
<path d="M37.012 11.517C36.9055 11.3986 36.7948 11.2811 36.6827 11.168L36.3496 11.4977C36.4565 11.6055 36.562 11.7175 36.6634 11.8303L37.012 11.517Z" fill="white"/>
<path d="M32.8691 26.8048L33.027 27.2462C33.1771 27.1927 33.3277 27.1345 33.4749 27.0736L33.2955 26.6406C33.1554 26.6984 33.012 26.7537 32.8691 26.8048Z" fill="white"/>
<path d="M33.7129 26.4553L33.9137 26.8789C34.058 26.8105 34.202 26.738 34.3415 26.6633L34.1205 26.25C33.9876 26.3211 33.8505 26.3902 33.7129 26.4553Z" fill="white"/>
<path d="M31.9961 27.0706L32.1095 27.5255C32.2647 27.4867 32.4205 27.4439 32.5725 27.398L32.4369 26.9492C32.2922 26.993 32.1439 27.0337 31.9961 27.0706Z" fill="white"/>
<path d="M34.5176 26.0255L34.7587 26.4275C34.8954 26.3455 35.0318 26.2591 35.1638 26.1708L34.9032 25.7812C34.7776 25.8652 34.6477 25.9475 34.5176 26.0255Z" fill="white"/>
<path d="M31.0996 27.2453L31.1676 27.7091C31.3254 27.6859 31.4846 27.6586 31.6407 27.6278L31.5499 27.168C31.4013 27.1972 31.2499 27.2233 31.0996 27.2453Z" fill="white"/>
<path d="M38.9503 16.7228L39.4144 16.6572C39.392 16.4997 39.3655 16.3403 39.3352 16.1836L38.875 16.2723C38.9038 16.4213 38.9291 16.5728 38.9503 16.7228Z" fill="white"/>
<path d="M29.7734 8.73844C29.9259 8.73891 30.0797 8.74328 30.2305 8.75109L30.2548 8.28297C30.0967 8.27469 29.9353 8.27016 29.7752 8.26953L29.7734 8.73844Z" fill="white"/>
<path d="M39.0326 17.632L39.501 17.6117C39.494 17.4517 39.4832 17.2906 39.4687 17.1328L39.002 17.1758C39.0157 17.3263 39.026 17.4797 39.0326 17.632Z" fill="white"/>
<path d="M30.1895 27.3336L30.212 27.8019C30.3724 27.7942 30.5334 27.7825 30.6905 27.7673L30.6454 27.3008C30.4959 27.3152 30.3424 27.3263 30.1895 27.3336Z" fill="white"/>
<path d="M35.2773 25.5195L35.5567 25.8959C35.6848 25.8008 35.8122 25.7016 35.935 25.6006L35.6375 25.2383C35.5206 25.3344 35.3994 25.4289 35.2773 25.5195Z" fill="white"/>
<path d="M38.9434 19.4028L39.4071 19.4709C39.4301 19.3141 39.4496 19.1538 39.4651 18.9942L38.9985 18.9492C38.9838 19.1009 38.9652 19.2536 38.9434 19.4028Z" fill="white"/>
<path d="M38.7676 20.2977L39.2224 20.4109C39.261 20.2559 39.2962 20.0983 39.327 19.9422L38.8671 19.8516C38.8377 20.0002 38.8043 20.1502 38.7676 20.2977Z" fill="white"/>
<path d="M20.1582 16.1128L20.6179 16.205C20.6477 16.0559 20.6816 15.9059 20.7187 15.7592L20.2641 15.6445C20.2254 15.7987 20.1898 15.9564 20.1582 16.1128Z" fill="white"/>
<path d="M38.502 21.1734L38.9434 21.3312C38.9971 21.1808 39.0479 21.0269 39.0941 20.8741L38.6455 20.7383C38.6015 20.8837 38.5532 21.0302 38.502 21.1734Z" fill="white"/>
<path d="M37.2109 23.5847L37.5873 23.8642C37.6828 23.7356 37.7761 23.6036 37.8644 23.4717L37.4748 23.2109C37.3908 23.3364 37.3019 23.4622 37.2109 23.5847Z" fill="white"/>
<path d="M38.1523 22.02L38.5761 22.2206C38.6447 22.0758 38.7103 21.9278 38.7713 21.7809L38.3381 21.6016C38.2802 21.7412 38.2178 21.882 38.1523 22.02Z" fill="white"/>
<path d="M36.6289 24.2914L36.9761 24.6064C37.0836 24.4878 37.1892 24.3656 37.29 24.2431L36.928 23.9453C36.832 24.062 36.7314 24.1784 36.6289 24.2914Z" fill="white"/>
<path d="M35.9824 24.9402L36.2971 25.2877C36.4149 25.1809 36.5321 25.0695 36.6451 24.9566L36.3137 24.625C36.2062 24.7327 36.0948 24.8386 35.9824 24.9402Z" fill="white"/>
<path d="M37.7188 22.828L38.1208 23.0692C38.2033 22.9316 38.2831 22.7909 38.3581 22.6512L37.9448 22.4297C37.8736 22.5628 37.7975 22.6967 37.7188 22.828Z" fill="white"/>
<path d="M39.0419 18.0353C39.0419 18.188 39.0384 18.3417 39.0312 18.4925L39.4995 18.5148C39.507 18.3566 39.5108 18.1952 39.5108 18.0352L39.0419 18.0353Z" fill="white"/>
<path d="M21.1348 21.5869C21.0771 21.447 21.022 21.3034 20.971 21.1602L20.5293 21.3173C20.5829 21.4678 20.6409 21.6188 20.7013 21.7656L21.1348 21.5869Z" fill="white"/>
<path d="M20.8297 20.7259C20.7862 20.5814 20.7456 20.433 20.7089 20.2852L20.2539 20.398C20.2923 20.5533 20.335 20.7091 20.3808 20.8609L20.8297 20.7259Z" fill="white"/>
<path d="M22.5364 23.9308C22.4409 23.8141 22.3464 23.6928 22.2558 23.5703L21.8789 23.8491C21.9741 23.9778 22.0731 24.1052 22.1736 24.2278L22.5364 23.9308Z" fill="white"/>
<path d="M21.992 23.1947C21.9076 23.068 21.8255 22.9381 21.748 22.8086L21.3457 23.0491C21.4271 23.1852 21.5132 23.3216 21.6018 23.4545L21.992 23.1947Z" fill="white"/>
<path d="M21.5231 22.4116C21.4516 22.2777 21.3828 22.1405 21.3186 22.0039L20.8945 22.2037C20.9622 22.3472 21.0345 22.4914 21.1095 22.6322L21.5231 22.4116Z" fill="white"/>
<path d="M20.0156 17.0625L20.482 17.1089C20.4972 16.9572 20.5161 16.8047 20.5384 16.6555L20.075 16.5859C20.0516 16.7428 20.0316 16.9031 20.0156 17.0625Z" fill="white"/>
<path d="M20.609 19.8372C20.5799 19.6886 20.5541 19.537 20.5323 19.3867L20.0684 19.4539C20.0913 19.6119 20.1185 19.7711 20.149 19.9272L20.609 19.8372Z" fill="white"/>
<path d="M19.9688 18.0187L20.4375 18.0198C20.4378 17.8673 20.4419 17.7134 20.4495 17.5628L19.9814 17.5391C19.9733 17.6973 19.9691 17.8587 19.9688 18.0187Z" fill="white"/>
<path d="M20.479 18.9366C20.4648 18.7863 20.4538 18.6328 20.4468 18.4805L19.9785 18.502C19.986 18.662 19.9973 18.8231 20.0123 18.9808L20.479 18.9366Z" fill="white"/>
<path d="M27.9564 8.91109C28.1052 8.88219 28.2569 8.85656 28.4072 8.835L28.3406 8.37109C28.1827 8.39375 28.0234 8.42062 27.8672 8.45094L27.9564 8.91109Z" fill="white"/>
<path d="M26.2073 9.43312C26.3473 9.37562 26.4909 9.32078 26.6343 9.27L26.4777 8.82812C26.3271 8.88141 26.1763 8.93906 26.0293 8.99938L26.2073 9.43312Z" fill="white"/>
<path d="M25.382 9.81969C25.5155 9.74875 25.6529 9.68016 25.7901 9.61563L25.5909 9.19141C25.4466 9.25906 25.3024 9.33125 25.1621 9.40578L25.382 9.81969Z" fill="white"/>
<path d="M27.0698 9.13C27.2148 9.08672 27.3632 9.04625 27.5109 9.01L27.3988 8.55469C27.2438 8.59297 27.0879 8.63531 26.9355 8.68094L27.0698 9.13Z" fill="white"/>
<path d="M28.86 8.78109C29.0103 8.76703 29.1636 8.75641 29.3161 8.74953L29.2952 8.28125C29.1353 8.28844 28.9742 8.29953 28.8164 8.31422L28.86 8.78109Z" fill="white"/>
<path d="M24.5973 10.2866C24.7234 10.2028 24.8532 10.1209 24.9837 10.0433L24.7437 9.64062C24.6068 9.72219 24.4702 9.80812 24.3379 9.89609L24.5973 10.2866Z" fill="white"/>
<path d="M23.1487 24.6089C23.0421 24.5019 22.9363 24.3903 22.8341 24.2773L22.4863 24.5916C22.5937 24.7103 22.7048 24.8275 22.8168 24.9398L23.1487 24.6089Z" fill="white"/>
<path d="M23.4777 24.9219L23.1621 25.2686C23.2802 25.3761 23.4023 25.4819 23.5249 25.583L23.8232 25.2214C23.7065 25.1252 23.5904 25.0244 23.4777 24.9219Z" fill="white"/>
<path d="M23.5159 11.1295L23.2021 10.7812C23.0835 10.8881 22.9662 10.9991 22.8535 11.1111L23.1838 11.4436C23.2913 11.3369 23.403 11.2312 23.5159 11.1295Z" fill="white"/>
<path d="M23.8628 10.8292C23.9806 10.7331 24.1022 10.6389 24.2238 10.5492L23.9456 10.1719C23.8178 10.2659 23.6903 10.365 23.5664 10.4659L23.8628 10.8292Z" fill="white"/>
<path d="M34.1039 18.0436C37.9636 14.6513 36.437 12.6256 31.9375 14.1903C30.9881 9.39002 28.4784 9.40221 27.5367 14.183C22.893 12.5461 21.6283 14.7341 25.3739 18.0367C22.3639 20.6985 22.7173 22.456 24.8534 22.4486C25.7128 22.4456 26.7273 22.1736 27.5405 21.8908C28.5017 26.7513 30.9955 26.616 31.9408 21.8975C36.687 23.5528 37.7539 21.2816 34.1039 18.0436ZM25.7334 18.345C26.1979 18.7313 26.7042 19.1108 27.2328 19.4716C27.2769 20.1422 27.3514 20.8017 27.4554 21.4247C23.2764 22.9013 22.2953 21.3589 25.7334 18.345ZM27.2022 18.8816C26.8029 18.5992 26.4329 18.3164 26.0961 18.0372C26.44 17.7539 26.8094 17.4724 27.2011 17.1966C27.1798 17.7644 27.1789 18.28 27.2022 18.8816ZM27.2311 16.6061C26.6937 16.9708 26.192 17.3477 25.7351 17.728C24.0195 16.2153 22.5351 14.1067 24.8248 14.0988C25.485 14.0964 26.3922 14.2788 27.4515 14.6528C27.3481 15.2756 27.2744 15.9353 27.2311 16.6061ZM31.7529 16.2827C31.2628 15.968 30.7962 15.6913 30.2545 15.4C30.7029 15.1833 31.145 14.9905 31.575 14.8233C31.65 15.2778 31.7103 15.7656 31.7529 16.2827ZM31.4901 14.3536C30.9228 14.5706 30.3345 14.8319 29.7392 15.1317C29.1522 14.8358 28.5601 14.5706 27.9839 14.348C28.8406 9.98564 30.6294 9.99143 31.4901 14.3536ZM27.8995 14.8194C28.3225 14.9838 28.7661 15.1772 29.2254 15.3999C28.6794 15.6933 28.2104 15.9706 27.7228 16.283C27.7648 15.7642 27.8248 15.2752 27.8995 14.8194ZM27.7251 19.7977C28.2186 20.1155 28.6814 20.3894 29.2228 20.6814C28.7747 20.898 28.3329 21.0906 27.9033 21.2578C27.8281 20.803 27.7678 20.315 27.7251 19.7977ZM27.988 21.7275C28.5547 21.5106 29.1422 21.2499 29.7365 20.9503C30.3347 21.2527 30.9258 21.5161 31.4958 21.7347C30.6433 26.1017 28.8484 26.0878 27.988 21.7275ZM31.5795 21.2646C31.147 21.0958 30.7022 20.9011 30.2509 20.6822C30.7958 20.3894 31.2604 20.1152 31.7559 19.7971C31.715 20.3067 31.6556 20.798 31.5795 21.2646ZM31.794 19.2141C31.154 19.6385 30.4729 20.0424 29.7372 20.4235C29.0308 20.0561 28.3495 19.6547 27.6854 19.213C27.645 18.4585 27.6419 17.6713 27.6839 16.8675C28.3525 16.4242 29.0278 16.0271 29.7401 15.658C30.4378 16.0205 31.1028 16.4097 31.7928 16.8686C31.8334 17.6274 31.8362 18.4061 31.794 19.2141ZM34.6173 14.1046C36.9554 14.0964 35.4922 16.1972 33.7433 17.7344C33.2859 17.3525 32.7834 16.9739 32.2453 16.6075C32.2012 15.9377 32.1269 15.2788 32.0228 14.6566C32.8039 14.3806 33.7928 14.1074 34.6173 14.1046ZM32.2759 17.1991C32.6681 17.476 33.0378 17.7586 33.3819 18.043C33.0454 18.3208 32.6762 18.6024 32.2776 18.8833C32.2997 18.2795 32.2976 17.7594 32.2759 17.1991ZM32.027 21.4316C32.1309 20.8155 32.2059 20.1569 32.2492 19.4711C32.7761 19.1125 33.2808 18.7353 33.744 18.3513C37.1778 21.371 36.1951 22.9083 32.027 21.4316Z" fill="white"/>
<path d="M29.7388 16.4609C28.4634 16.4617 27.8293 18.012 28.7273 18.9086C29.6288 19.8084 31.1742 19.1619 31.1734 17.8933C31.1726 17.103 30.5292 16.4605 29.7388 16.4609ZM29.0584 18.5769C28.4557 17.9752 28.8781 16.9328 29.7365 16.9298C30.2704 16.928 30.704 17.3619 30.7045 17.8936C30.7052 18.7473 29.6651 19.1825 29.0584 18.5769Z" fill="white"/>
<path d="M19.3033 30.9315C19.2222 30.8306 19.0747 30.8143 18.9737 30.8952L16.9686 32.504C16.848 32.6007 16.8525 32.7856 16.9775 32.8765L18.9784 34.3301C19.0831 34.4062 19.2297 34.3829 19.3058 34.2782C19.3819 34.1735 19.3586 34.027 19.2539 33.9509L17.5012 32.6776L19.267 31.2609C19.3681 31.1799 19.3844 31.0324 19.3033 30.9315Z" fill="white"/>
<path d="M17.0924 4.98227C17.1733 5.08337 17.321 5.09946 17.4221 5.01868C19.5975 3.27883 19.52 3.37899 19.5164 3.22352C19.5128 3.06524 19.5788 3.15258 17.4208 1.58399C17.3161 1.5079 17.1692 1.53071 17.0932 1.6354C17.0169 1.74008 17.04 1.88665 17.1447 1.96274L18.8961 3.23758L17.1289 4.65258C17.0278 4.73383 17.0116 4.88133 17.0924 4.98227Z" fill="white"/>
</svg>
