<svg width="36" height="38" viewBox="0 0 36 38" fill="none" xmlns="http://www.w3.org/2000/svg">
<path d="M35.8233 28.7195C35.3792 27.7356 34.2512 27.293 33.2548 27.7128C23.6769 31.7441 22.6434 32.4195 20.4914 32.2514C20.5223 32.2334 20.7512 32.0884 20.7636 32.0634C21.7661 31.2302 21.748 29.5512 20.3588 28.8278L14.0014 25.5175C13.968 25.5002 13.9309 25.4909 13.8933 25.4909H8.2825V22.8203C8.2825 22.6909 8.1775 22.5859 8.04813 22.5859H0.234375C0.105 22.5859 0 22.6909 0 22.8203L0.000156313 35.5252C0.000156313 35.6545 0.105156 35.7595 0.234531 35.7595H8.04828C8.17766 35.7595 8.28266 35.6545 8.28266 35.5252V32.8022H8.68656L17.3898 36.5573C19.5947 37.5086 22.1455 37.4892 24.3863 36.4012L34.8864 31.3028C35.8539 30.8333 36.2653 29.6984 35.8233 28.7195ZM7.81375 35.2908H0.468906L0.46875 23.0547H7.81391L7.81375 35.2908ZM34.6817 30.8812L24.1816 35.9797C22.1044 36.9886 19.6969 37.0423 17.5756 36.1272L8.82797 32.3528C8.79859 32.3402 8.76687 32.3336 8.735 32.3336H8.28266V25.9598C9.65953 25.9598 10.8645 25.9603 13.8356 25.9603L13.8986 25.9931C20.5481 29.4555 20.5919 29.2956 20.8875 30.0288C21.3166 31.0952 20.3864 32.4448 18.8864 31.8914C18.7905 31.8458 17.5177 31.2417 13.4027 29.2845C13.2856 29.2292 13.1458 29.2786 13.0903 29.3955C13.0348 29.5123 13.0844 29.6523 13.2012 29.7078L17.4728 31.7394C18.4044 32.3167 19.7159 32.7514 20.99 32.7514C22.958 32.7514 23.7102 32.2389 33.4369 28.145C34.1845 27.8298 35.0631 28.1745 35.3962 28.9125C35.733 29.6584 35.4191 30.5233 34.6817 30.8812Z" fill="white"/>
<path d="M2.97742 24.4062C2.2068 24.4062 1.58008 25.032 1.58008 25.8012C1.58008 26.5705 2.20695 27.1964 2.97742 27.1964C3.74789 27.1964 4.37461 26.5705 4.37461 25.8012C4.37461 25.032 3.74789 24.4062 2.97742 24.4062ZM2.97742 26.7277C2.46539 26.7277 2.04883 26.3122 2.04883 25.8012C2.04883 25.2905 2.46539 24.875 2.97742 24.875C3.4893 24.875 3.90586 25.2905 3.90586 25.8012C3.90602 26.3122 3.48945 26.7277 2.97742 26.7277Z" fill="white"/>
<path d="M3.51688 10.073C3.69828 10.6644 4.13219 11.1335 4.70766 11.3599L8.60656 12.8953C9.17156 13.1178 9.8086 13.0803 10.3538 12.7667L11.0975 12.3386L11.4386 12.4239C14.0905 13.0905 15.3973 14.1841 18.3036 16.1746C19.6216 17.0771 20.7416 18.2056 21.6347 19.5283C21.6558 19.8303 21.7077 20.1308 21.7967 20.4225L22.673 23.2938C22.8536 23.8864 23.288 24.3564 23.8644 24.5833L27.7655 26.1197C28.3438 26.3475 28.978 26.2963 29.5067 25.9944L31.9633 24.5919C32.1328 24.495 32.1161 24.2439 31.9342 24.1708L28.6808 22.8663L28.6169 21.8642C28.5094 20.1777 29.5706 19.3777 30.3548 18.6302L33.6055 19.9338C33.7872 20.0067 33.9747 19.8361 33.9169 19.6475L33.0864 16.938C32.905 16.3467 32.4711 15.8775 31.8958 15.6511C26.9684 13.7106 27.4352 13.5621 25.5838 14.6275C25.3545 14.5236 23.2797 14.2475 20.9342 12.6283C17.9563 10.5727 16.5261 9.77627 14.9781 7.61127C14.9522 6.93159 14.8802 6.82877 13.9306 3.71721C13.75 3.12455 13.3156 2.65455 12.7392 2.42768L8.83781 0.89143C8.265 0.666117 7.63063 0.711586 7.09641 1.01659L4.63985 2.41924C4.47031 2.51612 4.48703 2.76721 4.66891 2.84034L7.92235 4.14471L7.98641 5.14674C8.09422 6.83643 7.02688 7.63877 6.24844 8.3808L2.99781 7.07737C2.815 7.0044 2.62891 7.17581 2.68641 7.36362L3.51688 10.073ZM27.8248 14.5517L31.7238 16.0872C32.1655 16.2611 32.4988 16.6214 32.6381 17.0755L33.325 19.3163L30.3895 18.1391C30.3041 18.1049 30.2069 18.1235 30.1405 18.1871C29.2414 19.0439 28.0256 19.9596 28.1491 21.8944L28.2225 23.0439C28.2283 23.1341 28.2853 23.2128 28.3691 23.2466L31.3094 24.4255L29.2742 25.5875C28.8642 25.8217 28.3769 25.8572 27.9373 25.6838L24.0363 24.1474C23.5936 23.9731 23.2602 23.6122 23.1214 23.1572L22.2452 20.286C21.7494 18.66 22.4745 16.9577 23.8794 16.1491C26.5459 14.6144 26.9364 14.2019 27.8248 14.5517ZM17.8061 11.0388C20.9066 13.1791 22.1484 14.2439 25.0041 14.9605C23.6614 15.7328 21.937 16.4553 21.652 18.7421C20.793 17.5941 19.7581 16.6025 18.5686 15.788C15.6517 13.7902 14.3389 12.6991 11.682 12.0024C12.9197 11.29 14.6145 10.608 14.9405 8.34502C15.7516 9.38018 16.7133 10.2844 17.8061 11.0388ZM6.21391 8.8719C6.29906 8.90581 6.39625 8.88737 6.46297 8.82393C7.36141 7.96752 8.57781 7.05143 8.45438 5.11659L8.38078 3.96705C8.375 3.8769 8.31797 3.79815 8.23422 3.7644L5.29391 2.58549L7.32906 1.42346C7.73938 1.18924 8.22657 1.1544 8.6661 1.32737L12.5672 2.86362C13.0098 3.03784 13.3433 3.39877 13.482 3.85377C14.3875 6.82127 14.6756 7.34174 14.4364 8.50377C14.0369 10.4083 12.7722 10.8342 10.12 12.3605C9.70891 12.5969 9.21985 12.633 8.77844 12.4592L4.87953 10.9238C4.43766 10.7499 4.10438 10.3896 3.96516 9.93565L3.27828 7.69487L6.21391 8.8719Z" fill="white"/>
<path d="M15.0895 11.5484L20.8973 15.5574C21.0044 15.6312 21.1502 15.6038 21.2234 15.4977C21.297 15.391 21.2703 15.2452 21.1638 15.1717L15.3559 11.1626C15.2491 11.0892 15.1034 11.1157 15.0298 11.2223C14.9563 11.329 14.983 11.4748 15.0895 11.5484Z" fill="white"/>
<path d="M18.2503 8.4146C18.2589 8.41554 18.2672 8.41601 18.2756 8.41601C18.3938 8.41601 18.4955 8.32695 18.5083 8.20663L18.7591 5.87257C18.773 5.74398 18.6799 5.62835 18.5511 5.6146C18.4224 5.60101 18.3069 5.69382 18.2931 5.82257L18.0424 8.15663C18.0286 8.28523 18.1216 8.40085 18.2503 8.4146Z" fill="white"/>
<path d="M23.2806 11.9921C23.3473 11.9921 25.505 11.2024 25.5678 11.1797C25.8611 11.0739 25.6975 10.6327 25.4084 10.7391L23.2009 11.5374C22.9544 11.6264 23.0205 11.9921 23.2806 11.9921Z" fill="white"/>
<path d="M13.7546 14.976C13.7025 14.8576 13.5646 14.8038 13.4457 14.8557L11.2967 15.8007C11.0133 15.9251 11.2011 16.3541 11.4853 16.2298L13.6342 15.2848C13.7528 15.2327 13.8067 15.0943 13.7546 14.976Z" fill="white"/>
<path d="M18.2284 18.7526L18.135 21.0984C18.1298 21.2278 18.2304 21.3367 18.3598 21.342C18.3631 21.3422 18.366 21.3421 18.3693 21.3421C18.4945 21.3421 18.5984 21.2432 18.6034 21.1171L18.6968 18.7714C18.702 18.642 18.6014 18.5331 18.472 18.5278C18.341 18.5198 18.2334 18.6232 18.2284 18.7526Z" fill="white"/>
<path d="M23.4429 6.37667L23.1543 6.74609L23.5238 7.03475L23.8124 6.66533L23.4429 6.37667Z" fill="white"/>
<path d="M21.134 9.33369L20.8457 9.70312L21.2153 9.9915L21.5035 9.62206L21.134 9.33369Z" fill="white"/>
<path d="M21.7102 8.5915L21.4219 8.96094L21.7914 9.24931L22.0797 8.87987L21.7102 8.5915Z" fill="white"/>
<path d="M22.8645 7.11494L22.5762 7.48438L22.9457 7.77275L23.234 7.40331L22.8645 7.11494Z" fill="white"/>
<path d="M22.2883 7.85322L22 8.22266L22.3696 8.51103L22.6578 8.14159L22.2883 7.85322Z" fill="white"/>
<path d="M13.5285 20.058L13.248 20.4336L13.6237 20.714L13.9041 20.3384L13.5285 20.058Z" fill="white"/>
<path d="M14.089 19.308L13.8086 19.6836L14.1842 19.964L14.4646 19.5884L14.089 19.308Z" fill="white"/>
<path d="M14.6515 18.558L14.3711 18.9336L14.7467 19.214L15.0271 18.8384L14.6515 18.558Z" fill="white"/>
<path d="M15.7726 17.0541L15.4922 17.4297L15.8678 17.7101L16.1482 17.3345L15.7726 17.0541Z" fill="white"/>
<path d="M15.212 17.8041L14.9316 18.1797L15.3072 18.4601L15.5877 18.0845L15.212 17.8041Z" fill="white"/>
</svg>
