<svg width="40" height="40" viewBox="0 0 40 40" fill="none" xmlns="http://www.w3.org/2000/svg">
<path d="M38.38 9.40469C38.3388 9.35818 38.2808 9.32995 38.2188 9.3262C38.1567 9.32245 38.0958 9.34349 38.0492 9.38469L33.0636 13.7967L35.4494 7.24828C35.4623 7.21287 35.4665 7.17487 35.4616 7.1375C35.4567 7.10013 35.4429 7.0645 35.4213 7.03361C35.3997 7.00273 35.3709 6.97752 35.3375 6.9601C35.3041 6.94269 35.2669 6.9336 35.2292 6.93359H9.58674C9.54905 6.9336 9.51192 6.94269 9.47849 6.9601C9.44507 6.97752 9.41633 7.00273 9.39473 7.03361C9.37312 7.0645 9.35928 7.10013 9.35439 7.1375C9.34949 7.17487 9.35367 7.21287 9.36659 7.24828L11.7524 13.7967L6.7669 9.38469C6.74397 9.36359 6.71706 9.34728 6.68775 9.3367C6.65845 9.32613 6.62732 9.3215 6.5962 9.3231C6.56509 9.32469 6.5346 9.33248 6.50653 9.34599C6.47845 9.35951 6.45336 9.37849 6.4327 9.40182C6.41205 9.42515 6.39626 9.45237 6.38625 9.48188C6.37624 9.51138 6.37222 9.54259 6.37441 9.57367C6.37661 9.60475 6.38498 9.63508 6.39903 9.66289C6.41309 9.6907 6.43255 9.71543 6.45627 9.73562L12.0549 14.6903V21.0977C11.8841 21.0667 11.7082 21.0792 11.5435 21.134C11.3789 21.1888 11.2306 21.2842 11.1124 21.4113L6.51018 26.3695C6.4845 26.3973 6.46591 26.4309 6.45596 26.4673L5.76955 28.985L5.24518 28.4984C5.22262 28.4775 5.19616 28.4612 5.1673 28.4505C5.13844 28.4398 5.10776 28.4349 5.077 28.436C5.04624 28.4371 5.01601 28.4443 4.98803 28.4572C4.96005 28.47 4.93487 28.4882 4.91393 28.5108L1.62315 32.0563C1.60221 32.0788 1.58591 32.1053 1.5752 32.1341C1.56449 32.163 1.55956 32.1937 1.56071 32.2244C1.56186 32.2552 1.56905 32.2854 1.58188 32.3134C1.59471 32.3414 1.61293 32.3666 1.63549 32.3875L9.40237 39.5967C9.42493 39.6177 9.45139 39.634 9.48025 39.6447C9.50911 39.6554 9.53979 39.6603 9.57055 39.6592C9.60131 39.658 9.63154 39.6508 9.65952 39.638C9.6875 39.6252 9.71268 39.6069 9.73362 39.5844L13.0244 36.0389C13.0453 36.0163 13.0616 35.9899 13.0723 35.961C13.0831 35.9322 13.088 35.9015 13.0868 35.8707C13.0857 35.84 13.0785 35.8097 13.0657 35.7818C13.0528 35.7538 13.0346 35.7286 13.0121 35.7077L12.4292 35.1667C13.4075 35.0148 12.8694 35.0934 14.891 34.8094C15.3745 34.7403 15.8197 34.5074 16.1522 34.1495L18.8553 31.2364H32.531C32.5931 31.2364 32.6527 31.2117 32.6967 31.1678C32.7406 31.1238 32.7653 31.0642 32.7653 31.002V14.6873L38.3607 9.73562C38.3837 9.71517 38.4024 9.69038 38.4158 9.66268C38.4293 9.63498 38.4371 9.6049 38.4389 9.57417C38.4407 9.54344 38.4364 9.51265 38.4263 9.48357C38.4162 9.45449 38.4005 9.42769 38.38 9.40469ZM25.7028 7.40234L24.6403 14.3492H20.1794L19.1169 7.40234H25.7028ZM20.2122 14.8188H24.6038V18.0241L24.1975 17.5647C24.1755 17.5397 24.1485 17.5197 24.1182 17.506C24.0878 17.4923 24.0549 17.4852 24.0217 17.4852C23.9884 17.4852 23.9555 17.4923 23.9252 17.506C23.8949 17.5197 23.8678 17.5397 23.8458 17.5647L23.213 18.2864L22.5805 17.5647C22.5585 17.5396 22.5314 17.5194 22.501 17.5056C22.4706 17.4918 22.4376 17.4847 22.4042 17.4847C22.3708 17.4847 22.3378 17.4918 22.3074 17.5056C22.2769 17.5194 22.2498 17.5396 22.2278 17.5647L21.5961 18.2862L20.9635 17.5647C20.9408 17.5407 20.9135 17.5215 20.8832 17.5084C20.8529 17.4954 20.8202 17.4886 20.7872 17.4886C20.7542 17.4886 20.7215 17.4954 20.6912 17.5084C20.6609 17.5215 20.6336 17.5407 20.611 17.5647L20.2125 18.0191L20.2122 14.8188ZM32.3636 14.35H25.1136L26.1761 7.40313H34.8939L32.3636 14.35ZM18.6427 7.40313L19.7052 14.35H12.4528L9.92159 7.40234L18.6427 7.40313ZM9.54956 39.0936L2.12612 32.203L5.09815 29.0014L12.5214 35.892L9.54956 39.0936ZM15.8086 33.8305C15.5459 34.1122 15.194 34.2947 14.8124 34.3469C12.7967 34.6303 13.3989 34.5417 11.9914 34.7602L6.15721 29.345L6.89299 26.6461L11.4555 21.7302C11.5579 21.62 11.6998 21.555 11.8501 21.5494C12.0004 21.5438 12.1467 21.5981 12.2571 21.7003C12.5244 21.9484 12.7305 22.0803 12.7424 22.3766C12.7454 22.4512 12.7336 22.5257 12.7077 22.5957C12.6818 22.6657 12.6422 22.7299 12.5913 22.7845C12.3977 22.9934 12.6864 23.3716 12.9819 23.0531C13.2186 22.7992 13.2519 22.7484 13.4082 22.6583C13.5709 22.5652 13.7591 22.5263 13.9454 22.5472C14.1318 22.5681 14.3067 22.6476 14.4449 22.7744C14.4917 22.818 14.8225 23.1236 14.8696 23.1673C15.0347 23.3208 15.1347 23.5318 15.1489 23.7567C15.1632 23.9817 15.0907 24.2036 14.9463 24.3767C14.7444 24.6122 15.1061 24.898 15.301 24.6883C15.5055 24.4681 15.7641 24.1081 16.2935 24.1908C16.618 24.2417 16.731 24.3906 17.1822 24.81C17.5142 25.1188 17.5135 25.4611 17.3719 25.8544C17.3355 25.8998 17.3173 25.9571 17.3208 26.0152C17.3244 26.0732 17.3493 26.1279 17.391 26.1686C17.4159 26.1928 17.4457 26.2112 17.4785 26.2225C17.5113 26.2339 17.5461 26.238 17.5807 26.2344C17.6152 26.2309 17.6485 26.2198 17.6782 26.202C17.708 26.1842 17.7335 26.1601 17.753 26.1314L21.3797 22.2241C21.5886 21.9989 21.8784 21.8659 22.1854 21.8544C22.3373 21.8487 22.489 21.873 22.6316 21.9259C22.7742 21.9788 22.9049 22.0592 23.0164 22.1627C23.1279 22.2661 23.218 22.3905 23.2814 22.5287C23.3448 22.6669 23.3804 22.8163 23.3861 22.9683C23.3918 23.1203 23.3675 23.2719 23.3146 23.4145C23.2617 23.5571 23.1813 23.6879 23.0778 23.7994L16.5403 30.8427C16.498 30.8882 16.4756 30.9488 16.4779 31.0109C16.4803 31.073 16.5072 31.1317 16.5528 31.174C16.5983 31.2163 16.6589 31.2387 16.721 31.2364C16.7831 31.2341 16.8418 31.2071 16.8841 31.1616C16.963 31.0764 19.1313 28.7334 19.2186 28.657C19.7483 28.1945 20.3702 28.3967 20.6991 28.562C20.0986 29.2081 16.1789 33.4316 15.8086 33.8305ZM19.2913 30.768L21.2394 28.6691C21.2619 28.6449 21.2789 28.6162 21.2895 28.5849C21.3001 28.5537 21.304 28.5205 21.3009 28.4877C21.2978 28.4548 21.2878 28.4229 21.2716 28.3942C21.2553 28.3655 21.2332 28.3405 21.2066 28.3209C20.8285 28.047 20.3727 27.9014 19.9058 27.9055L23.4214 24.1186C23.5667 23.9619 23.6798 23.7782 23.7541 23.5779C23.8284 23.3775 23.8625 23.1645 23.8545 22.951C23.8465 22.7375 23.7965 22.5276 23.7074 22.3334C23.6183 22.1392 23.4918 21.9645 23.3351 21.8191C23.1785 21.6738 22.9947 21.5608 22.7944 21.4865C22.594 21.4122 22.381 21.3781 22.1675 21.3861C21.954 21.3941 21.7441 21.4441 21.5499 21.5332C21.3557 21.6223 21.181 21.7488 21.0357 21.9055L17.9283 25.2536C17.8847 25.0045 17.7745 24.7718 17.6094 24.5803C17.5101 24.472 17.4046 24.3695 17.2935 24.2733C17.1372 24.1283 16.5413 23.4239 15.6206 23.822C15.622 23.6258 15.5806 23.4316 15.4994 23.253C15.4181 23.0744 15.2989 22.9157 15.15 22.7878C14.7767 22.4413 14.6538 22.3061 14.4102 22.1931C14.4063 22.1913 14.4022 22.1897 14.3981 22.188C14.0755 22.0441 13.7094 22.0319 13.3778 22.1541C13.3164 22.1761 13.2566 22.2026 13.1991 22.2334C13.15 21.9266 12.9788 21.6806 12.5236 21.31V14.8188H19.7436V18.6427C19.7436 18.6903 19.7581 18.7369 19.7853 18.7761C19.8124 18.8153 19.8508 18.8453 19.8954 18.8621C19.9401 18.8788 19.9887 18.8816 20.035 18.87C20.0812 18.8584 20.1228 18.833 20.1542 18.7972L20.7869 18.0755L21.4197 18.7972C21.4417 18.8223 21.4688 18.8424 21.4992 18.8562C21.5296 18.87 21.5627 18.8772 21.596 18.8772C21.6294 18.8772 21.6624 18.87 21.6928 18.8562C21.7233 18.8424 21.7504 18.8223 21.7724 18.7972L22.4041 18.0758L23.0366 18.7973C23.0586 18.8224 23.0857 18.8425 23.1161 18.8563C23.1464 18.87 23.1794 18.8771 23.2128 18.8771C23.2461 18.8771 23.2791 18.87 23.3095 18.8563C23.3398 18.8425 23.3669 18.8224 23.3889 18.7973L24.0225 18.0747L24.6631 18.7981C24.6947 18.8337 24.7363 18.8589 24.7825 18.8703C24.8286 18.8817 24.8772 18.8788 24.9217 18.8619C24.9661 18.8451 25.0044 18.8151 25.0315 18.7759C25.0585 18.7368 25.073 18.6904 25.073 18.6428V14.8188H32.2966V30.7677L19.2913 30.768Z" fill="white"/>
<path d="M29.4421 5.44911C30.3556 4.78387 31.4043 4.32763 32.5138 4.1127C32.6203 5.27801 33.8888 5.59489 34.3014 4.87755C34.5671 4.41583 34.3156 3.53848 33.0781 3.5838C33.1955 3.36926 33.354 3.17997 33.5445 3.02677C33.7351 2.87357 33.954 2.75946 34.1888 2.69098C34.2487 2.67441 34.2996 2.6347 34.3303 2.58059C34.361 2.52648 34.3689 2.46241 34.3523 2.40247C34.3357 2.34252 34.296 2.29162 34.2419 2.26096C34.1878 2.23029 34.1237 2.22238 34.0638 2.23895C33.4511 2.40723 32.7577 2.93317 32.5588 3.63067C31.0588 3.84317 29.7264 4.67614 29.1717 5.06551C29.1209 5.10136 29.0863 5.15594 29.0757 5.21726C29.0651 5.27858 29.0793 5.3416 29.1151 5.39247C29.1509 5.44334 29.2055 5.47788 29.2669 5.4885C29.3282 5.49912 29.3912 5.48495 29.4421 5.44911ZM33.8107 4.23551C34.0314 4.4588 33.9299 4.8077 33.5944 4.79005C33.2417 4.77348 33.0071 4.40661 32.9794 4.05848C33.2719 4.03942 33.6041 4.02723 33.8107 4.23551Z" fill="white"/>
<path d="M11.6844 2.61959C11.9258 2.65798 12.1573 2.74354 12.3656 2.8714C12.574 2.99925 12.7551 3.16689 12.8986 3.36475C11.1513 3.52646 11.5393 5.27662 12.62 5.08865C13.2018 4.98662 13.5427 4.40428 13.5263 3.82662C14.373 3.90475 14.938 4.39521 15.4638 5.43974C15.4924 5.49406 15.5412 5.53496 15.5997 5.55367C15.6582 5.57237 15.7217 5.56738 15.7765 5.53977C15.8314 5.51215 15.8732 5.46412 15.893 5.406C15.9128 5.34788 15.909 5.28431 15.8824 5.22896C15.2525 3.97896 14.5108 3.39756 13.4208 3.3499C13.1366 2.68099 12.3807 2.24521 11.7504 2.15568C11.7195 2.15041 11.6879 2.15139 11.6574 2.15855C11.6269 2.16571 11.5981 2.17892 11.5728 2.19738C11.5475 2.21584 11.5261 2.23919 11.51 2.26605C11.4939 2.29291 11.4833 2.32272 11.4789 2.35374C11.4745 2.38475 11.4763 2.41634 11.4843 2.44662C11.4924 2.47691 11.5064 2.50528 11.5255 2.53007C11.5447 2.55485 11.5686 2.57554 11.5959 2.59092C11.6232 2.6063 11.6533 2.61604 11.6844 2.61959ZM13.0566 3.82271C13.0736 4.16928 12.8894 4.56568 12.5391 4.62725C12.0477 4.71443 11.9802 3.95896 12.7502 3.85381C12.8561 3.83912 12.958 3.82865 13.0566 3.8224V3.82271Z" fill="white"/>
<path d="M18.8034 4.46344L19.2397 4.29156C19.1808 4.14187 19.1166 3.9925 19.0488 3.84766L18.625 4.04656C18.6875 4.18266 18.7481 4.32297 18.8034 4.46344Z" fill="white"/>
<path d="M19.0827 5.32609L19.5369 5.21016C19.497 5.05391 19.452 4.89766 19.4033 4.74609L18.957 4.88969C19.003 5.03219 19.0452 5.17906 19.0827 5.32609Z" fill="white"/>
<path d="M17.6981 1.85547C17.5887 1.73828 17.4744 1.62281 17.3581 1.51172L17.0352 1.85156C17.1445 1.95563 17.2525 2.06422 17.3553 2.17453L17.6981 1.85547Z" fill="white"/>
<path d="M18.4187 3.64172L18.8298 3.41625C18.7533 3.27641 18.6705 3.13641 18.5839 3L18.1875 3.25094C18.2692 3.37906 18.3469 3.51047 18.4187 3.64172Z" fill="white"/>
<path d="M17.9324 2.87594L18.312 2.60094C18.2182 2.47125 18.1182 2.34266 18.0162 2.21875L17.6543 2.51656C17.7504 2.63344 17.844 2.75437 17.9324 2.87594Z" fill="white"/>
<path d="M16.2195 0.613281C16.0804 0.522045 15.9364 0.438584 15.788 0.363281L15.584 0.785156C15.7153 0.852602 15.843 0.92687 15.9665 1.00766L16.2195 0.613281Z" fill="white"/>
<path d="M16.9984 1.19063C16.8752 1.08672 16.7475 0.985781 16.6189 0.890625L16.3398 1.26672C16.4606 1.35625 16.5806 1.45109 16.6966 1.54797L16.9984 1.19063Z" fill="white"/>
<path d="M25.1919 4.78781L24.7495 4.63281C24.6931 4.7926 24.6502 4.95681 24.6211 5.12375L25.0831 5.20187C25.1079 5.06108 25.1442 4.92259 25.1919 4.78781Z" fill="white"/>
<path d="M26.7728 2.63047L26.4556 2.28516C26.3361 2.39453 26.2195 2.5075 26.1094 2.61953L26.4434 2.94766C26.548 2.84187 26.6587 2.735 26.7728 2.63047Z" fill="white"/>
<path d="M26.1322 3.28172L25.7803 2.97266C25.6709 3.09766 25.5677 3.22344 25.4727 3.34766L25.8453 3.63203C25.9331 3.51625 26.0303 3.39844 26.1322 3.28172Z" fill="white"/>
<path d="M27.4743 2.05016L27.203 1.66797C27.1968 1.6725 27.046 1.77984 26.8184 1.96906L27.118 2.32953C27.3302 2.15281 27.4729 2.05109 27.4743 2.05016Z" fill="white"/>
<path d="M25.5873 3.99938L25.1926 3.74609C25.1013 3.88875 25.0187 4.0325 24.9473 4.17359L25.3657 4.38516C25.4329 4.25285 25.5069 4.12409 25.5873 3.99938Z" fill="white"/>
<path d="M9.63014 35.1062C9.40855 35.1144 9.19437 35.1882 9.01472 35.3182C8.83506 35.4482 8.69798 35.6285 8.62083 35.8364C8.54367 36.0443 8.52991 36.2704 8.58127 36.4862C8.63263 36.7019 8.74681 36.8975 8.90937 37.0484C9.07193 37.1992 9.27557 37.2984 9.49453 37.3335C9.71349 37.3686 9.93793 37.3379 10.1395 37.2454C10.341 37.1529 10.5106 37.0028 10.6268 36.8139C10.743 36.625 10.8005 36.4059 10.7922 36.1843C10.7806 35.8874 10.6518 35.6072 10.4339 35.4051C10.2161 35.203 9.92708 35.0955 9.63014 35.1062ZM10.15 36.6704C10.0763 36.7498 9.98405 36.8095 9.88151 36.8443C9.77897 36.8791 9.66939 36.8878 9.56265 36.8696C9.45591 36.8514 9.35537 36.807 9.2701 36.7403C9.18483 36.6735 9.11752 36.5866 9.07423 36.4874C9.03095 36.3881 9.01305 36.2797 9.02216 36.1718C9.03128 36.0639 9.06711 35.96 9.12642 35.8694C9.18574 35.7788 9.26667 35.7044 9.36192 35.6529C9.45717 35.6014 9.56374 35.5745 9.67202 35.5745C9.79883 35.5747 9.92282 35.6119 10.0288 35.6815C10.1348 35.7511 10.2183 35.8501 10.269 35.9663C10.3197 36.0825 10.3354 36.211 10.3143 36.3361C10.2932 36.4611 10.2361 36.5773 10.15 36.6704Z" fill="white"/>
<path d="M29.6016 33.8125H29.1328V34.2812H29.6016V33.8125Z" fill="white"/>
<path d="M28.6641 33.8125H28.1953V34.2812H28.6641V33.8125Z" fill="white"/>
<path d="M27.7254 33.8125H27.3379V34.2812H27.7254V33.8125Z" fill="white"/>
<path d="M35.6445 31.0084L36.1133 31.0228C36.1161 30.9361 36.1152 30.643 36.1152 30.5469H35.6464C35.6461 30.6347 35.6469 30.9242 35.6445 31.0084Z" fill="white"/>
<path d="M32.8711 33.8122L32.8916 34.2809C33.0595 34.2735 33.2266 34.2538 33.3916 34.2217L33.3019 33.7617C33.1597 33.7892 33.0157 33.8061 32.8711 33.8122Z" fill="white"/>
<path d="M36.1152 29.6094H35.6465V30.0781H36.1152V29.6094Z" fill="white"/>
<path d="M32.4141 33.8125H31.9453V34.2812H32.4141V33.8125Z" fill="white"/>
<path d="M35.0879 32.6219L35.4663 32.8986C35.5653 32.763 35.6541 32.6202 35.732 32.4714L35.3166 32.2539C35.2497 32.3821 35.1732 32.5051 35.0879 32.6219Z" fill="white"/>
<path d="M33.7207 33.6445L33.8787 34.0858C34.0367 34.0293 34.1902 33.961 34.338 33.8816L34.1162 33.4688C33.9889 33.537 33.8567 33.5958 33.7207 33.6445Z" fill="white"/>
<path d="M35.4883 31.8564L35.9314 32.0089C35.9861 31.8501 36.0288 31.6874 36.0592 31.5222L35.5981 31.4375C35.572 31.5797 35.5353 31.7197 35.4883 31.8564Z" fill="white"/>
<path d="M30.5391 33.8125H30.0703V34.2812H30.5391V33.8125Z" fill="white"/>
<path d="M31.4766 33.8125H31.0078V34.2812H31.4766V33.8125Z" fill="white"/>
<path d="M34.4805 33.2375L34.7609 33.6125C34.8955 33.5122 35.0225 33.4019 35.1406 33.2827L34.8075 32.9531C34.7056 33.0558 34.5963 33.1509 34.4805 33.2375Z" fill="white"/>
<path d="M36.1152 28.6719H35.6465V29.1406H36.1152V28.6719Z" fill="white"/>
<path d="M25.1784 23.67L24.7188 23.5781C24.6908 23.7185 24.6509 23.8563 24.5996 23.99L25.0371 24.1577C25.0979 23.9994 25.1452 23.8363 25.1784 23.67Z" fill="white"/>
<path d="M24.6538 22.305L25.1013 22.1655C25.0508 22.0037 24.9868 21.8464 24.91 21.6953L24.4922 21.908C24.5571 22.0355 24.6112 22.1683 24.6538 22.305Z" fill="white"/>
<path d="M24.166 24.725L24.5243 25.0272C24.6335 24.8976 24.7317 24.7591 24.8179 24.6133L24.4141 24.375C24.3413 24.4983 24.2583 24.6154 24.166 24.725Z" fill="white"/>
<path d="M25.2106 22.6602L24.7461 22.7227C24.7652 22.8647 24.7726 23.0081 24.7683 23.1514L25.237 23.1661C25.2421 22.997 25.2333 22.8278 25.2106 22.6602Z" fill="white"/>
<path d="M24.6424 21.2636C24.5416 21.1277 24.4298 21.0003 24.308 20.8828L23.9824 21.22C24.0856 21.3196 24.1804 21.4276 24.2659 21.5428L24.6424 21.2636Z" fill="white"/>
<path d="M23.5137 25.2811L23.7535 25.6837C23.899 25.597 24.037 25.4983 24.166 25.3886L23.8627 25.0312C23.7535 25.124 23.6367 25.2076 23.5137 25.2811Z" fill="white"/>
<path d="M22.7168 25.5903L22.8105 26.0495C22.9766 26.0155 23.1394 25.9676 23.2974 25.9063L23.1279 25.4688C22.9945 25.5207 22.857 25.5614 22.7168 25.5903Z" fill="white"/>
<path d="M23.4741 20.3125L23.2773 20.7378C23.4073 20.7981 23.532 20.8691 23.6502 20.9502L23.9158 20.5634C23.7758 20.4676 23.628 20.3837 23.4741 20.3125Z" fill="white"/>
<path d="M19.8105 21.1867L20.1784 21.4773C20.2673 21.3649 20.3654 21.26 20.4715 21.1636L20.1566 20.8164C20.0313 20.9301 19.9155 21.054 19.8105 21.1867Z" fill="white"/>
<path d="M21.4902 20.115L21.5988 20.5709C21.7382 20.5379 21.8801 20.5164 22.023 20.5067L21.9918 20.0391C21.8228 20.0504 21.655 20.0758 21.4902 20.115Z" fill="white"/>
<path d="M20.5605 20.5103L20.8132 20.905C20.9338 20.8278 21.0607 20.7608 21.1924 20.7047L21.009 20.2734C20.8531 20.3397 20.7031 20.4189 20.5605 20.5103Z" fill="white"/>
<path d="M19.1582 23.0713H19.627C19.6269 22.9278 19.6388 22.7845 19.6624 22.643L19.1999 22.5664C19.1722 22.7333 19.1582 22.9021 19.1582 23.0713Z" fill="white"/>
<path d="M22.4531 20.5134C22.5957 20.5277 22.7368 20.5538 22.875 20.5916L22.9984 20.1384C22.8346 20.0939 22.6674 20.0633 22.4984 20.0469L22.4531 20.5134Z" fill="white"/>
<path d="M19.3242 22.0731L19.767 22.2269C19.814 22.0916 19.8723 21.9604 19.9411 21.8348L19.5305 21.6094C19.4489 21.7579 19.3799 21.913 19.3242 22.0731Z" fill="white"/>
<path d="M24.9219 25.9137L25.2469 26.2516C25.3658 26.1372 25.4783 26.0161 25.5836 25.8891L25.223 25.5898C25.1287 25.7033 25.0282 25.8114 24.9219 25.9137Z" fill="white"/>
<path d="M24.2207 26.4481L24.4626 26.8497C24.604 26.7646 24.7405 26.6715 24.8715 26.5711L24.5862 26.1992C24.4691 26.2889 24.347 26.372 24.2207 26.4481Z" fill="white"/>
<path d="M25.4863 25.2342L25.8782 25.4916C25.9688 25.3535 26.0516 25.2104 26.126 25.063L25.7076 24.8516C25.6411 24.9832 25.5673 25.111 25.4863 25.2342Z" fill="white"/>
<path d="M23.418 26.817L23.5636 27.2627C23.7206 27.2113 23.8745 27.1512 24.0247 27.0825L23.8297 26.6562C23.6956 26.7176 23.5581 26.7713 23.418 26.817Z" fill="white"/>
<path d="M25.3505 20.0148C25.2355 19.8964 25.1139 19.7845 24.9863 19.6797L24.6895 20.0419C24.8033 20.1355 24.9118 20.2354 25.0146 20.3411L25.3505 20.0148Z" fill="white"/>
<path d="M26.0938 23.5895L26.5586 23.6492C26.5795 23.4856 26.5914 23.321 26.5942 23.1561L26.1255 23.1484C26.1229 23.2959 26.1124 23.4432 26.0938 23.5895Z" fill="white"/>
<path d="M25.8828 24.4458L26.3223 24.6088C26.3797 24.4538 26.4282 24.2957 26.4677 24.1353L26.0123 24.0234C25.9772 24.1666 25.934 24.3076 25.8828 24.4458Z" fill="white"/>
<path d="M26.1095 22.7055L26.5761 22.6611C26.5605 22.4967 26.5356 22.3334 26.5016 22.1719L26.043 22.2684C26.0732 22.4128 26.0955 22.5587 26.1095 22.7055Z" fill="white"/>
<path d="M25.5561 21.0417L25.9564 20.7981C25.8704 20.6571 25.7765 20.521 25.6752 20.3906L25.3047 20.6777C25.3952 20.7942 25.4792 20.9158 25.5561 21.0417Z" fill="white"/>
<path d="M25.9263 21.8422L26.3712 21.6947C26.3192 21.5379 26.2583 21.3842 26.1887 21.2344L25.7637 21.4317C25.8256 21.5654 25.8799 21.7024 25.9263 21.8422Z" fill="white"/>
<path d="M18.2383 21.1663L18.6602 21.3705C18.7246 21.2378 18.7965 21.1089 18.8755 20.9844L18.4794 20.7344C18.391 20.8737 18.3105 21.0179 18.2383 21.1663Z" fill="white"/>
<path d="M17.9102 22.1006L18.3672 22.205C18.4 22.0612 18.4409 21.9195 18.4897 21.7803L18.0473 21.625C17.9927 21.7808 17.9469 21.9396 17.9102 22.1006Z" fill="white"/>
<path d="M17.8008 23.08H18.2695C18.2695 22.9324 18.2777 22.7848 18.2941 22.6381L17.8281 22.5859C17.8099 22.75 17.8008 22.9149 17.8008 23.08Z" fill="white"/>
</svg>
