<svg width="40" height="40" viewBox="0 0 40 40" fill="none" xmlns="http://www.w3.org/2000/svg">
<path d="M32.827 28.5266C32.7898 28.5241 32.089 28.5248 32.0484 28.5248C33.2085 27.8828 33.996 26.6464 33.996 25.2292C33.996 23.1536 32.3073 21.4648 30.2316 21.4648C28.156 21.4648 26.4673 23.1536 26.4673 25.2292C26.4673 26.6464 27.2548 27.8828 28.4149 28.5248C27.437 28.5248 27.9512 28.5248 27.3387 28.5248C24.8807 28.5248 22.8809 30.5245 22.8809 32.9825V39.4067C22.8809 39.5363 22.9857 39.6411 23.1152 39.6411C23.2448 39.6411 23.3496 39.5363 23.3496 39.4067V32.9825C23.3496 30.8983 24.9884 28.9936 27.4385 28.9936C27.6595 30.7103 28.6885 38.7075 28.7824 39.4366C28.7977 39.5548 28.8985 39.6411 29.0146 39.6411C29.0246 39.6411 29.0346 39.6405 29.0448 39.6392C29.1732 39.6227 29.2638 39.5053 29.2473 39.3769L28.376 32.6072L29.6046 30.4625L30.0116 30.9473V39.4072C30.0116 39.5367 30.1165 39.6416 30.246 39.6416C30.3755 39.6416 30.4804 39.5367 30.4804 39.4072V30.9509L30.9571 30.4139L32.0812 32.5944L31.3977 37.9056C31.1476 37.7752 30.8638 37.9611 30.8638 38.2289C30.8638 38.4589 31.0762 38.6381 31.3102 38.5853L31.2084 39.3769C31.192 39.5053 31.2826 39.6227 31.4109 39.6392C31.421 39.6405 31.431 39.6411 31.441 39.6411C31.5571 39.6411 31.6579 39.5548 31.6732 39.4366C31.7676 38.7034 32.7954 30.7148 33.0159 29.0025C35.0966 29.1348 36.7495 30.8687 36.7495 32.9823V39.4066C36.7495 39.5361 36.8543 39.6409 36.9838 39.6409C37.1134 39.6409 37.2182 39.5361 37.2182 39.4066V32.9823C37.2187 30.5469 35.2545 28.5622 32.827 28.5266ZM26.9362 25.2292C26.9362 23.412 28.4146 21.9336 30.2318 21.9336C32.049 21.9336 33.5274 23.412 33.5274 25.2292C33.5274 27.0464 32.049 28.5248 30.2318 28.5248C28.4145 28.5248 26.9362 27.0464 26.9362 25.2292ZM28.2773 31.837L27.9113 28.9936H28.3865L29.2843 30.0787L28.2773 31.837ZM30.2512 30.5034C29.5804 29.7044 29.9554 30.1547 28.9948 28.9937H31.5691C30.6135 30.1025 31.0129 29.6455 30.2512 30.5034ZM32.187 31.7758L31.2899 30.0358L32.1882 28.9936H32.5449L32.187 31.7758Z" fill="white"/>
<path d="M31.2312 33.3686C31.4332 33.3686 31.5971 33.2047 31.5971 33.0027C31.5971 32.8006 31.4334 32.6367 31.2312 32.6367C31.0291 32.6367 30.8652 32.8006 30.8652 33.0027C30.8652 33.2048 31.0291 33.3686 31.2312 33.3686Z" fill="white"/>
<path d="M31.2312 36.0366C31.4332 36.0366 31.5971 35.8727 31.5971 35.6706C31.5971 35.4686 31.4334 35.3047 31.2312 35.3047C31.0291 35.3047 30.8652 35.4686 30.8652 35.6706C30.8652 35.8728 31.0291 36.0366 31.2312 36.0366Z" fill="white"/>
<path d="M35.2637 35.0703C35.1341 35.0703 35.0293 35.1752 35.0293 35.3047V39.4067C35.0293 39.5363 35.1341 39.6411 35.2637 39.6411C35.3932 39.6411 35.498 39.5363 35.498 39.4067V35.3047C35.498 35.1752 35.3932 35.0703 35.2637 35.0703Z" fill="white"/>
<path d="M24.9922 35.0703C24.8627 35.0703 24.7578 35.1752 24.7578 35.3047V39.4067C24.7578 39.5363 24.8627 39.6411 24.9922 39.6411C25.1217 39.6411 25.2266 39.5363 25.2266 39.4067V35.3047C25.2266 35.1752 25.1217 35.0703 24.9922 35.0703Z" fill="white"/>
<path d="M14.8791 23.6734C14.8421 23.6698 13.3282 23.6709 13.291 23.6709C15.1652 22.8306 16.4746 20.9486 16.4746 18.7652C16.4746 15.8016 14.0635 13.3906 11.1001 13.3906C8.13664 13.3906 5.72555 15.8017 5.72555 18.7652C5.72555 20.9486 7.03492 22.8306 8.90914 23.6709C8.40664 23.6709 8.03211 23.6709 7.34711 23.6709H7.33336C7.33195 23.6709 7.33055 23.6714 7.32914 23.6714C3.81711 23.6812 0.962891 26.5409 0.962891 30.0552V39.4097C0.962891 39.5392 1.06773 39.6441 1.19727 39.6441C1.3268 39.6441 1.43164 39.5392 1.43164 39.4097V30.0552C1.43164 26.8667 3.96758 24.2611 7.12805 24.1452C7.35086 25.8762 8.86961 37.6789 9.09617 39.4395C9.13633 39.7506 9.60055 39.6869 9.56117 39.3797L8.28805 29.4862L10.171 26.1992L10.8873 27.0523V39.41C10.8873 39.7197 11.356 39.7202 11.356 39.41V27.0559L12.1807 26.1269L13.9043 29.4702L13.3188 34.0197C13.3493 33.5808 12.9995 33.2016 12.5541 33.2016C12.131 33.2016 11.787 33.5458 11.787 33.9687C11.787 34.8878 13.1201 35.0222 13.3054 34.1241L12.946 36.9172C12.4257 36.6052 11.787 36.9884 11.787 37.5731C11.787 38.0664 12.2571 38.4553 12.7673 38.3064L12.6291 39.3794C12.5898 39.6866 13.0545 39.7467 13.0941 39.4392C14.087 31.7234 14.0713 31.8452 15.062 24.1462C18.1948 24.2923 20.6987 26.8862 20.6987 30.0547V39.4092C20.6987 39.5387 20.8035 39.6436 20.933 39.6436C21.0626 39.6436 21.1674 39.5387 21.1674 39.4092V30.0547C21.167 26.5673 18.3549 23.7253 14.8791 23.6734ZM12.2552 33.9692C12.2552 33.575 12.8521 33.5747 12.8521 33.9692C12.8521 34.3636 12.2552 34.3638 12.2552 33.9692ZM12.2552 37.5738C12.2552 37.1794 12.8521 37.1792 12.8521 37.5738C12.8521 37.9681 12.2552 37.9681 12.2552 37.5738ZM6.19414 18.7653C6.19414 16.0602 8.39492 13.8595 11.0999 13.8595C13.8049 13.8595 16.0057 16.0603 16.0057 18.7653C16.0057 21.4703 13.8051 23.6711 11.0999 23.6711C8.39477 23.6711 6.19414 21.4703 6.19414 18.7653ZM8.18852 28.7164L7.59961 24.1398H8.4632L9.84992 25.8161L8.18852 28.7164ZM11.1262 26.6087C10.0437 25.3194 10.6566 26.0556 9.0718 24.1397H13.2812C11.7771 25.885 12.2673 25.3234 11.1262 26.6087ZM14.0091 28.652L12.5127 25.7492L13.8998 24.1397H14.5898L14.0091 28.652Z" fill="white"/>
<path d="M12.5523 30.8508C12.9753 30.8508 13.3195 30.5066 13.3195 30.0836C13.3195 29.6606 12.9753 29.3164 12.5523 29.3164C12.1292 29.3164 11.7852 29.6606 11.7852 30.0836C11.7852 30.5066 12.1294 30.8508 12.5523 30.8508ZM12.8508 30.0834C12.8508 30.4778 12.2539 30.478 12.2539 30.0834C12.2539 29.6892 12.8508 29.6889 12.8508 30.0834Z" fill="white"/>
<path d="M18.4258 33.1992C18.2963 33.1992 18.1914 33.3041 18.1914 33.4336V39.4069C18.1914 39.5364 18.2963 39.6413 18.4258 39.6413C18.5553 39.6413 18.6602 39.5364 18.6602 39.4069V33.4336C18.6602 33.3041 18.5552 33.1992 18.4258 33.1992Z" fill="white"/>
<path d="M3.66211 33.1992C3.53258 33.1992 3.42773 33.3041 3.42773 33.4336V39.4069C3.42773 39.5364 3.53258 39.6413 3.66211 39.6413C3.79164 39.6413 3.89648 39.5364 3.89648 39.4069V33.4336C3.89648 33.3041 3.79148 33.1992 3.66211 33.1992Z" fill="white"/>
<path d="M37.7368 6.33312H23.1355V2.21312C23.1355 1.18672 22.3005 0.351562 21.274 0.351562H2.26195C1.23555 0.351562 0.400391 1.18656 0.400391 2.21312V12.7153C0.400391 12.9217 0.648672 13.0263 0.796797 12.8847L3.33133 10.462H20.9276V13.4472C20.9276 14.4733 21.7624 15.3081 22.7885 15.3081H37.2862L39.1843 17.6091C39.2298 17.6641 39.2965 17.6942 39.3652 17.6942C39.3916 17.6942 39.4185 17.6897 39.4445 17.6805C39.5374 17.647 39.5996 17.5588 39.5996 17.4598V8.19406C39.5995 7.16797 38.7638 6.33312 37.7368 6.33312ZM3.23727 9.99328C3.17695 9.99328 3.11898 10.0166 3.07523 10.0583L0.869141 12.167V2.21312C0.869141 1.44516 1.49398 0.820312 2.26195 0.820312H21.274C22.042 0.820312 22.6668 1.44516 22.6668 2.21312C22.6668 4.64953 22.6665 7.57422 22.6665 8.60031C22.6665 9.36937 22.0416 9.99328 21.274 9.99328H3.23727ZM39.1307 16.8075L37.5774 14.9247C37.5329 14.8708 37.4666 14.8395 37.3966 14.8395H22.7885C22.0209 14.8395 21.3963 14.215 21.3963 13.4473V10.4589C22.3673 10.3956 23.1357 9.57453 23.1357 8.60062V6.80187H37.737C38.5055 6.80187 39.1307 7.42641 39.1307 8.19406V16.8075Z" fill="white"/>
<path d="M10.1566 7.13906C10.2652 6.92531 10.3277 6.68422 10.3277 6.42859V4.41609C10.3277 3.54687 9.62047 2.83984 8.75125 2.83984H8.52563C7.65641 2.83984 6.94922 3.54687 6.94922 4.41609V6.42844C6.94922 7.29766 7.65641 8.00484 8.52563 8.00484H8.75125C9.19391 8.00484 9.59391 7.82078 9.88063 7.52594L10.4023 8.04766C10.4939 8.13922 10.6422 8.13922 10.7338 8.04766C10.8253 7.95625 10.8253 7.80766 10.7338 7.71625L10.1566 7.13906ZM9.85891 6.42844C9.85891 6.55234 9.8375 6.67109 9.79984 6.78234L8.80406 5.78656C8.7125 5.695 8.56422 5.695 8.47266 5.78656C8.38109 5.87797 8.38109 6.02656 8.47266 6.11797L9.54922 7.19453C9.3475 7.40453 9.06469 7.53609 8.75125 7.53609H8.52563C7.91484 7.53609 7.41797 7.03922 7.41797 6.42844V4.41609C7.41797 3.80531 7.91484 3.30859 8.52563 3.30859H8.75125C9.36203 3.30859 9.85891 3.80547 9.85891 4.41609V6.42844Z" fill="white"/>
<path d="M27.8655 8.33266C27.8362 8.23266 27.7447 8.16406 27.6405 8.16406C27.5362 8.16406 27.4447 8.23266 27.4155 8.33266L25.9606 13.3111C25.9244 13.4353 25.9956 13.5655 26.1198 13.6019C26.2442 13.6384 26.3742 13.5669 26.4106 13.4427L26.9752 11.5109H28.3059L28.8705 13.4427C28.9003 13.545 28.9939 13.6114 29.0953 13.6114C29.117 13.6114 29.1392 13.6083 29.1611 13.6019C29.2853 13.5656 29.3566 13.4355 29.3203 13.3111L27.8655 8.33266ZM27.112 11.0422L27.6405 9.23391L28.1689 11.0422H27.112Z" fill="white"/>
<path d="M12.3663 2.76156C11.3335 4.36218 11.4693 6.45515 12.3225 7.77624C12.5716 8.16187 12.911 7.82359 12.7602 7.58984L12.7165 7.52187C11.9438 6.32562 11.845 4.43328 12.7602 3.01562C12.928 2.75562 12.5344 2.50093 12.3663 2.76156Z" fill="white"/>
<path d="M15.9477 3.01589C16.5243 3.90995 16.5844 4.51745 16.5844 5.51105C16.5844 6.29886 16.3526 6.96277 15.9477 7.58995C15.7776 7.85355 16.1754 8.1012 16.3416 7.84417C17.2637 6.41777 17.369 4.35277 16.3416 2.76167C16.1727 2.50058 15.7801 2.7562 15.9477 3.01589Z" fill="white"/>
<path d="M31.2308 8.6028C31.3824 8.36811 31.041 8.03311 30.7931 8.4164C29.9369 9.74218 29.8072 11.8336 30.8369 13.4311C31.0045 13.6917 31.3988 13.4376 31.2308 13.1772C30.307 11.7441 30.4053 9.88124 31.2308 8.6028Z" fill="white"/>
<path d="M33.8594 8.27578C33.7506 8.34609 33.7194 8.49109 33.7895 8.59984C34.7059 10.0208 34.6203 11.8873 33.7895 13.1739C33.6194 13.4375 34.0172 13.6852 34.1834 13.4281C35.1197 11.9797 35.1961 9.9139 34.1834 8.34562C34.1131 8.23672 33.968 8.20562 33.8594 8.27578Z" fill="white"/>
<path d="M13.3452 3.67993C13.057 3.96008 12.8984 4.33586 12.8984 4.73774C12.8984 4.86727 13.0033 4.97211 13.1328 4.97211C13.2623 4.97211 13.3672 4.86727 13.3672 4.73774C13.3672 4.46352 13.4755 4.20727 13.672 4.01602C14.3047 3.40055 15.3563 3.85133 15.3798 4.70899C15.3922 5.15399 15.1178 5.54868 14.6969 5.69133C14.3634 5.80446 14.1394 6.1268 14.1394 6.49336V6.73461C14.1394 6.83914 14.2081 6.92649 14.3025 6.9568C14.2081 6.98711 14.1394 7.07446 14.1394 7.17899V7.71633C14.1394 7.84586 14.2442 7.95071 14.3738 7.95071C14.5033 7.95071 14.6081 7.84586 14.6081 7.71633V7.17899C14.6081 7.07446 14.5394 6.98711 14.445 6.9568C14.5394 6.92649 14.6081 6.83914 14.6081 6.73461V6.49336C14.6081 6.33039 14.7066 6.18305 14.8475 6.13524C15.4642 5.92618 15.8666 5.34789 15.8484 4.69602C15.8139 3.44633 14.2778 2.77274 13.3452 3.67993Z" fill="white"/>
<path d="M32.5098 8.16406C32.3802 8.16406 32.2754 8.26891 32.2754 8.39844V11.9942C32.2754 12.1237 32.3802 12.2286 32.5098 12.2286C32.6393 12.2286 32.7441 12.1237 32.7441 11.9942V8.39844C32.7441 8.26891 32.6393 8.16406 32.5098 8.16406Z" fill="white"/>
<path d="M32.5098 12.3516C32.3802 12.3516 32.2754 12.4564 32.2754 12.5859V13.1039C32.2754 13.2334 32.3802 13.3383 32.5098 13.3383C32.6393 13.3383 32.7441 13.2334 32.7441 13.1039V12.5859C32.7441 12.4564 32.6393 12.3516 32.5098 12.3516Z" fill="white"/>
</svg>
