<svg width="40" height="40" viewBox="0 0 40 40" fill="none" xmlns="http://www.w3.org/2000/svg">
<path d="M32.7825 10.2695H7.21875C7.13587 10.2695 7.05638 10.3025 6.99778 10.3611C6.93917 10.4197 6.90625 10.4992 6.90625 10.582V27.4081C6.90625 27.491 6.93917 27.5705 6.99778 27.6291C7.05638 27.6877 7.13587 27.7206 7.21875 27.7206H32.7828C32.8657 27.7206 32.9452 27.6877 33.0038 27.6291C33.0624 27.5705 33.0953 27.491 33.0953 27.4081V10.582C33.0953 10.541 33.0872 10.5003 33.0715 10.4624C33.0558 10.4244 33.0327 10.39 33.0037 10.361C32.9746 10.3319 32.9401 10.3089 32.9022 10.2932C32.8642 10.2775 32.8236 10.2695 32.7825 10.2695ZM19.7669 10.7383H32.6253V27.2519H19.7675L19.7669 10.7383ZM7.37406 10.7383H19.2981V27.2519H7.375L7.37406 10.7383Z" fill="white"/>
<path d="M38.6309 33.2405H37.6948C38.0395 33.0011 38.3212 32.6818 38.5158 32.31C38.7104 31.9382 38.8122 31.5248 38.8125 31.1052V29.8448C38.8125 29.7827 38.7878 29.7231 38.7439 29.6791C38.6999 29.6352 38.6403 29.6105 38.5781 29.6105H34.7398C34.9821 29.4147 35.1776 29.1673 35.3119 28.8863C35.4461 28.6052 35.5159 28.2977 35.5159 27.9862V9.81875C35.5153 9.26407 35.2946 8.7323 34.9024 8.34008C34.5102 7.94786 33.9784 7.72722 33.4238 7.72656H6.57375C6.01899 7.72698 5.48708 7.94754 5.09481 8.33981C4.70254 8.73208 4.48198 9.26399 4.48156 9.81875V27.9855C4.48148 28.2971 4.55113 28.6047 4.68539 28.8859C4.81965 29.1671 5.01513 29.4146 5.2575 29.6105H1.42C1.35784 29.6105 1.29823 29.6352 1.25427 29.6791C1.21032 29.7231 1.18562 29.7827 1.18562 29.8448V31.1055C1.18589 31.5252 1.28769 31.9386 1.48234 32.3104C1.67698 32.6822 1.9587 33.0014 2.30344 33.2408H1.36719C1.30503 33.2408 1.24541 33.2655 1.20146 33.3094C1.15751 33.3534 1.13281 33.413 1.13281 33.4752C1.13281 33.5373 1.15751 33.5969 1.20146 33.6409C1.24541 33.6848 1.30503 33.7095 1.36719 33.7095H38.6309C38.6931 33.7095 38.7527 33.6848 38.7967 33.6409C38.8406 33.5969 38.8653 33.5373 38.8653 33.4752C38.8653 33.413 38.8406 33.3534 38.7967 33.3094C38.7527 33.2655 38.6931 33.2408 38.6309 33.2408V33.2405ZM22.2992 30.0792C22.2429 30.4326 22.0626 30.7543 21.7906 30.9868C21.5186 31.2192 21.1727 31.3472 20.8148 31.3477H18.1158C17.758 31.3472 17.412 31.2192 17.14 30.9868C16.868 30.7543 16.6877 30.4326 16.6314 30.0792H22.2992ZM4.95031 27.9855V9.81875C4.95073 9.38831 5.1219 8.97563 5.42626 8.67126C5.73063 8.3669 6.14331 8.19573 6.57375 8.19531H33.4238C33.8542 8.19573 34.2669 8.3669 34.5712 8.67126C34.8756 8.97563 35.0468 9.38831 35.0472 9.81875V27.9855C35.0468 28.4159 34.8756 28.8286 34.5712 29.133C34.2669 29.4373 33.8542 29.6085 33.4238 29.6089H6.57375C6.14331 29.6085 5.73063 29.4373 5.42626 29.133C5.1219 28.8286 4.95073 28.4159 4.95031 27.9855ZM3.78953 33.24C3.22343 33.2393 2.6807 33.0142 2.28042 32.6138C1.88014 32.2135 1.655 31.6708 1.65437 31.1047V30.0792H16.1595C16.2172 30.5577 16.448 30.9986 16.8084 31.3186C17.1688 31.6386 17.6338 31.8157 18.1158 31.8164H20.8147C21.2966 31.8157 21.7617 31.6386 22.1221 31.3186C22.4824 30.9986 22.7132 30.5577 22.7709 30.0792H38.3438V31.1055C38.3431 31.6716 38.118 32.2143 37.7177 32.6146C37.3174 33.0149 36.7747 33.2401 36.2086 33.2408L3.78953 33.24Z" fill="white"/>
<path d="M10.4062 16.2383H11.4191C11.4812 16.2383 11.5408 16.2136 11.5848 16.1696C11.6287 16.1257 11.6534 16.0661 11.6534 16.0039C11.6534 15.9417 11.6287 15.8821 11.5848 15.8382C11.5408 15.7942 11.4812 15.7695 11.4191 15.7695H10.4062C10.3441 15.7695 10.2845 15.7942 10.2405 15.8382C10.1966 15.8821 10.1719 15.9417 10.1719 16.0039C10.1719 16.0661 10.1966 16.1257 10.2405 16.1696C10.2845 16.2136 10.3441 16.2383 10.4062 16.2383Z" fill="white"/>
<path d="M12.2871 16.2383H17.7062C17.7683 16.2383 17.8279 16.2136 17.8719 16.1696C17.9159 16.1257 17.9405 16.0661 17.9405 16.0039C17.9405 15.9417 17.9159 15.8821 17.8719 15.8382C17.8279 15.7942 17.7683 15.7695 17.7062 15.7695H12.2871C12.2249 15.7695 12.1653 15.7942 12.1214 15.8382C12.0774 15.8821 12.0527 15.9417 12.0527 16.0039C12.0527 16.0661 12.0774 16.1257 12.1214 16.1696C12.1653 16.2136 12.2249 16.2383 12.2871 16.2383Z" fill="white"/>
<path d="M10.4062 17.5195H11.4191C11.4812 17.5195 11.5408 17.4948 11.5848 17.4509C11.6287 17.4069 11.6534 17.3473 11.6534 17.2852C11.6534 17.223 11.6287 17.1634 11.5848 17.1194C11.5408 17.0755 11.4812 17.0508 11.4191 17.0508H10.4062C10.3441 17.0508 10.2845 17.0755 10.2405 17.1194C10.1966 17.1634 10.1719 17.223 10.1719 17.2852C10.1719 17.3473 10.1966 17.4069 10.2405 17.4509C10.2845 17.4948 10.3441 17.5195 10.4062 17.5195Z" fill="white"/>
<path d="M12.2871 17.5195H15.4799C15.5421 17.5195 15.6017 17.4948 15.6456 17.4509C15.6896 17.4069 15.7143 17.3473 15.7143 17.2852C15.7143 17.223 15.6896 17.1634 15.6456 17.1194C15.6017 17.0755 15.5421 17.0508 15.4799 17.0508H12.2871C12.2249 17.0508 12.1653 17.0755 12.1214 17.1194C12.0774 17.1634 12.0527 17.223 12.0527 17.2852C12.0527 17.3473 12.0774 17.4069 12.1214 17.4509C12.1653 17.4948 12.2249 17.5195 12.2871 17.5195Z" fill="white"/>
<path d="M11.6534 18.5703C11.6534 18.5082 11.6287 18.4485 11.5848 18.4046C11.5408 18.3606 11.4812 18.3359 11.4191 18.3359H10.4062C10.3441 18.3359 10.2845 18.3606 10.2405 18.4046C10.1966 18.4485 10.1719 18.5082 10.1719 18.5703C10.1719 18.6325 10.1966 18.6921 10.2405 18.736C10.2845 18.78 10.3441 18.8047 10.4062 18.8047H11.4191C11.4812 18.8047 11.5408 18.78 11.5848 18.736C11.6287 18.6921 11.6534 18.6325 11.6534 18.5703Z" fill="white"/>
<path d="M17.7062 18.3359H12.2871C12.2249 18.3359 12.1653 18.3606 12.1214 18.4046C12.0774 18.4485 12.0527 18.5082 12.0527 18.5703C12.0527 18.6325 12.0774 18.6921 12.1214 18.736C12.1653 18.78 12.2249 18.8047 12.2871 18.8047H17.7062C17.7683 18.8047 17.8279 18.78 17.8719 18.736C17.9159 18.6921 17.9405 18.6325 17.9405 18.5703C17.9405 18.5082 17.9159 18.4485 17.8719 18.4046C17.8279 18.3606 17.7683 18.3359 17.7062 18.3359Z" fill="white"/>
<path d="M10.0929 20.9023H9.08008C9.01792 20.9023 8.9583 20.927 8.91435 20.971C8.8704 21.0149 8.8457 21.0746 8.8457 21.1367C8.8457 21.1989 8.8704 21.2585 8.91435 21.3024C8.9583 21.3464 9.01792 21.3711 9.08008 21.3711H10.0929C10.1551 21.3711 10.2147 21.3464 10.2586 21.3024C10.3026 21.2585 10.3273 21.1989 10.3273 21.1367C10.3273 21.0746 10.3026 21.0149 10.2586 20.971C10.2147 20.927 10.1551 20.9023 10.0929 20.9023Z" fill="white"/>
<path d="M10.7266 21.1367C10.7266 21.1989 10.7513 21.2585 10.7952 21.3024C10.8392 21.3464 10.8988 21.3711 10.9609 21.3711H16.38C16.4422 21.3711 16.5018 21.3464 16.5457 21.3024C16.5897 21.2585 16.6144 21.1989 16.6144 21.1367C16.6144 21.0746 16.5897 21.0149 16.5457 20.971C16.5018 20.927 16.4422 20.9023 16.38 20.9023H10.9609C10.8988 20.9023 10.8392 20.927 10.7952 20.971C10.7513 21.0149 10.7266 21.0746 10.7266 21.1367Z" fill="white"/>
<path d="M10.0929 22.3359H9.08008C9.01792 22.3359 8.9583 22.3606 8.91435 22.4046C8.8704 22.4485 8.8457 22.5082 8.8457 22.5703C8.8457 22.6325 8.8704 22.6921 8.91435 22.736C8.9583 22.78 9.01792 22.8047 9.08008 22.8047H10.0929C10.1551 22.8047 10.2147 22.78 10.2586 22.736C10.3026 22.6921 10.3273 22.6325 10.3273 22.5703C10.3273 22.5082 10.3026 22.4485 10.2586 22.4046C10.2147 22.3606 10.1551 22.3359 10.0929 22.3359Z" fill="white"/>
<path d="M17.7064 22.3359H10.9609C10.8988 22.3359 10.8392 22.3606 10.7952 22.4046C10.7513 22.4485 10.7266 22.5082 10.7266 22.5703C10.7266 22.6325 10.7513 22.6921 10.7952 22.736C10.8392 22.78 10.8988 22.8047 10.9609 22.8047H17.7064C17.7686 22.8047 17.8282 22.78 17.8721 22.736C17.9161 22.6921 17.9408 22.6325 17.9408 22.5703C17.9408 22.5082 17.9161 22.4485 17.8721 22.4046C17.8282 22.3606 17.7686 22.3359 17.7064 22.3359Z" fill="white"/>
<path d="M10.0929 23.7695H9.08008C9.01792 23.7695 8.9583 23.7942 8.91435 23.8382C8.8704 23.8821 8.8457 23.9417 8.8457 24.0039C8.8457 24.0661 8.8704 24.1257 8.91435 24.1696C8.9583 24.2136 9.01792 24.2383 9.08008 24.2383H10.0929C10.1551 24.2383 10.2147 24.2136 10.2586 24.1696C10.3026 24.1257 10.3273 24.0661 10.3273 24.0039C10.3273 23.9417 10.3026 23.8821 10.2586 23.8382C10.2147 23.7942 10.1551 23.7695 10.0929 23.7695Z" fill="white"/>
<path d="M16.6144 24.0039C16.6144 23.9417 16.5897 23.8821 16.5457 23.8382C16.5018 23.7942 16.4422 23.7695 16.38 23.7695H10.9609C10.8988 23.7695 10.8392 23.7942 10.7952 23.8382C10.7513 23.8821 10.7266 23.9417 10.7266 24.0039C10.7266 24.0661 10.7513 24.1257 10.7952 24.1696C10.8392 24.2136 10.8988 24.2383 10.9609 24.2383H16.38C16.4422 24.2383 16.5018 24.2136 16.5457 24.1696C16.5897 24.1257 16.6144 24.0661 16.6144 24.0039Z" fill="white"/>
<path d="M13.7433 20.0859C13.8054 20.0859 13.8651 20.0612 13.909 20.0173C13.953 19.9733 13.9777 19.9137 13.9777 19.8516C13.9777 19.7894 13.953 19.7298 13.909 19.6858C13.8651 19.6419 13.8054 19.6172 13.7433 19.6172H12.7305C12.6683 19.6172 12.6087 19.6419 12.5647 19.6858C12.5208 19.7298 12.4961 19.7894 12.4961 19.8516C12.4961 19.9137 12.5208 19.9733 12.5647 20.0173C12.6087 20.0612 12.6683 20.0859 12.7305 20.0859H13.7433Z" fill="white"/>
<path d="M17.705 19.6172H14.6094C14.5472 19.6172 14.4876 19.6419 14.4436 19.6858C14.3997 19.7298 14.375 19.7894 14.375 19.8516C14.375 19.9137 14.3997 19.9733 14.4436 20.0173C14.4876 20.0612 14.5472 20.0859 14.6094 20.0859H17.705C17.7672 20.0859 17.8268 20.0612 17.8707 20.0173C17.9147 19.9733 17.9394 19.9137 17.9394 19.8516C17.9394 19.7894 17.9147 19.7298 17.8707 19.6858C17.8268 19.6419 17.7672 19.6172 17.705 19.6172Z" fill="white"/>
<path d="M13.7433 25.0898H12.7305C12.6683 25.0898 12.6087 25.1145 12.5647 25.1585C12.5208 25.2024 12.4961 25.2621 12.4961 25.3242C12.4961 25.3864 12.5208 25.446 12.5647 25.4899C12.6087 25.5339 12.6683 25.5586 12.7305 25.5586H13.7433C13.8054 25.5586 13.8651 25.5339 13.909 25.4899C13.953 25.446 13.9777 25.3864 13.9777 25.3242C13.9777 25.2621 13.953 25.2024 13.909 25.1585C13.8651 25.1145 13.8054 25.0898 13.7433 25.0898Z" fill="white"/>
<path d="M17.705 25.0898H14.6094C14.5472 25.0898 14.4876 25.1145 14.4436 25.1585C14.3997 25.2024 14.375 25.2621 14.375 25.3242C14.375 25.3864 14.3997 25.446 14.4436 25.4899C14.4876 25.5339 14.5472 25.5586 14.6094 25.5586H17.705C17.7672 25.5586 17.8268 25.5339 17.8707 25.4899C17.9147 25.446 17.9394 25.3864 17.9394 25.3242C17.9394 25.2621 17.9147 25.2024 17.8707 25.1585C17.8268 25.1145 17.7672 25.0898 17.705 25.0898Z" fill="white"/>
<path d="M21.4902 14.9022H25.5796C25.6418 14.9022 25.7014 14.8775 25.7453 14.8335C25.7893 14.7896 25.814 14.73 25.814 14.6678V13.0234C25.814 12.9613 25.7893 12.9017 25.7453 12.8577C25.7014 12.8138 25.6418 12.7891 25.5796 12.7891H21.4902C21.4281 12.7891 21.3685 12.8138 21.3245 12.8577C21.2806 12.9017 21.2559 12.9613 21.2559 13.0234V14.6678C21.2559 14.73 21.2806 14.7896 21.3245 14.8335C21.3685 14.8775 21.4281 14.9022 21.4902 14.9022ZM21.7246 13.2578H25.3452V14.4334H21.7246V13.2578Z" fill="white"/>
<path d="M27.0156 14.9022H31.1048C31.167 14.9022 31.2266 14.8775 31.2706 14.8335C31.3145 14.7896 31.3392 14.73 31.3392 14.6678V13.0234C31.3392 12.9613 31.3145 12.9017 31.2706 12.8577C31.2266 12.8138 31.167 12.7891 31.1048 12.7891H27.0156C26.9535 12.7891 26.8939 12.8138 26.8499 12.8577C26.8059 12.9017 26.7812 12.9613 26.7812 13.0234V14.6678C26.7812 14.73 26.8059 14.7896 26.8499 14.8335C26.8939 14.8775 26.9535 14.9022 27.0156 14.9022ZM27.25 13.2578H30.8705V14.4334H27.25V13.2578Z" fill="white"/>
<path d="M21.4902 20.8769H31.1038C31.166 20.8769 31.2256 20.8522 31.2696 20.8082C31.3135 20.7643 31.3382 20.7047 31.3382 20.6425V16.3008C31.3382 16.2386 31.3135 16.179 31.2696 16.1351C31.2256 16.0911 31.166 16.0664 31.1038 16.0664H21.4902C21.4281 16.0664 21.3685 16.0911 21.3245 16.1351C21.2806 16.179 21.2559 16.2386 21.2559 16.3008V20.6425C21.2559 20.7047 21.2806 20.7643 21.3245 20.8082C21.3685 20.8522 21.4281 20.8769 21.4902 20.8769ZM21.7246 16.5355H30.8695V20.4081H21.7246V16.5355Z" fill="white"/>
<path d="M31.2602 22.0977H21.3086C21.2464 22.0977 21.1868 22.1224 21.1429 22.1663C21.0989 22.2103 21.0742 22.2699 21.0742 22.332C21.0742 22.3942 21.0989 22.4538 21.1429 22.4978C21.1868 22.5417 21.2464 22.5664 21.3086 22.5664H31.2602C31.3223 22.5664 31.3819 22.5417 31.4259 22.4978C31.4698 22.4538 31.4945 22.3942 31.4945 22.332C31.4945 22.2699 31.4698 22.2103 31.4259 22.1663C31.3819 22.1224 31.3223 22.0977 31.2602 22.0977Z" fill="white"/>
<path d="M31.2602 23.6914H21.3086C21.2464 23.6914 21.1868 23.7161 21.1429 23.7601C21.0989 23.804 21.0742 23.8636 21.0742 23.9258C21.0742 23.9879 21.0989 24.0476 21.1429 24.0915C21.1868 24.1355 21.2464 24.1602 21.3086 24.1602H31.2602C31.3223 24.1602 31.3819 24.1355 31.4259 24.0915C31.4698 24.0476 31.4945 23.9879 31.4945 23.9258C31.4945 23.8636 31.4698 23.804 31.4259 23.7601C31.3819 23.7161 31.3223 23.6914 31.2602 23.6914Z" fill="white"/>
<path d="M31.2602 25.2852H21.3086C21.2464 25.2852 21.1868 25.3099 21.1429 25.3538C21.0989 25.3978 21.0742 25.4574 21.0742 25.5195C21.0742 25.5817 21.0989 25.6413 21.1429 25.6853C21.1868 25.7292 21.2464 25.7539 21.3086 25.7539H31.2602C31.3223 25.7539 31.3819 25.7292 31.4259 25.6853C31.4698 25.6413 31.4945 25.5817 31.4945 25.5195C31.4945 25.4574 31.4698 25.3978 31.4259 25.3538C31.3819 25.3099 31.3223 25.2852 31.2602 25.2852Z" fill="white"/>
<path d="M10.1016 14.5936C10.1489 14.6329 10.2097 14.6521 10.271 14.6469C10.3323 14.6418 10.3891 14.6128 10.4292 14.5661C10.4693 14.5195 10.4895 14.4589 10.4853 14.3976C10.4812 14.3362 10.4531 14.2789 10.4071 14.2381L9.64457 13.5828L10.3775 12.863C10.4004 12.8416 10.4188 12.8159 10.4317 12.7874C10.4445 12.7588 10.4514 12.728 10.4522 12.6967C10.4529 12.6654 10.4473 12.6343 10.4358 12.6052C10.4243 12.5761 10.4071 12.5496 10.3852 12.5273C10.3633 12.5049 10.3371 12.4872 10.3082 12.4752C10.2793 12.4631 10.2483 12.4569 10.2171 12.457C10.1858 12.4571 10.1548 12.4635 10.126 12.4758C10.0972 12.488 10.0712 12.5059 10.0494 12.5284L9.13457 13.427C9.11143 13.4498 9.09325 13.4771 9.0812 13.5072C9.06916 13.5373 9.0635 13.5696 9.06458 13.6021C9.06567 13.6345 9.07348 13.6663 9.08752 13.6956C9.10156 13.7248 9.12152 13.7509 9.14614 13.772L10.1016 14.5936Z" fill="white"/>
<path d="M12.3649 14.5717C12.4054 14.6189 12.463 14.648 12.525 14.6527C12.587 14.6574 12.6483 14.6372 12.6954 14.5967L13.6513 13.7752C13.6759 13.754 13.6959 13.728 13.7099 13.6987C13.7239 13.6695 13.7317 13.6376 13.7328 13.6052C13.7339 13.5727 13.7282 13.5404 13.7161 13.5103C13.7041 13.4802 13.6859 13.4529 13.6627 13.4302L12.7479 12.5316C12.7032 12.4899 12.644 12.4674 12.5829 12.4688C12.5218 12.4702 12.4637 12.4954 12.4209 12.539C12.3781 12.5826 12.354 12.6412 12.3538 12.7023C12.3536 12.7634 12.3773 12.8222 12.4198 12.8661L13.1526 13.586L12.3906 14.2413C12.3672 14.2613 12.348 14.2857 12.334 14.3131C12.3201 14.3406 12.3117 14.3705 12.3093 14.4012C12.3069 14.4319 12.3106 14.4627 12.3201 14.492C12.3297 14.5213 12.3449 14.5484 12.3649 14.5717Z" fill="white"/>
<path d="M11.1214 14.5222L11.9984 12.8021C12.0125 12.7747 12.021 12.7447 12.0234 12.714C12.0259 12.6833 12.0223 12.6524 12.0128 12.6231C12.0033 12.5938 11.9881 12.5666 11.9681 12.5432C11.9481 12.5197 11.9237 12.5005 11.8962 12.4865C11.8688 12.4725 11.8388 12.4641 11.8081 12.4617C11.7774 12.4592 11.7465 12.4629 11.7172 12.4725C11.6879 12.482 11.6608 12.4972 11.6374 12.5173C11.614 12.5373 11.5947 12.5618 11.5808 12.5893L10.7033 14.3093C10.675 14.3647 10.67 14.4291 10.6892 14.4883C10.7085 14.5475 10.7504 14.5966 10.8059 14.6248C10.8613 14.6531 10.9257 14.6581 10.9849 14.6389C11.0441 14.6196 11.0932 14.5777 11.1214 14.5222Z" fill="white"/>
<path d="M3.20898 11.5195C3.27114 11.5195 3.33076 11.4948 3.37471 11.4509C3.41867 11.4069 3.44336 11.3473 3.44336 11.2852V9.76953C3.44423 8.97208 3.7614 8.20753 4.32529 7.64365C4.88917 7.07976 5.65372 6.76259 6.45117 6.76172H10.4068C10.469 6.76172 10.5286 6.73703 10.5725 6.69307C10.6165 6.64912 10.6412 6.5895 10.6412 6.52734C10.6412 6.46518 10.6165 6.40557 10.5725 6.36162C10.5286 6.31766 10.469 6.29297 10.4068 6.29297H6.45117C5.52945 6.294 4.64577 6.66061 3.99401 7.31237C3.34225 7.96413 2.97564 8.84781 2.97461 9.76953V11.2852C2.97461 11.3473 2.9993 11.4069 3.04326 11.4509C3.08721 11.4948 3.14682 11.5195 3.20898 11.5195Z" fill="white"/>
<path d="M11.4512 6.76172H12.787C12.8491 6.76172 12.9087 6.73703 12.9527 6.69307C12.9966 6.64912 13.0213 6.5895 13.0213 6.52734C13.0213 6.46518 12.9966 6.40557 12.9527 6.36162C12.9087 6.31766 12.8491 6.29297 12.787 6.29297H11.4512C11.389 6.29297 11.3294 6.31766 11.2854 6.36162C11.2415 6.40557 11.2168 6.46518 11.2168 6.52734C11.2168 6.5895 11.2415 6.64912 11.2854 6.69307C11.3294 6.73703 11.389 6.76172 11.4512 6.76172Z" fill="white"/>
<path d="M13.4727 6.76172H14.8084C14.8706 6.76172 14.9302 6.73703 14.9742 6.69307C15.0181 6.64912 15.0428 6.5895 15.0428 6.52734C15.0428 6.46518 15.0181 6.40557 14.9742 6.36162C14.9302 6.31766 14.8706 6.29297 14.8084 6.29297H13.4727C13.4105 6.29297 13.3509 6.31766 13.3069 6.36162C13.263 6.40557 13.2383 6.46518 13.2383 6.52734C13.2383 6.5895 13.263 6.64912 13.3069 6.69307C13.3509 6.73703 13.4105 6.76172 13.4727 6.76172Z" fill="white"/>
</svg>
