<svg width="40" height="38" viewBox="0 0 40 38" fill="none" xmlns="http://www.w3.org/2000/svg">
<path d="M9.75125 3.49805H4.24609C4.11672 3.49805 4.01172 3.60289 4.01172 3.73242V9.23758C4.01172 9.36711 4.11672 9.47195 4.24609 9.47195H9.75125C9.88063 9.47195 9.98563 9.36711 9.98563 9.23758V3.73242C9.98563 3.60289 9.88063 3.49805 9.75125 3.49805ZM9.51688 9.0032H4.48047V3.9668H9.51688V9.0032Z" fill="white"/>
<path d="M22.6342 31.6855H17.1289C16.9995 31.6855 16.8945 31.7904 16.8945 31.9199V37.4251C16.8945 37.4873 16.9192 37.5468 16.9631 37.5909C17.007 37.6349 17.0667 37.6595 17.1289 37.6595H22.6341C22.7634 37.6595 22.8684 37.5546 22.8684 37.4251V31.9199C22.8686 31.7904 22.7636 31.6855 22.6342 31.6855ZM22.3998 37.1907H17.3634V32.1543H22.3998V37.1907Z" fill="white"/>
<path d="M9.75125 28.2363H4.24609C4.11672 28.2363 4.01172 28.3412 4.01172 28.4707V33.9759C4.01172 34.1054 4.11672 34.2102 4.24609 34.2102H9.75125C9.88063 34.2102 9.98563 34.1054 9.98563 33.9759V28.4707C9.98563 28.3412 9.88063 28.2363 9.75125 28.2363ZM9.51688 33.7415H4.48047V28.7051H9.51688V33.7415Z" fill="white"/>
<path d="M12.1191 9.37109L11.9805 9.81891C12.1197 9.86187 12.258 9.91422 12.3916 9.97453L12.5841 9.54719C12.4331 9.47906 12.2766 9.41984 12.1191 9.37109Z" fill="white"/>
<path d="M13.433 10.0634C13.3036 9.96086 13.1663 9.86523 13.0248 9.7793L12.7812 10.1798C12.9063 10.2557 13.0277 10.3402 13.1422 10.4309L13.433 10.0634Z" fill="white"/>
<path d="M14.8756 11.9995L14.4688 12.2324L14.7016 12.6393L15.1085 12.4064L14.8756 11.9995Z" fill="white"/>
<path d="M15.3404 12.812L14.9336 13.0449L15.1665 13.4518L15.5733 13.2189L15.3404 12.812Z" fill="white"/>
<path d="M14.232 11.8252L14.6387 11.5923L14.4047 11.1836L14 11.4203L14.232 11.8252Z" fill="white"/>
<path d="M15.8053 13.6265L15.3984 13.8594L15.6313 14.2662L16.0381 14.0333L15.8053 13.6265Z" fill="white"/>
<path d="M16.2701 14.441L15.8633 14.6738L16.0962 15.0807L16.503 14.8478L16.2701 14.441Z" fill="white"/>
<path d="M14.1292 10.7715C14.0286 10.6405 13.9188 10.5143 13.8027 10.3965L13.4688 10.7254C13.5713 10.8296 13.6684 10.9412 13.7575 11.057L14.1292 10.7715Z" fill="white"/>
<path d="M11.1422 9.19727L11.1172 9.66539C11.2627 9.6732 11.4095 9.69008 11.5537 9.71586L11.6361 9.25445C11.473 9.22539 11.3069 9.20617 11.1422 9.19727Z" fill="white"/>
<path d="M13.1484 27.4428L13.4405 27.8097C13.5694 27.707 13.6936 27.595 13.8095 27.4769L13.475 27.1484C13.3723 27.2531 13.2625 27.3522 13.1484 27.4428Z" fill="white"/>
<path d="M13.7617 26.8181L14.1344 27.1025C14.2347 26.9713 14.3277 26.8322 14.4111 26.6895L14.0064 26.4531C13.9327 26.5792 13.8505 26.702 13.7617 26.8181Z" fill="white"/>
<path d="M11.5625 28.1637L11.6464 28.6248C11.8091 28.5953 11.9714 28.5553 12.1292 28.5059L11.9894 28.0586C11.85 28.1022 11.7064 28.1375 11.5625 28.1637Z" fill="white"/>
<path d="M10.6719 28.2205V28.6892C10.9 28.6892 10.9977 28.6914 11.1536 28.6828L11.1277 28.2148C10.9872 28.2225 10.8942 28.2205 10.6719 28.2205Z" fill="white"/>
<path d="M14.4712 25.64L14.2383 26.0469L14.6451 26.2798L14.878 25.8729L14.4712 25.64Z" fill="white"/>
<path d="M12.3984 27.9014L12.5922 28.3281C12.7428 28.2597 12.8906 28.1814 13.0316 28.0952L12.7869 27.6953C12.6622 27.7717 12.5316 27.8409 12.3984 27.9014Z" fill="white"/>
<path d="M14.9358 24.8257L14.7031 25.2324L15.1099 25.4651L15.3425 25.0583L14.9358 24.8257Z" fill="white"/>
<path d="M15.8655 23.1986L15.6328 23.6055L16.0396 23.8381L16.2723 23.4313L15.8655 23.1986Z" fill="white"/>
<path d="M15.4048 24.0131L15.1719 24.4199L15.5787 24.6528L15.8116 24.246L15.4048 24.0131Z" fill="white"/>
<path d="M36.8294 28.2363H31.3242C31.1948 28.2363 31.0898 28.3412 31.0898 28.4707V33.9759C31.0898 34.1054 31.1948 34.2102 31.3242 34.2102H36.8294C36.9588 34.2102 37.0638 34.1054 37.0638 33.9759V28.4707C37.0638 28.3412 36.9588 28.2363 36.8294 28.2363ZM36.595 33.7415H31.5586V28.7051H36.595V33.7415Z" fill="white"/>
<path d="M25.6724 24.0134L25.2656 24.2461L25.4984 24.653L25.9051 24.4203L25.6724 24.0134Z" fill="white"/>
<path d="M26.1412 24.8257L25.7344 25.0586L25.9673 25.4654L26.3741 25.2325L26.1412 24.8257Z" fill="white"/>
<path d="M26.606 25.6404L26.1992 25.873L26.432 26.2799L26.8387 26.0473L26.606 25.6404Z" fill="white"/>
<path d="M27.0687 26.4531L26.6641 26.6898C26.7477 26.8328 26.8408 26.9717 26.9408 27.1027L27.3134 26.8183C27.225 26.7022 27.1427 26.5794 27.0687 26.4531Z" fill="white"/>
<path d="M25.2115 23.1988L24.8047 23.4316L25.0376 23.8385L25.4444 23.6056L25.2115 23.1988Z" fill="white"/>
<path d="M28.9492 28.5059C29.1072 28.5553 29.2697 28.5952 29.432 28.6247L29.5159 28.1636C29.3723 28.1375 29.2286 28.102 29.0891 28.0586L28.9492 28.5059Z" fill="white"/>
<path d="M27.2695 27.4785C27.3848 27.5962 27.5092 27.7084 27.6388 27.8115L27.9308 27.4446C27.8161 27.3534 27.7061 27.2543 27.6042 27.1504L27.2695 27.4785Z" fill="white"/>
<path d="M29.9517 28.2148L29.9258 28.6828C30.0814 28.6914 30.1794 28.6892 30.4075 28.6892V28.2205C30.1844 28.2206 30.0916 28.2227 29.9517 28.2148Z" fill="white"/>
<path d="M28.043 28.095C28.1838 28.1812 28.3317 28.2597 28.4823 28.328L28.6761 27.9012C28.5428 27.8408 28.4123 27.7714 28.2878 27.6953L28.043 28.095Z" fill="white"/>
<path d="M25.76 15.2979L28.9908 14.0377C29.0209 14.026 29.0484 14.008 29.0714 13.9852L37.1163 5.94352C37.8158 5.2443 37.8159 4.11195 37.1163 3.41242C36.4188 2.71445 35.283 2.71398 34.5848 3.41164L26.54 11.4534C26.5172 11.4763 26.4991 11.5037 26.4873 11.534L25.0786 15.142C25.0447 15.2287 25.0653 15.3271 25.1313 15.3929C25.2841 15.5459 25.48 15.4073 25.76 15.2979ZM36.7849 3.74367C37.2447 4.20367 37.2952 4.91508 36.9353 5.43086L35.0977 3.59305C35.6123 3.23555 36.3263 3.28508 36.7849 3.74367ZM34.7506 3.90883L36.6192 5.77758L28.9058 13.4879L27.0372 11.6191L34.7506 3.90883ZM26.7936 12.0384L28.4863 13.7313L27.3313 14.1818C27.1155 13.7613 26.7633 13.4091 26.3427 13.1932L26.7936 12.0384Z" fill="white"/>
<path d="M24.2891 16.5483C19.6634 14.7833 19.9097 14.8367 19.773 14.8889L15.4242 16.5483C15.3367 16.5814 15.2734 16.6733 15.2734 16.7672V21.4109C15.2734 21.5018 15.3261 21.5847 15.4084 21.6231L19.7572 23.6593C19.8231 23.6903 19.8983 23.6864 19.9558 23.6593L24.3047 21.6231C24.387 21.5845 24.4397 21.5018 24.4397 21.4109V16.7672C24.4398 16.6767 24.3803 16.5828 24.2891 16.5483ZM19.6222 23.0787L15.7422 21.262V17.1303C18.5666 18.4053 17.9534 18.1284 19.6222 18.8817V23.0787ZM19.8566 18.4731L16.1177 16.7853L19.8566 15.3586L23.5956 16.7853L19.8566 18.4731ZM23.9711 21.2618L20.0909 23.0787V18.8817C21.4555 18.2658 20.9314 18.5023 23.9711 17.1303V21.2618Z" fill="white"/>
<path d="M20.1133 26.3594H19.6445V26.8281H20.1133V26.3594Z" fill="white"/>
<path d="M20.1133 30.1094H19.6445V30.5781H20.1133V30.1094Z" fill="white"/>
<path d="M20.1133 27.2969H19.6445V27.7656H20.1133V27.2969Z" fill="white"/>
<path d="M20.1133 28.2344H19.6445V28.7031H20.1133V28.2344Z" fill="white"/>
<path d="M20.1133 29.1719H19.6445V29.6406H20.1133V29.1719Z" fill="white"/>
<path d="M20.1133 24.4844H19.6445V24.9531H20.1133V24.4844Z" fill="white"/>
<path d="M20.1133 25.4219H19.6445V25.8906H20.1133V25.4219Z" fill="white"/>
<path d="M17.1289 6.31375H22.6341C22.7634 6.31375 22.8684 6.20891 22.8684 6.07938V0.574219C22.8684 0.512031 22.8438 0.4525 22.7998 0.408438C22.7559 0.364375 22.6963 0.339844 22.6341 0.339844H17.1289C16.9995 0.339844 16.8945 0.444688 16.8945 0.574219V6.07938C16.8945 6.20891 16.9995 6.31375 17.1289 6.31375ZM17.3633 0.808594H22.3997V5.845H17.3633V0.808594Z" fill="white"/>
<path d="M20.1133 8.46484H19.6445V8.93359H20.1133V8.46484Z" fill="white"/>
<path d="M20.1133 11.2773H19.6445V11.7461H20.1133V11.2773Z" fill="white"/>
<path d="M20.1133 7.52734H19.6445V7.99609H20.1133V7.52734Z" fill="white"/>
<path d="M20.1133 10.3398H19.6445V10.8086H20.1133V10.3398Z" fill="white"/>
<path d="M20.1133 13.1523H19.6445V13.6211H20.1133V13.1523Z" fill="white"/>
<path d="M20.1133 9.40234H19.6445V9.87109H20.1133V9.40234Z" fill="white"/>
<path d="M20.1133 12.2148H19.6445V12.6836H20.1133V12.2148Z" fill="white"/>
<path d="M6.53641 21.6438V16.1387C6.53641 16.0091 6.43141 15.9043 6.30203 15.9043H0.796875C0.6675 15.9043 0.5625 16.0091 0.5625 16.1387V21.6438C0.5625 21.7734 0.6675 21.8782 0.796875 21.8782H6.30203C6.43094 21.8782 6.53641 21.7732 6.53641 21.6438ZM6.06766 21.4095H1.03125V16.373H6.06766V21.4095Z" fill="white"/>
<path d="M13.3047 18.6562H12.8359V19.125H13.3047V18.6562Z" fill="white"/>
<path d="M12.3672 18.6562H11.8984V19.125H12.3672V18.6562Z" fill="white"/>
<path d="M8.61719 18.6562H8.14844V19.125H8.61719V18.6562Z" fill="white"/>
<path d="M9.55469 18.6562H9.08594V19.125H9.55469V18.6562Z" fill="white"/>
<path d="M14.2422 18.6562H13.7734V19.125H14.2422V18.6562Z" fill="white"/>
<path d="M11.4297 18.6562H10.9609V19.125H11.4297V18.6562Z" fill="white"/>
<path d="M10.4922 18.6562H10.0234V19.125H10.4922V18.6562Z" fill="white"/>
<path d="M39.2044 15.9043H33.6992C33.5698 15.9043 33.4648 16.0091 33.4648 16.1387V21.6438C33.4648 21.706 33.4895 21.7655 33.5334 21.8096C33.5773 21.8537 33.637 21.8782 33.6992 21.8782H39.2044C39.3338 21.8782 39.4388 21.7734 39.4388 21.6438V16.1387C39.4388 16.0093 39.3338 15.9043 39.2044 15.9043ZM38.97 21.4095H33.9336V16.373H38.97V21.4095Z" fill="white"/>
<path d="M29.0352 18.6562H28.5664V19.125H29.0352V18.6562Z" fill="white"/>
<path d="M28.0977 18.6562H27.6289V19.125H28.0977V18.6562Z" fill="white"/>
<path d="M30.9102 18.6562H30.4414V19.125H30.9102V18.6562Z" fill="white"/>
<path d="M26.2227 18.6562H25.7539V19.125H26.2227V18.6562Z" fill="white"/>
<path d="M27.1602 18.6562H26.6914V19.125H27.1602V18.6562Z" fill="white"/>
<path d="M29.9727 18.6562H29.5039V19.125H29.9727V18.6562Z" fill="white"/>
<path d="M31.8477 18.6562H31.3789V19.125H31.8477V18.6562Z" fill="white"/>
</svg>
