<svg width="36" height="30" viewBox="0 0 36 30" fill="none" xmlns="http://www.w3.org/2000/svg">
<path d="M8.49609 10.2942C10.743 10.2942 12.5709 8.46625 12.5709 6.21937C12.5709 3.9725 10.743 2.14453 8.49609 2.14453C6.24953 2.14453 4.42188 3.9725 4.42188 6.21937C4.42188 8.46625 6.24969 10.2942 8.49609 10.2942ZM8.49609 2.61328C10.4845 2.61328 12.1022 4.23094 12.1022 6.21937C12.1022 8.20781 10.4847 9.82547 8.49609 9.82547C6.50797 9.82547 4.89062 8.20781 4.89062 6.21937C4.89062 4.23094 6.50813 2.61328 8.49609 2.61328Z" fill="white"/>
<path d="M9.60479 4.98869C9.71245 5.50509 9.47386 6.01103 9.01136 6.24775C8.29354 6.61509 8.25495 7.21244 8.25823 7.70775C8.25901 7.83619 8.36292 7.93994 8.49135 7.93994H8.49245C8.62245 7.93994 8.7276 7.83353 8.72526 7.70353C8.71839 7.30728 8.73807 6.91416 9.22479 6.66509C9.87792 6.33087 10.2149 5.61884 10.0637 4.89306C9.82167 3.7315 8.41057 3.23619 7.48292 3.99009C7.1787 4.23744 6.97917 4.58103 6.9137 4.95962C6.88886 5.10337 6.99776 5.23587 7.1437 5.23587C7.2612 5.23587 7.35604 5.14744 7.37448 5.0315C7.56089 3.85666 9.3476 3.75431 9.60479 4.98869Z" fill="white"/>
<path d="M8.26172 8.79641V8.80609C8.26172 8.93312 8.36469 9.03609 8.49172 9.03609H8.50047C8.6275 9.03609 8.73047 8.93312 8.73047 8.80609V8.79641C8.73047 8.66938 8.6275 8.56641 8.50047 8.56641H8.49172C8.36469 8.56641 8.26172 8.66953 8.26172 8.79641Z" fill="white"/>
<path d="M35.2706 19.7804V11.3363C35.2706 11.1637 35.1308 11.0238 34.9581 11.0238H14.7845C14.4686 10.5893 14.1648 10.2566 13.824 9.93617C16.5817 5.05727 13.0709 0.173828 8.4956 0.173828C3.9331 0.173828 0.400283 5.03945 3.16778 9.93602C-1.96972 14.7665 1.51731 23.3618 8.49638 23.3618C10.1887 23.3618 11.7979 22.8243 13.1298 21.8307C13.0548 22.3913 13.2303 22.9793 13.6601 23.4091L18.6683 28.4171L19.7892 29.5379C19.9803 29.729 20.2312 29.8245 20.4823 29.8245C20.7333 29.8245 20.9843 29.729 21.1754 29.5379L22.4445 28.269C22.8267 27.8868 22.8267 27.2649 22.4445 26.8826C21.6883 26.1263 16.982 21.4204 16.3154 20.7537C15.885 20.3232 15.2958 20.1479 14.7343 20.2238C14.7665 20.1805 14.7973 20.1365 14.8286 20.0927H34.9583C35.1308 20.0929 35.2706 19.953 35.2706 19.7804ZM34.8018 11.4926V19.6241H15.1373C15.2483 19.4415 15.3506 19.2551 15.4451 19.0657H33.8767C34.0493 19.0657 34.1892 18.9259 34.1892 18.7532V12.4268C34.1892 12.2541 34.0493 12.1143 33.8767 12.1143H15.4453C15.3398 11.9029 15.2239 11.6955 15.0979 11.4926H34.8018ZM15.6606 18.597C16.4629 16.6784 16.4629 14.5018 15.6606 12.583H33.7204V18.597H15.6606ZM8.4956 0.642578C11.727 0.642578 14.3561 3.27164 14.3561 6.50305C14.3561 7.54398 14.0779 8.56836 13.55 9.46852L9.45372 16.7159C9.03216 17.4613 7.96013 17.4618 7.53825 16.7159L5.00263 12.2298L5.00325 12.229C4.16278 10.7441 4.51685 11.3701 3.44013 9.46523C1.15935 5.57758 3.97185 0.642578 8.4956 0.642578ZM12.314 12.6079C14.8101 15.7896 12.5072 20.436 8.49622 20.436C4.47622 20.436 2.19263 15.7795 4.67856 12.6088L7.13028 16.9466C7.73122 18.0096 9.26044 18.0102 9.86169 16.9466L12.314 12.6079ZM22.1131 27.2141C22.3125 27.4137 22.3125 27.7382 22.1131 27.9376L20.844 29.2065C20.6447 29.4059 20.32 29.4059 20.1206 29.2065L19.3312 28.4171C21.5339 26.2141 21.0754 26.6727 21.3234 26.4248L22.1131 27.2141ZM14.9878 20.6734C15.3486 20.6734 15.7093 20.8107 15.9839 21.0852L20.9922 26.0932L18.9998 28.0855L13.9917 23.0776C13.1161 22.2018 13.7229 20.6734 14.9878 20.6734ZM8.49638 22.893C2.00231 22.893 -1.31331 14.9384 3.40419 10.3548C3.82591 11.1001 3.59669 10.6949 4.43013 12.1693C1.51216 15.6259 4.0106 20.9046 8.49606 20.9046C12.9915 20.9046 15.4742 15.617 12.5625 12.1685L13.5875 10.3546C18.277 14.9112 15.0208 22.893 8.49638 22.893Z" fill="white"/>
<path d="M18.8498 14.6684L18.1748 15.3604L17.4998 14.6684C17.4095 14.5757 17.261 14.5738 17.1684 14.6643C17.0757 14.7546 17.0738 14.9031 17.1643 14.9957L17.8474 15.696L17.1643 16.3963C17.074 16.489 17.0757 16.6374 17.1684 16.7278C17.261 16.8181 17.4095 16.8163 17.4998 16.7237L18.1748 16.0317L18.8498 16.7237C18.9401 16.8163 19.0885 16.8182 19.1812 16.7278C19.2738 16.6374 19.2757 16.489 19.1853 16.3963L18.5021 15.696L19.1853 14.9957C19.2756 14.9031 19.2738 14.7546 19.1812 14.6643C19.0885 14.5738 18.9401 14.5757 18.8498 14.6684Z" fill="white"/>
<path d="M21.7446 14.6684L21.0695 15.3604L20.3943 14.6684C20.304 14.5757 20.1556 14.5738 20.0629 14.6643C19.9703 14.7546 19.9684 14.9031 20.0588 14.9957L20.742 15.696L20.0588 16.3963C19.9685 16.489 19.9703 16.6374 20.0629 16.7278C20.1556 16.8181 20.304 16.8163 20.3943 16.7237L21.0695 16.0317L21.7446 16.7237C21.8349 16.8163 21.9834 16.8182 22.076 16.7278C22.1687 16.6374 22.1706 16.489 22.0801 16.3963L21.397 15.696L22.0801 14.9957C22.1704 14.9031 22.1687 14.7546 22.076 14.6643C21.9835 14.5738 21.8351 14.5757 21.7446 14.6684Z" fill="white"/>
<path d="M24.6388 14.6684L23.9638 15.3604L23.2888 14.6684C23.1985 14.5757 23.0501 14.5738 22.9574 14.6643C22.8648 14.7546 22.8629 14.9031 22.9534 14.9957L23.6365 15.696L22.9534 16.3963C22.8631 16.489 22.8648 16.6374 22.9574 16.7278C23.0501 16.8181 23.1985 16.8163 23.2888 16.7237L23.9638 16.0317L24.6388 16.7237C24.7292 16.8163 24.8776 16.8182 24.9703 16.7278C25.0629 16.6374 25.0648 16.489 24.9743 16.3963L24.2912 15.696L24.9743 14.9957C25.0646 14.9031 25.0629 14.7546 24.9703 14.6643C24.8776 14.5738 24.7292 14.5757 24.6388 14.6684Z" fill="white"/>
<path d="M29.6274 14.6684L28.9523 15.3604L28.2771 14.6684C28.1868 14.5757 28.0384 14.5738 27.9457 14.6643C27.8531 14.7546 27.8512 14.9031 27.9417 14.9957L28.6248 15.696L27.9417 16.3963C27.8513 16.489 27.8531 16.6374 27.9457 16.7278C28.0384 16.8181 28.1868 16.8163 28.2771 16.7237L28.9523 16.0317L29.6274 16.7237C29.7178 16.8163 29.8662 16.8182 29.9588 16.7278C30.0515 16.6374 30.0534 16.489 29.9629 16.3963L29.2798 15.696L29.9629 14.9957C30.0532 14.9031 30.0515 14.7546 29.9588 14.6643C29.8662 14.5738 29.7178 14.5757 29.6274 14.6684Z" fill="white"/>
<path d="M32.381 14.6684L31.706 15.3604L31.031 14.6684C30.9407 14.5757 30.7923 14.5738 30.6996 14.6643C30.607 14.7546 30.6051 14.9031 30.6956 14.9957L31.3787 15.696L30.6956 16.3963C30.6053 16.489 30.607 16.6374 30.6996 16.7278C30.7923 16.8181 30.9407 16.8163 31.031 16.7237L31.706 16.0317L32.381 16.7237C32.4713 16.8163 32.6198 16.8182 32.7124 16.7278C32.8051 16.6374 32.807 16.489 32.7165 16.3963L32.0334 15.696L32.7165 14.9957C32.8068 14.9031 32.8051 14.7546 32.7124 14.6643C32.6198 14.5738 32.4715 14.5757 32.381 14.6684Z" fill="white"/>
<path d="M27.2772 15.4609H25.8086V15.9297H27.2772V15.4609Z" fill="white"/>
</svg>
