<svg width="40" height="38" viewBox="0 0 40 38" fill="none" xmlns="http://www.w3.org/2000/svg">
<path d="M7.11406 28.4922C5.83203 28.4922 4.78906 29.5352 4.78906 30.8172C4.78906 32.0992 5.83203 33.1422 7.11406 33.1422C8.39609 33.1422 9.43906 32.0992 9.43906 30.8172C9.43906 29.5352 8.39609 28.4922 7.11406 28.4922ZM7.11406 32.6736C6.09047 32.6736 5.25781 31.8408 5.25781 30.8173C5.25781 29.7939 6.09063 28.9611 7.11406 28.9611C8.1375 28.9611 8.97031 29.7939 8.97031 30.8173C8.97031 31.8408 8.13766 32.6736 7.11406 32.6736Z" fill="white"/>
<path d="M13.8178 29.5127L11.882 28.8402L12.7753 26.9959C12.8188 26.9061 12.8006 26.7986 12.73 26.7281L11.2005 25.1984C11.13 25.1278 11.0225 25.1095 10.9327 25.1531L9.08828 26.0464L8.41578 24.1106C8.38313 24.0162 8.29422 23.9531 8.19438 23.9531H6.03109C5.93125 23.9531 5.84234 24.0162 5.80969 24.1106L5.13719 26.0464L3.29281 25.1531C3.20312 25.1097 3.09547 25.1278 3.025 25.1984L1.49531 26.728C1.42469 26.7986 1.40656 26.9061 1.45 26.9958L2.34328 28.8402L0.4075 29.5127C0.313125 29.5453 0.25 29.6342 0.25 29.7341V31.8973C0.25 31.9972 0.313125 32.0861 0.4075 32.1187L2.34328 32.7912L1.45 34.6356C1.40656 34.7255 1.42469 34.833 1.49531 34.9034L3.02484 36.4331C3.09562 36.5037 3.20297 36.522 3.29281 36.4784L5.13719 35.5852L5.80984 37.5209C5.8425 37.6153 5.93141 37.6784 6.03125 37.6784H8.19438C8.29422 37.6784 8.38313 37.6153 8.41578 37.5209L9.08844 35.5852L10.9327 36.4784C11.0225 36.522 11.1302 36.5039 11.2005 36.4331L12.73 34.9036C12.8006 34.833 12.8188 34.7255 12.7753 34.6358L11.882 32.7911L13.8178 32.1186C13.9122 32.0859 13.9753 31.997 13.9753 31.8972V29.7341C13.9753 29.6342 13.912 29.5455 13.8178 29.5127ZM13.5066 31.7305L11.4794 32.4347C11.347 32.4806 11.2844 32.6322 11.3453 32.7583L12.2808 34.69L10.987 35.9838L9.05563 35.0483C8.92891 34.9872 8.77797 35.05 8.73203 35.1823L8.02766 37.2095H6.19797L5.49359 35.1823C5.44766 35.05 5.29672 34.9872 5.17 35.0483L3.23859 35.9838L1.94469 34.6898L2.88016 32.7584C2.94109 32.6327 2.87859 32.4809 2.74609 32.4348L0.718906 31.7306V29.9008L2.74609 29.1966C2.87844 29.1506 2.94109 28.9991 2.88016 28.873L1.94469 26.9416L3.23859 25.6478L5.17 26.5833C5.29578 26.6441 5.4475 26.5817 5.49359 26.4492L6.19781 24.422H8.0275L8.73172 26.4492C8.77781 26.5817 8.92891 26.6442 9.05531 26.5833L10.9869 25.6478L12.2806 26.9417L11.3452 28.8731C11.2842 28.9989 11.3467 29.1506 11.4792 29.1967L13.5064 29.9009L13.5066 31.7305Z" fill="white"/>
<path d="M38.2736 17.3223H18.4947C17.6791 17.3223 17.0156 17.9859 17.0156 18.8015V30.9148C17.0156 31.7304 17.6792 32.3938 18.4947 32.3938H25.4147L24.552 35.6827H21.425C21.2956 35.6827 21.1906 35.7876 21.1906 35.9171V37.4452C21.1906 37.5748 21.2956 37.6796 21.425 37.6796H35.6266C35.7559 37.6796 35.8609 37.5748 35.8609 37.4452V35.9171C35.8609 35.7876 35.7559 35.6827 35.6266 35.6827H32.4995L31.6369 32.3938H38.2738C39.0894 32.3938 39.753 31.7302 39.753 30.9148V18.8015C39.7528 17.9857 39.0892 17.3223 38.2736 17.3223ZM32.092 35.9766C32.1191 36.0798 32.2123 36.1516 32.3187 36.1516H35.3922V37.211H21.6594V36.1516H24.7328C24.8394 36.1516 24.9325 36.0798 24.9595 35.9766L25.8994 32.3938H31.1522L32.092 35.9766ZM39.2841 30.9148C39.2841 31.4718 38.8308 31.9251 38.2736 31.9251C36.1206 31.9251 20.6937 31.9251 18.4947 31.9251C17.9377 31.9251 17.4844 31.4718 17.4844 30.9148V18.8015C17.4844 18.2443 17.9377 17.791 18.4947 17.791H38.2736C38.8306 17.791 39.2841 18.2443 39.2841 18.8015V30.9148Z" fill="white"/>
<path d="M37.7558 19.0859H19.0156C18.8861 19.0859 18.7812 19.1908 18.7812 19.3203V30.3948C18.7812 30.5244 18.8861 30.6292 19.0156 30.6292H37.7558C37.8852 30.6292 37.9902 30.5244 37.9902 30.3948V19.3203C37.9902 19.1908 37.8852 19.0859 37.7558 19.0859ZM37.5214 30.1605H19.25V19.5547H37.5214V30.1605Z" fill="white"/>
<path d="M22.4266 23.8279C22.5257 23.7447 22.5385 23.5968 22.4553 23.4978L21.7253 22.629L22.4728 21.6372C22.5508 21.5337 22.53 21.3868 22.4267 21.3089H22.4266C22.3232 21.2311 22.1763 21.2517 22.0983 21.355L21.2386 22.4958C21.1728 22.5829 21.1761 22.704 21.2464 22.7876L22.0964 23.7992C22.1797 23.8984 22.3275 23.9112 22.4266 23.8279Z" fill="white"/>
<path d="M24.9877 23.828C25.087 23.9113 25.2348 23.8985 25.318 23.7994L26.1682 22.7878C26.2385 22.7043 26.2416 22.5832 26.176 22.496L25.3162 21.355C25.2382 21.2518 25.0913 21.231 24.988 21.3089C24.8846 21.3869 24.8638 21.5338 24.9418 21.6372L25.6895 22.6291L24.9593 23.4977C24.8757 23.5969 24.8885 23.7447 24.9877 23.828Z" fill="white"/>
<path d="M24.3368 20.835C24.2165 20.7872 24.0802 20.8461 24.0324 20.9664L22.8565 23.9297C22.8086 24.05 22.8676 24.1862 22.9879 24.234C23.1082 24.2817 23.2446 24.2229 23.2922 24.1026L24.4682 21.1393C24.516 21.0189 24.4571 20.8826 24.3368 20.835Z" fill="white"/>
<path d="M35.1334 21.0742H28.6211C28.4917 21.0742 28.3867 21.1792 28.3867 21.3086C28.3867 21.438 28.4917 21.543 28.6211 21.543H35.1334C35.2628 21.543 35.3678 21.438 35.3678 21.3086C35.3678 21.1791 35.2628 21.0742 35.1334 21.0742Z" fill="white"/>
<path d="M35.1334 23.3008H28.6211C28.4917 23.3008 28.3867 23.4058 28.3867 23.5352C28.3867 23.6645 28.4917 23.7695 28.6211 23.7695H35.1334C35.2628 23.7695 35.3678 23.6645 35.3678 23.5352C35.3678 23.4058 35.2628 23.3008 35.1334 23.3008Z" fill="white"/>
<path d="M21.4492 25.9941H35.1334C35.2628 25.9941 35.3678 25.8891 35.3678 25.7598C35.3678 25.6304 35.2628 25.5254 35.1334 25.5254H21.4492C21.3198 25.5254 21.2148 25.6304 21.2148 25.7598C21.2148 25.8891 21.3197 25.9941 21.4492 25.9941Z" fill="white"/>
<path d="M21.4492 28.2207H35.1334C35.2628 28.2207 35.3678 28.1157 35.3678 27.9863C35.3678 27.857 35.2628 27.752 35.1334 27.752H21.4492C21.3198 27.752 21.2148 27.857 21.2148 27.9863C21.2148 28.1159 21.3197 28.2207 21.4492 28.2207Z" fill="white"/>
<path d="M20.418 13.977L22.6186 15.65C22.7737 15.7675 22.9948 15.6558 22.9948 15.4634V13.5102C24.2445 13.06 25.0123 12.2916 25.7581 11.2184C26.7195 12.7603 28.4023 13.7033 30.2362 13.7033C33.1466 13.7033 35.5142 11.3356 35.5142 8.42531C35.5142 5.515 33.1466 3.14734 30.2362 3.14734C28.8822 3.14734 27.5773 3.6725 26.6006 4.59969C25.5652 2.025 23.0647 0.320312 20.2645 0.320312C17.5761 0.320312 15.1683 1.87453 14.0555 4.30297C9.52625 1.64359 3.77344 4.92297 3.77344 10.1961C3.77344 13.9623 6.8375 17.0266 10.6038 17.0266C13.2923 17.0266 15.7 15.4723 16.8128 13.0439C17.9694 13.7228 19.2953 14.0242 20.418 13.977ZM16.4889 12.6137C15.5034 15.0097 13.1934 16.5578 10.6039 16.5578C7.09609 16.5578 4.24234 13.7039 4.24234 10.1961C4.24234 6.68828 7.09609 3.83453 10.6039 3.83453C11.8242 3.83453 13.0109 4.18266 14.0363 4.84109C14.1603 4.92047 14.3242 4.8675 14.3797 4.73313C15.3652 2.33719 17.6752 0.789062 20.2647 0.789062C22.99 0.789062 25.4105 2.52266 26.2875 5.10281C26.3142 5.18125 26.3803 5.23984 26.4614 5.25672C26.5423 5.27359 26.6267 5.24641 26.6825 5.18516C27.5922 4.18797 28.8875 3.61594 30.2362 3.61594C32.8881 3.61594 35.0455 5.77328 35.0455 8.42516C35.0455 11.077 32.888 13.2344 30.2362 13.2344C28.4481 13.2344 26.8177 12.2505 25.9814 10.6667C25.8998 10.512 25.6786 10.4955 25.5786 10.6472C24.7659 11.8797 24.0323 12.6794 22.6877 13.1202C22.5914 13.1517 22.5262 13.2416 22.5262 13.3428V14.9908C20.2709 13.2763 20.6977 13.5125 20.2647 13.5125C19.0445 13.5125 17.8577 13.1644 16.8323 12.5058C16.71 12.4273 16.545 12.4778 16.4889 12.6137Z" fill="white"/>
<path d="M8.17188 9.48242V10.9423H8.41125V10.3037H9.09812V10.9423H9.33766V9.48242H9.09812V10.1084H8.41125V9.48242H8.17188Z" fill="white"/>
<path d="M9.57812 9.67773H9.96891V10.9423H10.2083V9.67773H10.5969V9.48242H9.57812V9.67773Z" fill="white"/>
<path d="M11.6069 10.6271L11.0942 9.48242H10.8359V10.9423H11.0753V9.94242L11.5228 10.9423H11.6888L12.1341 9.94242V10.9423H12.3734V9.48242H12.1172L11.6069 10.6271Z" fill="white"/>
<path d="M12.6875 9.48242V10.9423H13.4205V10.749H12.9269V9.48242H12.6875Z" fill="white"/>
<path d="M19.0022 7.6125C18.8581 7.94828 18.5916 8.10156 18.24 8.10156C17.6553 8.10156 17.3891 7.61922 17.3891 7.17094C17.3891 6.72219 17.6553 6.23938 18.24 6.23938C18.5873 6.23938 18.8583 6.39094 19.0019 6.73516H19.3533C19.1537 6.19875 18.7548 5.96094 18.24 5.96094C17.4417 5.96094 17.0781 6.58875 17.0781 7.17187C17.0781 7.805 17.4923 8.37969 18.24 8.37969C18.7608 8.37969 19.1545 8.13875 19.3536 7.61219H19.0022V7.6125Z" fill="white"/>
<path d="M20.4823 8.11406C20.2384 8.12703 19.9884 8.01297 19.9555 7.69125H19.6367C19.6536 8.16406 20.0369 8.38406 20.4431 8.38406C20.4495 8.38406 20.4561 8.38406 20.4625 8.38391C20.832 8.37703 21.2298 8.16547 21.2298 7.71719C21.2298 7.23375 20.8481 7.12906 20.5111 7.03688C20.2203 6.95719 19.9689 6.88844 19.9689 6.6075C19.9689 6.50781 20.0022 6.42453 20.0678 6.35969C20.1486 6.27984 20.2709 6.23609 20.4133 6.23609C20.4163 6.23609 20.4191 6.23609 20.4219 6.23609C20.66 6.23859 20.8484 6.35422 20.888 6.59719H21.215C21.1603 6.16047 20.8373 5.96094 20.432 5.96094C19.9761 5.96094 19.6577 6.22953 19.6577 6.61391C19.6577 7.10203 20.0386 7.20391 20.3745 7.29375C20.6664 7.37187 20.9183 7.43922 20.9183 7.72672C20.9186 7.97875 20.6995 8.10281 20.4823 8.11406Z" fill="white"/>
<path d="M22.3613 8.11397C22.1163 8.12678 21.868 8.01288 21.8344 7.69116H21.5156C21.5333 8.16069 21.9056 8.38319 22.3311 8.38319C22.8417 8.38319 23.1089 8.04803 23.1089 7.7171C23.1089 7.23366 22.7272 7.12897 22.3903 7.03678C22.0994 6.9571 21.8481 6.88834 21.8481 6.60741C21.8481 6.35772 22.0597 6.2521 22.2413 6.23725C22.4423 6.22085 22.7189 6.30038 22.7672 6.59709H23.0942C23.0369 6.13975 22.6684 5.93194 22.2511 5.95944C21.9072 5.98085 21.537 6.19475 21.537 6.61381C21.537 7.10194 21.918 7.20381 22.2539 7.29366C22.5458 7.37178 22.7977 7.43913 22.7977 7.72663C22.7975 7.97881 22.5783 8.10288 22.3613 8.11397Z" fill="white"/>
<path d="M28.6356 8.65992V7.74023H28.4245V8.65992C28.4245 8.90695 28.0983 8.91008 28.0941 8.65992H27.8828C27.8828 9.15586 28.6356 9.15617 28.6356 8.65992Z" fill="white"/>
<path d="M29.117 9.01594L29.2087 8.75531H29.743L29.8348 9.01594H30.0552L29.598 7.73828H29.3556L28.8984 9.01594H29.117ZM29.4767 7.99156L29.6841 8.58453H29.2673L29.4767 7.99156Z" fill="white"/>
<path d="M30.8756 9.01617L31.3547 7.74023H31.1344L30.7544 8.80133L30.3761 7.74023H30.1523L30.6333 9.01617H30.8756Z" fill="white"/>
<path d="M31.7634 8.75531H32.2977L32.3895 9.01594H32.6098L32.1527 7.73828H31.9103L31.4531 9.01594H31.6716L31.7634 8.75531ZM32.0316 7.99172L32.2389 8.58469H31.8222L32.0316 7.99172Z" fill="white"/>
<path d="M6.25687 11.1621L5.79688 11.2516C5.82797 11.412 5.86797 11.5727 5.91562 11.7296L6.36406 11.5934C6.32109 11.452 6.28516 11.3068 6.25687 11.1621Z" fill="white"/>
<path d="M6.17977 10.2783L5.71102 10.2734C5.71024 10.4363 5.71493 10.5878 5.73102 10.765L6.19774 10.7227C6.18336 10.5645 6.17899 10.4261 6.17977 10.2783Z" fill="white"/>
<path d="M13.2188 13.7891L13.5048 14.1603C13.6342 14.0606 13.76 13.9531 13.8791 13.8406L13.5569 13.5C13.4494 13.6017 13.3356 13.6989 13.2188 13.7891Z" fill="white"/>
<path d="M6.55 8.55102L6.12141 8.36133C6.05516 8.51102 5.99594 8.6657 5.94531 8.82102L6.39109 8.96617C6.43656 8.82602 6.49016 8.68633 6.55 8.55102Z" fill="white"/>
<path d="M6.51828 12.0117L6.08594 12.193C6.14922 12.3438 6.22094 12.493 6.29938 12.6366L6.71094 12.412C6.64 12.2825 6.57531 12.1477 6.51828 12.0117Z" fill="white"/>
<path d="M12.4648 14.2559L12.67 14.6773C12.8167 14.6057 12.9619 14.5257 13.1009 14.4395L12.8539 14.041C12.7283 14.1191 12.5975 14.1913 12.4648 14.2559Z" fill="white"/>
<path d="M6.27547 9.39547L5.81719 9.29688C5.78281 9.45656 5.75625 9.62016 5.73828 9.78266L6.20406 9.83422C6.22047 9.68734 6.24437 9.53984 6.27547 9.39547Z" fill="white"/>
<path d="M6.94141 12.791L6.55469 13.056C6.64719 13.1909 6.74766 13.3226 6.85328 13.4473L7.21109 13.1445C7.11563 13.0318 7.025 12.9129 6.94141 12.791Z" fill="white"/>
<path d="M11.6328 14.5608L11.748 15.0152C11.9064 14.975 12.0647 14.9261 12.2184 14.8698L12.0573 14.4297C11.9186 14.4805 11.7758 14.5245 11.6328 14.5608Z" fill="white"/>
<path d="M10.8667 5.48668C10.7042 5.47621 10.5384 5.47387 10.375 5.47965L10.3917 5.94809C10.5394 5.94262 10.6895 5.94496 10.8367 5.95449L10.8667 5.48668Z" fill="white"/>
<path d="M10.7539 14.6909L10.775 15.1592C10.9388 15.1519 11.1036 15.1361 11.2648 15.1122L11.1964 14.6484C11.0506 14.67 10.9017 14.6842 10.7539 14.6909Z" fill="white"/>
<path d="M9.88609 5.52148C9.72406 5.54367 9.56125 5.57461 9.40234 5.61336L9.51328 6.06883C9.65672 6.03383 9.80359 6.00602 9.94984 5.98586L9.88609 5.52148Z" fill="white"/>
<path d="M14.375 12.4495L14.7844 12.6778C14.8641 12.535 14.9373 12.3866 15.002 12.2364L14.5716 12.0508C14.513 12.1862 14.4469 12.3203 14.375 12.4495Z" fill="white"/>
<path d="M14.9062 10.7645L15.3727 10.8116C15.3889 10.6494 15.3972 10.4842 15.3972 10.3203H14.9284C14.9286 10.4686 14.9211 10.618 14.9062 10.7645Z" fill="white"/>
<path d="M14.7266 11.6336L15.1736 11.7742C15.2227 11.6181 15.2644 11.4578 15.2972 11.2973L14.8381 11.2031C14.8083 11.348 14.7708 11.4927 14.7266 11.6336Z" fill="white"/>
<path d="M8.04391 6.17578C7.90406 6.26062 7.76719 6.35359 7.63672 6.45219L7.91937 6.82625C8.03719 6.73719 8.16109 6.65328 8.28719 6.57656L8.04391 6.17578Z" fill="white"/>
<path d="M8.84375 14.8545C8.99672 14.9123 9.15453 14.9626 9.31281 15.0045L9.4325 14.5513C9.28969 14.5135 9.14734 14.468 9.00938 14.416L8.84375 14.8545Z" fill="white"/>
<path d="M7.19141 13.8062C7.30922 13.9198 7.43406 14.0286 7.56234 14.1295L7.85203 13.7611C7.73609 13.6698 7.62328 13.5716 7.51672 13.4688L7.19141 13.8062Z" fill="white"/>
<path d="M7.96484 14.4153C8.10297 14.503 8.24734 14.5845 8.39375 14.6575L8.60297 14.238C8.47094 14.172 8.34063 14.0986 8.21594 14.0195L7.96484 14.4153Z" fill="white"/>
<path d="M13.8672 13.1771L14.222 13.4835C14.3289 13.3598 14.4305 13.2291 14.5245 13.0951L14.1405 12.8262C14.0555 12.9474 13.9636 13.0654 13.8672 13.1771Z" fill="white"/>
<path d="M7.57641 7.11313L7.25766 6.76953C7.13766 6.88063 7.02219 6.99937 6.91406 7.12219L7.26609 7.43172C7.36359 7.32078 7.46812 7.21359 7.57641 7.11313Z" fill="white"/>
<path d="M14.2828 7.22969C14.1784 7.10375 14.0662 6.98188 13.9497 6.86719L13.6211 7.20156C13.7264 7.30516 13.8277 7.41531 13.9219 7.52891L14.2828 7.22969Z" fill="white"/>
<path d="M14.4163 8.26555L14.8298 8.04508C14.753 7.90086 14.6677 7.75883 14.5766 7.62305L14.1875 7.88445C14.2698 8.00695 14.3467 8.13523 14.4163 8.26555Z" fill="white"/>
<path d="M6.99047 7.78031L6.60922 7.50781C6.51422 7.64063 6.42484 7.78016 6.34375 7.92219L6.75063 8.15469C6.82406 8.02641 6.90484 7.90047 6.99047 7.78031Z" fill="white"/>
<path d="M13.5798 6.54023C13.4525 6.43805 13.3181 6.34102 13.1806 6.25195L12.9258 6.64555C13.05 6.72602 13.1714 6.81352 13.2864 6.90586L13.5798 6.54023Z" fill="white"/>
<path d="M14.9141 9.96148L15.3812 9.92336C15.368 9.76008 15.3461 9.59602 15.3164 9.43555L14.8555 9.5207C14.8823 9.66555 14.902 9.81398 14.9141 9.96148Z" fill="white"/>
<path d="M14.752 9.08695L15.2019 8.95508C15.1558 8.79789 15.1011 8.64148 15.0394 8.49023L14.6055 8.66742C14.6612 8.80398 14.7105 8.94524 14.752 9.08695Z" fill="white"/>
<path d="M12.7558 6.00609C12.6097 5.93141 12.4586 5.86359 12.3066 5.80469L12.1367 6.24156C12.2739 6.29484 12.4105 6.35609 12.5425 6.42359L12.7558 6.00609Z" fill="white"/>
<path d="M9.08844 6.19562L8.93156 5.75391C8.77781 5.80859 8.62469 5.87188 8.47656 5.94219L8.67766 6.36563C8.81141 6.30203 8.94953 6.24484 9.08844 6.19562Z" fill="white"/>
<path d="M9.79297 15.1057C9.95406 15.1312 10.1187 15.1485 10.2823 15.1574L10.308 14.6895C10.1602 14.6813 10.0114 14.6655 9.86578 14.6426L9.79297 15.1057Z" fill="white"/>
<path d="M11.8395 5.64906C11.6822 5.60578 11.5205 5.57016 11.3588 5.54297L11.2812 6.00531C11.4273 6.02969 11.5733 6.06187 11.7153 6.10094L11.8395 5.64906Z" fill="white"/>
<path d="M22.1878 2.85359C22.0387 2.78672 21.8839 2.72687 21.7277 2.67578L21.582 3.12141C21.7225 3.16734 21.8619 3.22109 21.9958 3.28125L22.1878 2.85359Z" fill="white"/>
<path d="M23.4194 4.32055L23.7678 4.00711C23.6583 3.88508 23.5413 3.76773 23.4202 3.6582L23.1055 4.00586C23.2148 4.10445 23.3203 4.21039 23.4194 4.32055Z" fill="white"/>
<path d="M24.2989 5.84867L24.745 5.70477C24.6947 5.54883 24.6355 5.39383 24.5691 5.24414L24.1406 5.43414C24.2005 5.56883 24.2538 5.70836 24.2989 5.84867Z" fill="white"/>
<path d="M24.482 6.71617L24.9483 6.66898C24.9319 6.50633 24.9064 6.34242 24.8728 6.18164L24.4141 6.27773C24.4444 6.42242 24.4672 6.56992 24.482 6.71617Z" fill="white"/>
<path d="M21.2508 2.54609C21.0905 2.51203 20.9267 2.48594 20.7639 2.46875L20.7148 2.93484C20.8614 2.95031 21.0089 2.97375 21.1533 3.00453L21.2508 2.54609Z" fill="white"/>
<path d="M23.9408 5.04023L24.3467 4.80602C24.2647 4.66367 24.1745 4.52461 24.0789 4.39258L23.6992 4.66758C23.7855 4.78648 23.8666 4.91195 23.9408 5.04023Z" fill="white"/>
<path d="M23.0389 3.34781C22.9067 3.25109 22.768 3.16031 22.6262 3.07812L22.3906 3.48344C22.5181 3.5575 22.6431 3.63922 22.7623 3.72625L23.0389 3.34781Z" fill="white"/>
<path d="M17.7797 3.71727L17.5044 3.33789C17.3719 3.43398 17.243 3.5382 17.1211 3.64773L17.4344 3.99633C17.5442 3.89773 17.6605 3.80383 17.7797 3.71727Z" fill="white"/>
<path d="M20.273 2.91211L20.2656 2.44336C20.1041 2.44336 19.9411 2.45164 19.7812 2.46805L19.8291 2.9343C19.9731 2.91961 20.12 2.91211 20.273 2.91211Z" fill="white"/>
<path d="M16.2337 5.83656L15.788 5.69141C15.7372 5.8475 15.6941 6.00766 15.6602 6.16766L16.1187 6.26516C16.1494 6.12109 16.1881 5.97688 16.2337 5.83656Z" fill="white"/>
<path d="M17.1198 4.31031L16.7719 3.99609C16.662 4.11766 16.5575 4.24641 16.4609 4.37859L16.8395 4.655C16.9266 4.53578 17.0208 4.41984 17.1198 4.31031Z" fill="white"/>
<path d="M18.5436 3.27414L18.3534 2.8457C18.2041 2.91195 18.0564 2.98711 17.9141 3.06914L18.1481 3.47539C18.2763 3.40148 18.4094 3.33383 18.5436 3.27414Z" fill="white"/>
<path d="M19.3892 3.00188L19.293 2.54297C19.1327 2.57656 18.9723 2.61922 18.8164 2.66953L18.9605 3.11547C19.1006 3.07047 19.2448 3.03219 19.3892 3.00188Z" fill="white"/>
<path d="M16.595 5.02648L16.1895 4.79102C16.1073 4.93273 16.0317 5.08039 15.9648 5.23008L16.3927 5.42148C16.4528 5.2868 16.5209 5.15383 16.595 5.02648Z" fill="white"/>
<path d="M21.9883 11.0258L22.1788 11.4541C22.3278 11.3878 22.4755 11.3125 22.6181 11.2302L22.3834 10.8242C22.2552 10.8984 22.1222 10.9663 21.9883 11.0258Z" fill="white"/>
<path d="M22.7539 10.5821L23.0298 10.9612C23.1623 10.8648 23.2911 10.7604 23.4127 10.651L23.0989 10.3027C22.9895 10.4012 22.8734 10.4951 22.7539 10.5821Z" fill="white"/>
<path d="M23.4141 9.98742L23.7623 10.3013C23.8722 10.1795 23.9767 10.0507 24.0728 9.91852L23.6938 9.64258C23.607 9.76164 23.5131 9.87773 23.4141 9.98742Z" fill="white"/>
<path d="M20.7538 11.8334L20.7055 11.3672C20.56 11.3822 20.4116 11.3898 20.2617 11.3898L20.2644 11.8586C20.4277 11.8584 20.5923 11.85 20.7538 11.8334Z" fill="white"/>
<path d="M21.1445 11.2978L21.2416 11.7566C21.402 11.7227 21.5623 11.6798 21.7178 11.6295L21.5734 11.1836C21.4334 11.2289 21.2892 11.2673 21.1445 11.2978Z" fill="white"/>
<path d="M24.4805 7.59398L24.9467 7.64211C24.9634 7.47914 24.972 7.31367 24.972 7.15039H24.5033C24.5034 7.29758 24.4958 7.4468 24.4805 7.59398Z" fill="white"/>
<path d="M24.2969 8.46164L24.7428 8.6068C24.7933 8.45133 24.8363 8.29102 24.8702 8.13008L24.4114 8.0332C24.3809 8.17773 24.3425 8.32195 24.2969 8.46164Z" fill="white"/>
<path d="M23.9336 9.27047L24.3395 9.50516C24.4217 9.36297 24.4972 9.21531 24.5639 9.06609L24.1358 8.875C24.0758 9.00922 24.0077 9.14234 23.9336 9.27047Z" fill="white"/>
<path d="M16.5897 9.26562L16.1836 9.49984C16.2655 9.64172 16.3558 9.78078 16.452 9.91328L16.8312 9.63766C16.7447 9.51859 16.6634 9.39328 16.5897 9.26562Z" fill="white"/>
<path d="M16.0483 7.58984L15.582 7.63781C15.5988 7.80109 15.6244 7.965 15.658 8.12484L16.1167 8.02844C16.0862 7.88422 16.0633 7.73687 16.0483 7.58984Z" fill="white"/>
<path d="M16.2311 8.45703L15.7852 8.60125C15.8355 8.75688 15.8948 8.91188 15.9614 9.06172L16.3897 8.87125C16.3297 8.73641 16.2762 8.59703 16.2311 8.45703Z" fill="white"/>
<path d="M19.2812 11.7553C19.4414 11.7892 19.6052 11.815 19.768 11.832L19.8169 11.3659C19.6703 11.3506 19.5227 11.3273 19.3784 11.2969L19.2812 11.7553Z" fill="white"/>
<path d="M16.0508 6.7032L15.5847 6.6543C15.5677 6.81695 15.5588 6.98242 15.5586 7.14633L16.0273 7.1468C16.0277 6.99898 16.0355 6.84977 16.0508 6.7032Z" fill="white"/>
<path d="M18.3438 11.4514C18.4933 11.5183 18.6483 11.578 18.8042 11.6286L18.9492 11.1828C18.8091 11.1372 18.6697 11.0836 18.5352 11.0234L18.3438 11.4514Z" fill="white"/>
<path d="M17.4922 10.9569C17.6247 11.0536 17.7636 11.1441 17.9053 11.2263L18.1403 10.8206C18.0128 10.7467 17.8877 10.6652 17.7684 10.5781L17.4922 10.9569Z" fill="white"/>
<path d="M17.1102 9.98438L16.7617 10.2978C16.8714 10.4197 16.9886 10.537 17.11 10.6466L17.4241 10.2986C17.3145 10.2 17.2091 10.0941 17.1102 9.98438Z" fill="white"/>
<path d="M29.9955 11.2832L29.957 11.7504C30.1228 11.764 30.2916 11.7657 30.4597 11.7546L30.4289 11.287C30.2866 11.2962 30.14 11.2952 29.9955 11.2832Z" fill="white"/>
<path d="M28.9766 11.5182C29.1316 11.5812 29.2931 11.6329 29.4567 11.6718L29.565 11.2157C29.4247 11.1824 29.2859 11.138 29.1528 11.084L28.9766 11.5182Z" fill="white"/>
<path d="M29.248 5.70594L29.0875 5.26562C28.93 5.32297 28.7758 5.39297 28.6289 5.47344L28.8541 5.88453C28.9803 5.81531 29.1127 5.75516 29.248 5.70594Z" fill="white"/>
<path d="M27.4414 10.261C27.5339 10.4005 27.6377 10.5343 27.7498 10.6584L28.0978 10.3441C28.0012 10.2371 27.9119 10.1221 27.8322 10.002L27.4414 10.261Z" fill="white"/>
<path d="M28.1133 11.0051C28.243 11.1113 28.3817 11.2087 28.5258 11.2941L28.765 10.8912C28.6414 10.8176 28.522 10.734 28.4105 10.6426L28.1133 11.0051Z" fill="white"/>
<path d="M32.8281 9.67023L33.2495 9.87539C33.3228 9.72492 33.385 9.56727 33.435 9.40664L32.9873 9.26758C32.9444 9.40555 32.8908 9.54102 32.8281 9.67023Z" fill="white"/>
<path d="M33.082 8.84414L33.5456 8.91383C33.5705 8.74867 33.583 8.57992 33.583 8.41211H33.1142C33.1142 8.55664 33.1034 8.70211 33.082 8.84414Z" fill="white"/>
<path d="M31.6602 10.9162L31.8927 11.323C32.0383 11.2399 32.1784 11.1452 32.3095 11.0416L32.0191 10.6738C31.9061 10.763 31.7855 10.8446 31.6602 10.9162Z" fill="white"/>
<path d="M32.3398 10.3808L32.6822 10.7008C32.7969 10.5781 32.903 10.4463 32.9977 10.3089L32.6116 10.043C32.5302 10.1613 32.4388 10.275 32.3398 10.3808Z" fill="white"/>
<path d="M30.8555 11.2259L30.9559 11.6839C31.1195 11.6481 31.2819 11.5992 31.4383 11.5389L31.2698 11.1016C31.1353 11.1534 30.9959 11.1953 30.8555 11.2259Z" fill="white"/>
<path d="M28.4923 6.1207L28.208 5.74805C28.0748 5.84961 27.9484 5.96211 27.832 6.08211L28.1686 6.40836C28.2687 6.30492 28.3777 6.2082 28.4923 6.1207Z" fill="white"/>
<path d="M31.9942 5.5618C31.8516 5.47367 31.7011 5.3957 31.547 5.33008L31.3633 5.76133C31.4958 5.81773 31.6252 5.88492 31.748 5.9607L31.9942 5.5618Z" fill="white"/>
<path d="M27.4697 9.21875L27.0195 9.34953C27.0662 9.51031 27.1258 9.66906 27.1964 9.82125L27.6216 9.62391C27.5609 9.49313 27.5098 9.35688 27.4697 9.21875Z" fill="white"/>
<path d="M32.8725 7.24672L33.3009 7.05656C33.2328 6.90328 33.153 6.75406 33.0631 6.61328L32.668 6.86531C32.7452 6.98656 32.8139 7.11484 32.8725 7.24672Z" fill="white"/>
<path d="M31.0698 5.16789C30.9078 5.12633 30.7409 5.0968 30.5741 5.08008L30.5273 5.54648C30.6708 5.56086 30.8141 5.58617 30.9536 5.62195L31.0698 5.16789Z" fill="white"/>
<path d="M33.0973 8.07937L33.563 8.02594C33.5439 7.85937 33.5119 7.69281 33.468 7.53125L33.0156 7.65437C33.0534 7.79312 33.0809 7.93609 33.0973 8.07937Z" fill="white"/>
<path d="M32.4061 6.51914L32.7592 6.2107C32.6487 6.08414 32.5281 5.96539 32.4009 5.85742L32.0977 6.21492C32.2072 6.30789 32.3109 6.41023 32.4061 6.51914Z" fill="white"/>
<path d="M27.4997 7.5118L27.0544 7.36523C27.0022 7.52398 26.9614 7.68836 26.9336 7.85398L27.3959 7.93195C27.42 7.7893 27.4548 7.64805 27.4997 7.5118Z" fill="white"/>
<path d="M27.3803 8.79625C27.3594 8.63891 27.3542 8.50922 27.3556 8.36344L26.8869 8.35547C26.8856 8.52063 26.8908 8.67016 26.9156 8.8575L27.3803 8.79625Z" fill="white"/>
<path d="M27.8886 6.74156L27.5075 6.46875C27.4102 6.60484 27.322 6.74984 27.2461 6.89969L27.6642 7.11156C27.7295 6.98297 27.805 6.85828 27.8886 6.74156Z" fill="white"/>
<path d="M30.0923 5.53648L30.0695 5.06836C29.9017 5.07648 29.7338 5.09742 29.5703 5.13023L29.6628 5.58977C29.8033 5.56148 29.9478 5.54352 30.0923 5.53648Z" fill="white"/>
</svg>
