<svg width="40" height="40" viewBox="0 0 40 40" fill="none" xmlns="http://www.w3.org/2000/svg">
<path d="M39.0491 37.9609H36.6417C36.9865 37.7216 37.2682 37.4023 37.4628 37.0305C37.6575 36.6587 37.7593 36.2453 37.7595 35.8256V34.7711C37.7595 34.7089 37.7348 34.6493 37.6909 34.6054C37.6469 34.5614 37.5873 34.5367 37.5252 34.5367H33.9408C34.1628 34.3506 34.3414 34.1182 34.4639 33.8557C34.5864 33.5932 34.65 33.307 34.65 33.0173V15.8814C34.6494 15.3546 34.4398 14.8497 34.0674 14.4772C33.6949 14.1047 33.1899 13.8953 32.6631 13.8947H24.1202C24.117 13.8184 24.0867 13.1239 24.0606 13.0519C23.915 11.2804 23.5798 9.52963 23.0606 7.82967C22.9444 7.37836 22.7969 6.93568 22.6192 6.50483C21.5373 3.5242 20.2692 1.70795 20.2428 1.67061C20.2211 1.6402 20.1925 1.6154 20.1593 1.5983C20.1261 1.58119 20.0893 1.57227 20.052 1.57227C20.0146 1.57227 19.9778 1.58119 19.9446 1.5983C19.9114 1.6154 19.8828 1.6402 19.8611 1.67061C19.8345 1.70764 18.5662 3.52373 17.4841 6.5042C17.3055 6.93551 17.1578 7.37898 17.0422 7.83123C16.5231 9.53063 16.1879 11.2808 16.0422 13.0517C16.0159 13.1236 15.9856 13.8181 15.9825 13.8947H7.33734C6.81061 13.8953 6.30562 14.1048 5.93316 14.4772C5.5607 14.8497 5.3512 15.3547 5.35062 15.8814V33.0173C5.35067 33.307 5.4142 33.5932 5.53673 33.8557C5.65926 34.1182 5.83782 34.3506 6.05984 34.5367H2.47656C2.4144 34.5367 2.35479 34.5614 2.31083 34.6054C2.26688 34.6493 2.24219 34.7089 2.24219 34.7711V35.8256C2.24251 36.2453 2.34438 36.6588 2.53911 37.0306C2.73384 37.4024 3.01564 37.7216 3.36047 37.9609H0.953125C0.890965 37.9609 0.831351 37.9856 0.787397 38.0296C0.743443 38.0735 0.71875 38.1331 0.71875 38.1953C0.71875 38.2575 0.743443 38.3171 0.787397 38.361C0.831351 38.405 0.890965 38.4297 0.953125 38.4297H39.0491C39.1112 38.4297 39.1708 38.405 39.2148 38.361C39.2587 38.3171 39.2834 38.2575 39.2834 38.1953C39.2834 38.1331 39.2587 38.0735 39.2148 38.0296C39.1708 37.9856 39.1112 37.9609 39.0491 37.9609ZM20.0519 2.23248C20.8694 3.55584 21.5521 4.95792 22.0895 6.41764H18.0137C18.5514 4.95793 19.2342 3.55586 20.0519 2.23248ZM17.8431 6.88639H22.2602C22.3402 7.11342 22.4181 7.34905 22.4945 7.58952H17.608C17.6848 7.34905 17.763 7.11342 17.8431 6.88639ZM17.4623 8.05827H22.6408C23.116 9.63557 23.4301 11.257 23.5783 12.8976H16.5239C16.6722 11.2567 16.9867 9.63509 17.4623 8.05764V8.05827ZM16.4895 13.3664H23.613C23.6287 13.5982 23.6409 13.8325 23.6497 14.0695H16.4528C16.4616 13.8322 16.4738 13.5976 16.4895 13.3658V13.3664ZM16.4402 14.5383H23.663C23.6889 16.0111 23.5673 17.4829 23.3 18.9315C23.0847 18.735 22.8587 18.5504 22.6233 18.3784C22.4852 18.2759 22.3686 18.1658 22.217 18.2458C22.1791 18.2658 22.1474 18.2958 22.1253 18.3326C22.1033 18.3695 22.0918 18.4116 22.092 18.4545L22.1105 22.6314H20.5872L21.0895 20.6144C21.0979 20.5813 21.0988 20.5469 21.0923 20.5134C20.6436 18.1853 20.7312 18.64 20.6177 18.05C20.6073 17.9965 20.5788 17.9483 20.5368 17.9137C20.4948 17.879 20.4421 17.86 20.3877 17.86H19.5787C19.5243 17.86 19.4715 17.8789 19.4295 17.9136C19.3875 17.9483 19.3589 17.9965 19.3486 18.05C19.327 18.1623 18.8983 20.3903 18.8748 20.5122C18.8683 20.5456 18.8693 20.5801 18.8777 20.6131L19.3802 22.6306H17.8944C17.9055 20.0984 17.9011 21.05 17.9133 18.4534C17.9134 18.4159 17.9046 18.3789 17.8875 18.3456C17.8704 18.3122 17.8456 18.2834 17.8151 18.2616C17.7845 18.2398 17.7492 18.2257 17.7121 18.2204C17.675 18.2151 17.6371 18.2187 17.6017 18.2311C17.3168 18.4195 17.0453 18.6275 16.7892 18.8536C16.5316 17.4296 16.4147 15.9837 16.4402 14.5369V14.5383ZM25.2391 23.8976C24.4809 23.2506 23.5614 22.8213 22.5786 22.6555L22.563 18.9211C23.3296 19.5195 23.9634 20.2709 24.4241 21.1274C24.8848 21.9839 25.1623 22.9269 25.2391 23.8964V23.8976ZM19.982 23.1137C19.982 23.112 19.3444 20.5526 19.3441 20.5512C19.3655 20.4401 19.7511 18.4326 19.7709 18.3294H20.1928L20.6205 20.5508L19.982 23.1137ZM20.2583 23.9436C20.4944 24.0079 20.7029 24.148 20.8517 24.3423C21.0004 24.5367 21.0813 24.7745 21.0817 25.0192V25.0217C21.0817 25.805 20.8177 26.1301 19.9653 27.6976C19.1059 26.1237 18.8447 25.802 18.8447 25.0192C18.8453 24.7682 18.9304 24.5248 19.0863 24.3281C19.2422 24.1315 19.4598 23.9931 19.7041 23.9353L19.755 24.14C19.7677 24.1907 19.797 24.2356 19.8382 24.2678C19.8794 24.2999 19.9301 24.3174 19.9823 24.3174C20.0346 24.3174 20.0853 24.2999 20.1265 24.2678C20.1677 24.2356 20.197 24.1907 20.2097 24.14L20.2583 23.9436ZM17.4405 18.9205C17.4312 21.0076 17.4352 20.1639 17.4234 22.6556C16.4406 22.8213 15.5212 23.2505 14.7631 23.8976C14.8394 22.9274 15.1169 21.9838 15.5778 21.1266C16.0388 20.2695 16.6731 19.5178 17.4405 18.9192V18.9205ZM16.0427 16.7626C16.1105 17.5931 16.2247 18.419 16.3847 19.2367C15.7027 19.9218 15.1652 20.7368 14.8042 21.6335C14.4432 22.5303 14.266 23.4904 14.2831 24.4569C14.2864 24.5017 14.3024 24.5446 14.3294 24.5805C14.3563 24.6165 14.393 24.6439 14.4351 24.6596C14.4772 24.6752 14.5229 24.6785 14.5668 24.6689C14.6107 24.6594 14.6509 24.6374 14.6827 24.6056C16.038 23.2505 17.5386 23.1092 17.6605 23.1H19.4956L19.5903 23.4801C19.2447 23.5635 18.9371 23.7605 18.7169 24.0396C18.4967 24.3187 18.3766 24.6637 18.3759 25.0192C18.3759 25.955 18.6834 26.3272 19.7602 28.3005C19.7803 28.3374 19.8101 28.3683 19.8463 28.3898C19.8825 28.4113 19.9238 28.4226 19.9659 28.4226C20.0081 28.4226 20.0494 28.4113 20.0856 28.3898C20.1218 28.3683 20.1516 28.3374 20.1717 28.3005C21.2437 26.3283 21.5505 25.9567 21.5505 25.0226V25.0201C21.5498 24.671 21.4338 24.3318 21.2206 24.0553C21.0073 23.7788 20.7088 23.5804 20.3713 23.4909L20.4684 23.1003H22.3422C22.4672 23.1092 23.9587 23.2453 25.3195 24.6059C25.3513 24.6377 25.3915 24.6597 25.4354 24.6692C25.4793 24.6788 25.525 24.6756 25.5671 24.6599C25.6092 24.6442 25.6459 24.6168 25.6728 24.5808C25.6998 24.5449 25.7158 24.502 25.7191 24.4572C25.7522 22.5467 25.0263 20.7012 23.7006 19.3251C23.8697 18.4786 23.9897 17.623 24.06 16.7626H31.8962V27.2903C30.9664 27.2651 30.0466 27.4872 29.2307 27.934C28.4149 28.3808 27.7323 29.0362 27.2528 29.8333C26.8022 29.6621 26.3106 29.6301 25.8416 29.7414C25.3726 29.8526 24.9478 30.102 24.622 30.4573C24.428 30.1766 24.1775 29.9395 23.8865 29.7612C23.5955 29.5829 23.2706 29.4673 22.9324 29.4219C22.5942 29.3764 22.2502 29.4021 21.9225 29.4972C21.5947 29.5923 21.2905 29.7549 21.0292 29.9744C20.7119 29.736 20.3268 29.6052 19.93 29.6009C19.5331 29.5965 19.1453 29.719 18.8228 29.9503C18.5607 29.737 18.2573 29.5801 17.9317 29.4897C17.6061 29.3992 17.2653 29.3771 16.9307 29.4248C16.5961 29.4724 16.275 29.5887 15.9875 29.7664C15.7001 29.9441 15.4525 30.1793 15.2603 30.4573C15.0342 30.2109 14.7593 30.0142 14.4531 29.8797C14.1468 29.7452 13.816 29.6759 13.4816 29.6761C13.1904 29.676 12.9017 29.7294 12.6298 29.8336C12.1618 29.0565 11.5008 28.4136 10.7111 27.9672C9.92145 27.5208 9.0298 27.286 8.12266 27.2856H8.10453V16.7614L16.0427 16.7626ZM31.8969 27.7559V32.3126H8.10578V27.753H8.12328C8.98268 27.7534 9.82618 27.9848 10.5656 28.4228C11.305 28.8608 11.9131 29.4895 12.3264 30.243C12.3553 30.2956 12.4034 30.3352 12.4606 30.3535C12.5179 30.3717 12.58 30.3673 12.6341 30.3411C13.0546 30.1349 13.5356 30.0881 13.988 30.2093C14.4404 30.3304 14.8336 30.6113 15.0948 31C15.1178 31.0339 15.1492 31.0612 15.186 31.0792C15.2228 31.0971 15.2637 31.1052 15.3046 31.1024C15.3454 31.0997 15.3848 31.0863 15.4189 31.0636C15.453 31.0409 15.4805 31.0096 15.4987 30.973C15.6368 30.6931 15.839 30.4498 16.0888 30.2628C16.3387 30.0759 16.6292 29.9506 16.9366 29.8971C17.244 29.8436 17.5597 29.8635 17.8581 29.9551C18.1564 30.0467 18.4288 30.2074 18.6533 30.4242C18.9409 30.7012 19.0717 30.0683 19.9092 30.0683C20.7817 30.0683 20.9067 30.748 21.2027 30.4503C21.4254 30.2272 21.698 30.0604 21.9981 29.9637C22.2981 29.867 22.6169 29.8432 22.9279 29.8943C23.239 29.9454 23.5334 30.0699 23.7867 30.2575C24.0401 30.4451 24.2451 30.6903 24.3847 30.973C24.4029 31.0096 24.4305 31.0409 24.4645 31.0636C24.4986 31.0863 24.538 31.0997 24.5789 31.1024C24.6197 31.1052 24.6606 31.0971 24.6974 31.0792C24.7342 31.0612 24.7656 31.0339 24.7886 31C25.0503 30.6117 25.4435 30.3312 25.8958 30.21C26.348 30.0889 26.8288 30.1353 27.2495 30.3408C27.3036 30.367 27.3657 30.3716 27.423 30.3533C27.4803 30.3351 27.5284 30.2956 27.5573 30.243C27.9818 29.4692 28.6115 28.8275 29.3772 28.3885C30.1428 27.9495 31.0147 27.7302 31.8969 27.7547V27.7559ZM5.81875 33.0186V15.8814C5.81879 15.4788 5.97876 15.0927 6.26345 14.808C6.54815 14.5233 6.93427 14.3634 7.33688 14.3634H15.9669C15.9497 14.9867 15.9658 15.6784 16.0041 16.2926H7.94891C7.86603 16.2926 7.78654 16.3256 7.72794 16.3842C7.66933 16.4428 7.63641 16.5223 7.63641 16.6051V32.4676C7.63641 32.5505 7.66933 32.63 7.72794 32.6886C7.78654 32.7472 7.86603 32.7801 7.94891 32.7801H32.0531C32.136 32.7801 32.2155 32.7472 32.2741 32.6886C32.3327 32.63 32.3656 32.5505 32.3656 32.4676V16.6051C32.3656 16.5223 32.3327 16.4428 32.2741 16.3842C32.2155 16.3256 32.136 16.2926 32.0531 16.2926H24.0975C24.1359 15.6787 24.1522 14.9653 24.1347 14.3634H32.6631C33.0658 14.3634 33.4519 14.5234 33.7366 14.8081C34.0213 15.0928 34.1813 15.4789 34.1813 15.8815V33.0165C34.1813 33.2159 34.142 33.4133 34.0657 33.5975C33.9894 33.7817 33.8776 33.9491 33.7366 34.09C33.5956 34.231 33.4283 34.3428 33.2441 34.4191C33.0599 34.4954 32.8625 34.5347 32.6631 34.5347H7.33734C6.93486 34.5347 6.54886 34.3748 6.2642 34.0903C5.97954 33.8058 5.81954 33.4198 5.81938 33.0173L5.81875 33.0186ZM22.1544 35.0067C22.0986 35.3337 21.9291 35.6304 21.6757 35.8445C21.4223 36.0586 21.1014 36.1762 20.7697 36.1765H18.2248C17.8931 36.1762 17.5722 36.0586 17.3189 35.8445C17.0655 35.6304 16.8959 35.3337 16.8402 35.0067H22.1544ZM4.84625 37.9609C4.28013 37.9603 3.73739 37.7351 3.33709 37.3348C2.93678 36.9345 2.7116 36.3917 2.71094 35.8256V35.0055H16.3681C16.4256 35.4576 16.6458 35.8733 16.9875 36.1749C17.3292 36.4765 17.7691 36.6432 18.2248 36.644H20.7703C21.2261 36.6432 21.6659 36.4765 22.0077 36.1749C22.3494 35.8733 22.5696 35.4576 22.627 35.0055H37.2912V35.8256C37.2906 36.3917 37.0654 36.9345 36.6651 37.3348C36.2648 37.7351 35.7221 37.9603 35.1559 37.9609H4.84625Z" fill="white"/>
<path d="M27.1133 25.1629C27.1754 25.1629 27.2351 25.1382 27.279 25.0942C27.323 25.0503 27.3477 24.9907 27.3477 24.9285V18.7363C27.3477 18.6742 27.323 18.6146 27.279 18.5706C27.2351 18.5266 27.1754 18.502 27.1133 18.502C27.0511 18.502 26.9915 18.5266 26.9476 18.5706C26.9036 18.6146 26.8789 18.6742 26.8789 18.7363V24.9285C26.8789 24.9907 26.9036 25.0503 26.9476 25.0942C26.9915 25.1382 27.0511 25.1629 27.1133 25.1629Z" fill="white"/>
<path d="M28.2891 26.8676C28.3512 26.8676 28.4108 26.8429 28.4548 26.7989C28.4987 26.755 28.5234 26.6954 28.5234 26.6332V23.3223C28.5234 23.2601 28.4987 23.2005 28.4548 23.1565C28.4108 23.1126 28.3512 23.0879 28.2891 23.0879C28.2269 23.0879 28.1673 23.1126 28.1233 23.1565C28.0794 23.2005 28.0547 23.2601 28.0547 23.3223V26.6332C28.0547 26.6954 28.0794 26.755 28.1233 26.7989C28.1673 26.8429 28.2269 26.8676 28.2891 26.8676Z" fill="white"/>
<path d="M11.4023 23.3134C11.4645 23.3134 11.5241 23.2887 11.5681 23.2447C11.612 23.2008 11.6367 23.1411 11.6367 23.079V21.4199C11.6367 21.3578 11.612 21.2981 11.5681 21.2542C11.5241 21.2102 11.4645 21.1855 11.4023 21.1855C11.3402 21.1855 11.2806 21.2102 11.2366 21.2542C11.1927 21.2981 11.168 21.3578 11.168 21.4199V23.079C11.168 23.1411 11.1927 23.2008 11.2366 23.2447C11.2806 23.2887 11.3402 23.3134 11.4023 23.3134Z" fill="white"/>
<path d="M13.1484 27.0287C13.2106 27.0287 13.2702 27.004 13.3142 26.96C13.3581 26.9161 13.3828 26.8565 13.3828 26.7943V18.7598C13.3828 18.6976 13.3581 18.638 13.3142 18.594C13.2702 18.5501 13.2106 18.5254 13.1484 18.5254C13.0863 18.5254 13.0267 18.5501 12.9827 18.594C12.9388 18.638 12.9141 18.6976 12.9141 18.7598V26.7943C12.9141 26.8565 12.9388 26.9161 12.9827 26.96C13.0267 27.004 13.0863 27.0287 13.1484 27.0287Z" fill="white"/>
<path d="M20.0005 8.48828C19.6125 8.48828 19.2333 8.60332 18.9108 8.81885C18.5882 9.03438 18.3368 9.34072 18.1884 9.69913C18.0399 10.0575 18.0011 10.4519 18.0768 10.8324C18.1525 11.2129 18.3393 11.5624 18.6136 11.8367C18.8879 12.111 19.2374 12.2978 19.6179 12.3734C19.9984 12.4491 20.3928 12.4102 20.7512 12.2617C21.1096 12.1133 21.4159 11.8618 21.6314 11.5393C21.8469 11.2167 21.9619 10.8375 21.9619 10.4495C21.9613 9.92954 21.7544 9.43102 21.3867 9.06335C21.019 8.69567 20.5205 8.48886 20.0005 8.48828ZM20.0005 11.9422C19.7052 11.9422 19.4167 11.8546 19.1712 11.6906C18.9257 11.5266 18.7344 11.2935 18.6214 11.0207C18.5085 10.748 18.4789 10.4479 18.5365 10.1583C18.5941 9.86878 18.7363 9.60282 18.945 9.39406C19.1538 9.18531 19.4197 9.04315 19.7093 8.98556C19.9988 8.92796 20.2989 8.95752 20.5717 9.0705C20.8444 9.18347 21.0776 9.37479 21.2416 9.62026C21.4056 9.86572 21.4931 10.1543 21.4931 10.4495C21.4927 10.8453 21.3353 11.2247 21.0555 11.5045C20.7756 11.7844 20.3962 11.9418 20.0005 11.9422Z" fill="white"/>
</svg>
