<svg width="40" height="40" viewBox="0 0 40 40" fill="none" xmlns="http://www.w3.org/2000/svg">
<path d="M38.23 29.7098H27.3441C27.7478 29.2523 27.6905 28.8062 27.6905 28.3318C27.6905 28.2697 27.6658 28.21 27.6218 28.1661C27.5779 28.1221 27.5183 28.0974 27.4561 28.0974H27.3795C27.6083 27.8201 27.7199 27.4644 27.6905 27.106L30.5777 24.912C30.916 24.6472 31.1952 24.3145 31.3972 23.9352C31.5992 23.556 31.7196 23.1387 31.7507 22.7102C31.7817 22.2817 31.7227 21.8514 31.5774 21.447C31.4321 21.0427 31.2037 20.6732 30.907 20.3624L26.2752 15.6182C25.6238 14.9643 24.7396 14.5957 23.8167 14.5932H22.2361C23.0851 14.1584 23.7631 13.4506 24.161 12.5837C24.559 11.7168 24.6538 10.7413 24.4301 9.81402C24.2065 8.88675 23.6774 8.06168 22.928 7.47155C22.1786 6.88142 21.2524 6.56055 20.2986 6.56055C19.3447 6.56055 18.4186 6.88142 17.6692 7.47155C16.9198 8.06168 16.3907 8.88675 16.1671 9.81402C15.9434 10.7413 16.0382 11.7168 16.4362 12.5837C16.8341 13.4506 17.5121 14.1584 18.3611 14.5932H16.2502C15.3266 14.5957 14.4418 14.9648 13.7902 15.6193L9.10875 20.3599C8.80229 20.6701 8.56764 21.0438 8.42135 21.4546C8.27506 21.8654 8.22069 22.3032 8.26208 22.7373C8.30348 23.1714 8.43962 23.5911 8.66091 23.9668C8.88221 24.3425 9.18325 24.6651 9.54281 24.9118L12.3758 26.8559V27.2495C12.3756 27.56 12.4858 27.8606 12.6867 28.0974H12.6102C12.548 28.0974 12.4884 28.1221 12.4444 28.1661C12.4005 28.21 12.3758 28.2697 12.3758 28.3318C12.3758 28.8063 12.3183 29.2521 12.7222 29.7098H1.77344C1.71128 29.7098 1.65166 29.7345 1.60771 29.7784C1.56376 29.8224 1.53906 29.882 1.53906 29.9442V37.9879C1.53906 38.0501 1.56376 38.1097 1.60771 38.1536C1.65166 38.1976 1.71128 38.2223 1.77344 38.2223C1.8356 38.2223 1.89521 38.1976 1.93917 38.1536C1.98312 38.1097 2.00781 38.0501 2.00781 37.9879V32.7428H4.66953V37.9879C4.66953 38.0501 4.69422 38.1097 4.73818 38.1536C4.78213 38.1976 4.84175 38.2223 4.90391 38.2223C4.96607 38.2223 5.02568 38.1976 5.06963 38.1536C5.11359 38.1097 5.13828 38.0501 5.13828 37.9879V32.7428H12.828V37.9877C12.828 38.0499 12.8527 38.1095 12.8966 38.1535C12.9406 38.1974 13.0002 38.2221 13.0623 38.2221C13.1245 38.2221 13.1841 38.1974 13.2281 38.1535C13.272 38.1095 13.2967 38.0499 13.2967 37.9877V32.7428H26.9014V37.9877C26.9014 38.0499 26.9261 38.1095 26.9701 38.1535C27.014 38.1974 27.0736 38.2221 27.1358 38.2221C27.1979 38.2221 27.2576 38.1974 27.3015 38.1535C27.3455 38.1095 27.3702 38.0499 27.3702 37.9877V32.7428H34.8652V37.9879C34.8652 38.0501 34.8898 38.1097 34.9338 38.1536C34.9778 38.1976 35.0374 38.2223 35.0995 38.2223C35.1617 38.2223 35.2213 38.1976 35.2653 38.1536C35.3092 38.1097 35.3339 38.0501 35.3339 37.9879V32.7428H37.9956V37.9879C37.9956 38.0501 38.0203 38.1097 38.0643 38.1536C38.1082 38.1976 38.1678 38.2223 38.23 38.2223C38.2922 38.2223 38.3518 38.1976 38.3957 38.1536C38.4397 38.1097 38.4644 38.0501 38.4644 37.9879V29.9442C38.4644 29.882 38.4397 29.8224 38.3957 29.7784C38.3518 29.7345 38.2922 29.7098 38.23 29.7098ZM16.5173 10.812C16.5174 10.0633 16.7396 9.33153 17.1559 8.70931C17.5722 8.0871 18.1639 7.60246 18.8559 7.31682C19.5479 7.03117 20.3091 6.95738 21.0431 7.10478C21.7771 7.25218 22.4508 7.61414 22.9789 8.14481C23.5069 8.67547 23.8656 9.35095 24.0094 10.0856C24.1532 10.8203 24.0757 11.5812 23.7867 12.2718C23.4977 12.9624 23.0102 13.5517 22.3859 13.9649C21.7617 14.3782 21.0288 14.5969 20.2802 14.5932C19.2808 14.5874 18.3243 14.1865 17.6194 13.4781C16.9145 12.7698 16.5183 11.8113 16.5173 10.812ZM12.4059 18.7996C12.363 18.999 12.3758 18.4992 12.3758 26.2874L9.80813 24.5254C9.50507 24.3176 9.25133 24.0458 9.0648 23.7292C8.87827 23.4126 8.76349 23.0589 8.72858 22.6931C8.69367 22.3273 8.73946 21.9583 8.86274 21.6121C8.98602 21.2659 9.18376 20.951 9.44203 20.6896L14.1234 15.9481C14.687 15.3827 15.4519 15.064 16.2502 15.062H23.8167C24.6144 15.0641 25.3786 15.3826 25.9417 15.9476L30.5722 20.6907C30.8227 20.9539 31.0154 21.2664 31.138 21.6084C31.2607 21.9504 31.3105 22.3142 31.2844 22.6765C31.2583 23.0389 31.1568 23.3918 30.9863 23.7126C30.8159 24.0334 30.5803 24.3151 30.2947 24.5396L27.6916 26.5179V19.0776C27.6911 18.7283 27.5522 18.3934 27.3052 18.1464C27.0581 17.8994 26.7232 17.7605 26.3739 17.7601H13.6923C13.3915 17.7606 13.0998 17.8639 12.8658 18.053C12.6318 18.2421 12.4696 18.5056 12.4059 18.7996ZM26.3738 28.0974H13.6925C13.4677 28.0972 13.2521 28.0078 13.0932 27.8488C12.9342 27.6898 12.8448 27.4743 12.8445 27.2495C12.8445 18.4196 12.8281 19.0015 12.8828 18.8257C12.9368 18.6531 13.0444 18.5023 13.19 18.3951C13.3356 18.2879 13.5117 18.23 13.6925 18.2298H26.3738C26.5986 18.23 26.8141 18.3194 26.9731 18.4784C27.1321 18.6374 27.2215 18.8529 27.2217 19.0777V27.2496C27.2214 27.4744 27.132 27.6899 26.973 27.8489C26.8141 28.0078 26.5985 28.0972 26.3738 28.0974ZM27.2217 28.5662V28.7984C27.2215 29.04 27.1254 29.2717 26.9545 29.4426C26.7836 29.6134 26.552 29.7095 26.3103 29.7098H13.7558C13.5142 29.7094 13.2826 29.6133 13.1117 29.4425C12.9409 29.2716 12.8448 29.04 12.8445 28.7984V28.5662H27.2217ZM37.9956 32.274H2.00781V30.1785H37.9956V32.274Z" fill="white"/>
<path d="M20.0316 21.7207C19.6862 21.7207 19.3485 21.8232 19.0613 22.0151C18.7741 22.207 18.5503 22.4797 18.4181 22.7988C18.2859 23.118 18.2513 23.4691 18.3187 23.8079C18.386 24.1466 18.5523 24.4578 18.7965 24.7021C19.0408 24.9464 19.3519 25.1128 19.6907 25.1802C20.0294 25.2477 20.3806 25.2131 20.6997 25.081C21.0188 24.9489 21.2917 24.7252 21.4836 24.438C21.6756 24.1509 21.7782 23.8133 21.7783 23.4679C21.7779 23.0047 21.5938 22.5606 21.2663 22.233C20.9388 21.9055 20.4948 21.7212 20.0316 21.7207ZM20.0316 24.7451C19.7788 24.7451 19.5318 24.6701 19.3216 24.5297C19.1115 24.3893 18.9477 24.1898 18.851 23.9563C18.7543 23.7228 18.729 23.4658 18.7783 23.218C18.8276 22.9701 18.9493 22.7424 19.128 22.5637C19.3067 22.385 19.5344 22.2633 19.7823 22.214C20.0301 22.1647 20.2871 22.19 20.5206 22.2867C20.7541 22.3834 20.9536 22.5472 21.094 22.7573C21.2344 22.9675 21.3094 23.2145 21.3094 23.4673C21.309 23.806 21.1742 24.1308 20.9347 24.3704C20.6951 24.6099 20.3703 24.7447 20.0316 24.7451Z" fill="white"/>
<path d="M8.31198 9.8461C8.43698 9.8461 13.062 9.82751 13.062 9.82751C13.1082 9.82731 13.1534 9.81343 13.1918 9.78762C13.2302 9.7618 13.2601 9.7252 13.2777 9.68244C13.2953 9.63967 13.2999 9.59264 13.2908 9.54727C13.2818 9.50191 13.2595 9.46024 13.2268 9.42751L11.7396 7.93907C12.2108 7.17979 12.4166 6.28555 12.3247 5.39668C12.2328 4.50781 11.8483 3.67461 11.2317 3.02784C10.6151 2.38107 9.80114 1.95733 8.91767 1.82312C8.0342 1.6889 7.13116 1.8518 6.35027 2.28626C5.56938 2.72072 4.95484 3.40215 4.60307 4.22361C4.25131 5.04507 4.18223 5.96008 4.40668 6.82505C4.63113 7.69001 5.1364 8.45598 5.84321 9.00275C6.55002 9.54952 7.41837 9.84616 8.31198 9.8461ZM8.31198 2.24579C8.96225 2.24564 9.60017 2.42335 10.1567 2.75968C10.7132 3.09601 11.1672 3.57815 11.4694 4.15391C11.7717 4.72967 11.9107 5.37713 11.8714 6.02622C11.8321 6.6753 11.6161 7.30128 11.2467 7.83641C11.2154 7.88151 11.201 7.93614 11.2058 7.99078C11.2107 8.04543 11.2346 8.09664 11.2734 8.13547L12.4979 9.3611C11.262 9.36594 8.41026 9.37672 8.31198 9.37672C7.36627 9.37672 6.4593 9.00105 5.79059 8.33233C5.12188 7.66362 4.7462 6.75665 4.7462 5.81094C4.7462 4.86524 5.12188 3.95827 5.79059 3.28956C6.4593 2.62084 7.36627 2.24516 8.31198 2.24516V2.24579Z" fill="white"/>
<path d="M20.7667 35.4464C20.3136 34.8166 19.4341 35.1435 19.338 35.5216L18.7214 37.93C18.7069 37.9899 18.7166 38.0531 18.7484 38.1059C18.7801 38.1587 18.8314 38.1969 18.8911 38.2122C18.9508 38.2274 19.0141 38.2186 19.0673 38.1876C19.1205 38.1565 19.1594 38.1058 19.1755 38.0463L19.7795 35.6869C19.8163 35.6462 19.8613 35.6137 19.9115 35.5915C19.9617 35.5693 20.016 35.558 20.0709 35.5582C20.1258 35.5584 20.18 35.5702 20.23 35.5928C20.2801 35.6154 20.3248 35.6482 20.3612 35.6893L20.9538 38.0455C20.9613 38.0754 20.9746 38.1034 20.9929 38.1282C21.0113 38.1529 21.0344 38.1737 21.0608 38.1895C21.0872 38.2053 21.1165 38.2158 21.1469 38.2202C21.1774 38.2247 21.2084 38.2232 21.2383 38.2157C21.2681 38.2082 21.2962 38.1948 21.3209 38.1765C21.3456 38.1581 21.3665 38.1351 21.3823 38.1086C21.3981 38.0822 21.4085 38.0529 21.413 38.0225C21.4175 37.992 21.4159 37.961 21.4084 37.9311C21.3898 37.8593 20.8089 35.506 20.7667 35.4464Z" fill="white"/>
<path d="M6.96875 22.0803L7.43547 22.1244C7.44935 21.978 7.47178 21.8326 7.50266 21.6889L7.04469 21.5898C7.00972 21.7517 6.98436 21.9155 6.96875 22.0803Z" fill="white"/>
<path d="M8.38125 25.6348L8.68953 25.2814C8.57862 25.1848 8.47354 25.0817 8.37484 24.9727L8.02734 25.2873C8.13844 25.41 8.25661 25.526 8.38125 25.6348Z" fill="white"/>
<path d="M9.25093 18.479L8.91406 18.8047L9.2399 19.1417L9.57677 18.8159L9.25093 18.479Z" fill="white"/>
<path d="M7.45703 24.4788C7.53591 24.6246 7.62346 24.7654 7.71922 24.9007L8.10172 24.6298C8.01681 24.5098 7.93907 24.385 7.86891 24.2559L7.45703 24.4788Z" fill="white"/>
<path d="M9.92671 17.8266L9.58984 18.1523L9.91568 18.4893L10.2526 18.1636L9.92671 17.8266Z" fill="white"/>
<path d="M7.79094 20.8587L7.36906 20.6543C7.2969 20.8033 7.23366 20.9565 7.17969 21.113L7.62281 21.266C7.67075 21.127 7.72689 20.991 7.79094 20.8587Z" fill="white"/>
<path d="M9.04569 25.5687L8.75391 25.9355L9.11404 26.222L9.40583 25.8551L9.04569 25.5687Z" fill="white"/>
<path d="M8.57924 19.1313L8.24219 19.457L8.56784 19.794L8.9049 19.4682L8.57924 19.1313Z" fill="white"/>
<path d="M7.90578 19.8203C7.80052 19.948 7.70286 20.0817 7.61328 20.2208L8.00719 20.4747C8.08694 20.351 8.1738 20.2321 8.26734 20.1184L7.90578 19.8203Z" fill="white"/>
<path d="M7.68078 23.8556C7.62652 23.7191 7.5805 23.5795 7.54297 23.4375L7.08984 23.5575C7.13215 23.7176 7.18396 23.875 7.245 24.0289L7.68078 23.8556Z" fill="white"/>
<path d="M6.99375 23.0714L7.45797 23.0061C7.43745 22.8604 7.4254 22.7135 7.42188 22.5664L6.95312 22.5773C6.95714 22.7427 6.9707 22.9076 6.99375 23.0714Z" fill="white"/>
<path d="M32.6767 22.1244L33.1433 22.0803C33.1278 21.9155 33.1025 21.7517 33.0675 21.5898L32.6094 21.6889C32.6404 21.8326 32.6629 21.978 32.6767 22.1244Z" fill="white"/>
<path d="M33.1611 22.5773L32.6923 22.5664C32.6888 22.7135 32.6768 22.8604 32.6562 23.0061L33.1205 23.0714C33.1434 22.9076 33.157 22.7427 33.1611 22.5773Z" fill="white"/>
<path d="M32.4884 21.266L32.9314 21.113C32.8776 20.9565 32.8144 20.8033 32.7422 20.6543L32.3203 20.8587C32.3844 20.991 32.4406 21.127 32.4884 21.266Z" fill="white"/>
<path d="M31.4219 25.2814L31.73 25.6348C31.8547 25.526 31.9729 25.41 32.0841 25.2873L31.7364 24.9727C31.6378 25.0817 31.5327 25.1848 31.4219 25.2814Z" fill="white"/>
<path d="M33.0206 23.5575L32.5675 23.4375C32.5298 23.5796 32.4838 23.7193 32.4297 23.8559L32.8655 24.0289C32.9264 23.8749 32.9782 23.7175 33.0206 23.5575Z" fill="white"/>
<path d="M32.6564 24.4773L32.2444 24.2539C32.1743 24.3831 32.0966 24.5079 32.0117 24.6278L32.3941 24.8987C32.4899 24.7637 32.5775 24.623 32.6564 24.4773Z" fill="white"/>
<path d="M32.1078 20.4747L32.5019 20.2208C32.4123 20.0817 32.3146 19.948 32.2094 19.8203L31.8477 20.1184C31.9413 20.232 32.0282 20.3509 32.1078 20.4747Z" fill="white"/>
<path d="M30.1852 17.8271L29.8594 18.1641L30.1962 18.4898L30.5221 18.1528L30.1852 17.8271Z" fill="white"/>
<path d="M31.0634 25.5689L30.7031 25.8555L30.9949 26.2223L31.3552 25.9358L31.0634 25.5689Z" fill="white"/>
<path d="M30.861 18.4794L30.5352 18.8164L30.872 19.1421L31.1979 18.8052L30.861 18.4794Z" fill="white"/>
<path d="M31.5366 19.1318L31.2109 19.4688L31.548 19.7945L31.8736 19.4576L31.5366 19.1318Z" fill="white"/>
<path d="M7.37375 5.41211H6.53516V5.88086H7.37375V5.41211Z" fill="white"/>
<path d="M8.72922 5.41211H7.89062V5.88086H8.72922V5.41211Z" fill="white"/>
<path d="M10.0888 5.41211H9.25V5.88086H10.0888V5.41211Z" fill="white"/>
</svg>
