<svg width="36" height="38" viewBox="0 0 36 38" fill="none" xmlns="http://www.w3.org/2000/svg">
<path d="M3.15172 6.39344C4.70219 6.39344 5.96359 5.13203 5.96359 3.58141C5.96359 2.03094 4.70219 0.769531 3.15172 0.769531C1.60125 0.769531 0.339844 2.03094 0.339844 3.58141C0.339844 5.13203 1.60125 6.39344 3.15172 6.39344ZM3.15172 1.23844C4.44375 1.23844 5.49484 2.28953 5.49484 3.58156C5.49484 4.87359 4.44375 5.92484 3.15172 5.92484C1.85969 5.92484 0.808594 4.87359 0.808594 3.58156C0.808594 2.28953 1.85969 1.23844 3.15172 1.23844Z" fill="white"/>
<path d="M17.9994 6.39344C19.5498 6.39344 20.8113 5.13203 20.8113 3.58141C20.8113 2.03094 19.5498 0.769531 17.9994 0.769531C16.4489 0.769531 15.1875 2.03094 15.1875 3.58141C15.1875 5.13203 16.4489 6.39344 17.9994 6.39344ZM17.9994 1.23844C19.2914 1.23844 20.3425 2.28953 20.3425 3.58156C20.3425 4.87359 19.2914 5.92469 17.9994 5.92469C16.7073 5.92469 15.6562 4.87344 15.6562 3.58141C15.6562 2.28937 16.7073 1.23844 17.9994 1.23844Z" fill="white"/>
<path d="M32.8431 6.39344C34.3936 6.39344 35.655 5.13203 35.655 3.58141C35.655 2.03094 34.3936 0.769531 32.8431 0.769531C31.2927 0.769531 30.0312 2.03094 30.0312 3.58141C30.0313 5.13203 31.2927 6.39344 32.8431 6.39344ZM32.8431 1.23844C34.1352 1.23844 35.1862 2.28953 35.1862 3.58156C35.1862 4.87359 34.1352 5.92484 32.8431 5.92484C31.5511 5.92484 30.5 4.87359 30.5 3.58156C30.5 2.28953 31.5511 1.23844 32.8431 1.23844Z" fill="white"/>
<path d="M7.99609 6.39328H13.1511C13.2806 6.39328 13.3855 6.28844 13.3855 6.15891V1.00391C13.3855 0.874375 13.2806 0.769531 13.1511 0.769531H7.99609C7.86656 0.769531 7.76172 0.874375 7.76172 1.00391V6.15906C7.76172 6.28844 7.86656 6.39328 7.99609 6.39328ZM8.23047 1.23828H12.9167V5.92469H8.23047V1.23828Z" fill="white"/>
<path d="M22.8438 6.39328H27.9988C28.1283 6.39328 28.2331 6.28844 28.2331 6.15891V1.00391C28.2331 0.874375 28.1283 0.769531 27.9988 0.769531H22.8438C22.7142 0.769531 22.6094 0.874375 22.6094 1.00391V6.15906C22.6094 6.28844 22.7142 6.39328 22.8438 6.39328ZM23.0781 1.23828H27.7644V5.92469H23.0781V1.23828Z" fill="white"/>
<path d="M5.96359 19.1673C5.96359 17.6169 4.70219 16.3555 3.15172 16.3555C1.60125 16.3555 0.339844 17.6169 0.339844 19.1673C0.339844 20.7178 1.60125 21.9792 3.15172 21.9792C4.70219 21.9792 5.96359 20.7178 5.96359 19.1673ZM0.808594 19.1673C0.808594 17.8753 1.85969 16.8242 3.15172 16.8242C4.44375 16.8242 5.49484 17.8753 5.49484 19.1673C5.49484 20.4594 4.44375 21.5105 3.15172 21.5105C1.85969 21.5105 0.808594 20.4594 0.808594 19.1673Z" fill="white"/>
<path d="M13.6634 31.6055C12.113 31.6055 10.8516 32.8669 10.8516 34.4175C10.8516 35.968 12.113 37.2294 13.6634 37.2294C15.2139 37.2294 16.4753 35.968 16.4753 34.4175C16.4753 32.8669 15.2139 31.6055 13.6634 31.6055ZM13.6634 36.7605C12.3714 36.7605 11.3203 35.7094 11.3203 34.4173C11.3203 33.1253 12.3714 32.0741 13.6634 32.0741C14.9555 32.0741 16.0066 33.1253 16.0066 34.4173C16.0066 35.7094 14.9555 36.7605 13.6634 36.7605Z" fill="white"/>
<path d="M20.8113 19.1673C20.8113 17.6169 19.5498 16.3555 17.9994 16.3555C16.4489 16.3555 15.1875 17.6169 15.1875 19.1673C15.1875 20.7178 16.4489 21.9792 17.9994 21.9792C19.5498 21.9792 20.8113 20.7178 20.8113 19.1673ZM17.9994 21.5105C16.7073 21.5105 15.6562 20.4594 15.6562 19.1673C15.6562 17.8753 16.7073 16.8242 17.9994 16.8242C19.2914 16.8242 20.3425 17.8753 20.3425 19.1673C20.3425 20.4594 19.2914 21.5105 17.9994 21.5105Z" fill="white"/>
<path d="M13.3855 19.1673C13.3855 17.6169 12.1241 16.3555 10.5736 16.3555C9.02312 16.3555 7.76172 17.6169 7.76172 19.1673C7.76172 20.7178 9.02312 21.9792 10.5736 21.9792C12.1241 21.9792 13.3855 20.7178 13.3855 19.1673ZM10.5736 21.5105C9.28156 21.5105 8.23047 20.4594 8.23047 19.1673C8.23047 17.8753 9.28156 16.8242 10.5736 16.8242C11.8656 16.8242 12.9167 17.8753 12.9167 19.1673C12.9167 20.4594 11.8656 21.5105 10.5736 21.5105Z" fill="white"/>
<path d="M28.2331 19.1673C28.2331 17.6169 26.9717 16.3555 25.4213 16.3555C23.8708 16.3555 22.6094 17.6169 22.6094 19.1673C22.6094 20.7178 23.8708 21.9792 25.4213 21.9792C26.9717 21.9792 28.2331 20.7178 28.2331 19.1673ZM25.4213 21.5105C24.1292 21.5105 23.0781 20.4594 23.0781 19.1673C23.0781 17.8753 24.1292 16.8242 25.4213 16.8242C26.7133 16.8242 27.7644 17.8753 27.7644 19.1673C27.7644 20.4594 26.7133 21.5105 25.4213 21.5105Z" fill="white"/>
<path d="M35.4206 16.3555H30.2656C30.1361 16.3555 30.0312 16.4603 30.0312 16.5898V21.7448C30.0312 21.8744 30.1361 21.9792 30.2656 21.9792H35.4206C35.5502 21.9792 35.655 21.8744 35.655 21.7448V16.5898C35.655 16.4605 35.5502 16.3555 35.4206 16.3555ZM35.1862 21.5105H30.5V16.8242H35.1862V21.5105Z" fill="white"/>
<path d="M24.5848 31.6055H19.4297C19.3002 31.6055 19.1953 31.7103 19.1953 31.8398V36.995C19.1953 37.1245 19.3002 37.2294 19.4297 37.2294H24.5848C24.7144 37.2294 24.8192 37.1245 24.8192 36.995V31.8398C24.8192 31.7103 24.7144 31.6055 24.5848 31.6055ZM24.3505 36.7605H19.6641V32.0741H24.3505V36.7605Z" fill="white"/>
<path d="M17.9994 14.1005C19.5498 14.1005 20.8113 12.8391 20.8113 11.2884C20.8113 9.73797 19.5498 8.47656 17.9994 8.47656C16.4489 8.47656 15.1875 9.73797 15.1875 11.2884C15.1875 12.8391 16.4489 14.1005 17.9994 14.1005ZM17.9994 8.94547C19.2914 8.94547 20.3425 9.99656 20.3425 11.2886C20.3425 12.5806 19.2914 13.6317 17.9994 13.6317C16.7073 13.6317 15.6562 12.5805 15.6562 11.2884C15.6562 9.99641 16.7073 8.94547 17.9994 8.94547Z" fill="white"/>
<path d="M32.8431 8.47852C31.2927 8.47852 30.0312 9.73992 30.0312 11.2904C30.0312 12.8409 31.2927 14.1024 32.8431 14.1024C34.3936 14.1024 35.655 12.841 35.655 11.2904C35.655 9.73992 34.3936 8.47852 32.8431 8.47852ZM32.8431 13.6335C31.5511 13.6335 30.5 12.5823 30.5 11.2902C30.5 9.9982 31.5511 8.94711 32.8431 8.94711C34.1352 8.94711 35.1862 9.9982 35.1862 11.2902C35.1862 12.5823 34.1352 13.6335 32.8431 13.6335Z" fill="white"/>
<path d="M25.4213 14.1005C26.9717 14.1005 28.2331 12.8391 28.2331 11.2884C28.2331 9.73797 26.9717 8.47656 25.4213 8.47656C23.8708 8.47656 22.6094 9.73797 22.6094 11.2884C22.6094 12.8391 23.8708 14.1005 25.4213 14.1005ZM25.4213 8.94547C26.7133 8.94547 27.7644 9.99656 27.7644 11.2886C27.7644 12.5806 26.7133 13.6319 25.4213 13.6319C24.1292 13.6319 23.0781 12.5806 23.0781 11.2886C23.0781 9.99656 24.1292 8.94547 25.4213 8.94547Z" fill="white"/>
<path d="M7.99609 14.1023H13.1511C13.2806 14.1023 13.3855 13.9974 13.3855 13.8679V8.71289C13.3855 8.58336 13.2806 8.47852 13.1511 8.47852H7.99609C7.86656 8.47852 7.76172 8.58336 7.76172 8.71289V13.868C7.76172 13.9974 7.86656 14.1023 7.99609 14.1023ZM8.23047 8.94727H12.9167V13.6337H8.23047V8.94727Z" fill="white"/>
<path d="M0.574219 14.1023H5.72922C5.85875 14.1023 5.96359 13.9974 5.96359 13.8679V8.71289C5.96359 8.58336 5.85875 8.47852 5.72922 8.47852H0.574219C0.444688 8.47852 0.339844 8.58336 0.339844 8.71289V13.868C0.339844 13.9974 0.444688 14.1023 0.574219 14.1023ZM0.808594 8.94727H5.49484V13.6337H0.808594V8.94727Z" fill="white"/>
<path d="M32.6086 34.1834H27.4491L28.3564 33.534C28.4617 33.4587 28.486 33.3123 28.4106 33.207C28.3353 33.1016 28.1889 33.0774 28.0836 33.1527L26.5824 34.2271C26.4514 34.3209 26.4517 34.5155 26.5831 34.6088L28.0839 35.674C28.1896 35.7488 28.3358 35.724 28.4106 35.6185C28.4855 35.5129 28.4608 35.3666 28.3552 35.2918L27.4539 34.6521H32.8428C32.9722 34.6521 33.0772 34.5471 33.0772 34.4177V24.1074C33.0772 23.978 32.9722 23.873 32.8428 23.873C32.7135 23.873 32.6085 23.978 32.6085 24.1074V34.1834H32.6086Z" fill="white"/>
<path d="M8.98031 34.2271L7.47906 33.1527C7.37375 33.0774 7.22734 33.1016 7.15203 33.207C7.07672 33.3123 7.10094 33.4587 7.20625 33.534L8.11359 34.1834H3.38672V24.1074C3.38672 23.978 3.28172 23.873 3.15234 23.873C3.02297 23.873 2.91797 23.978 2.91797 24.1074V34.4177C2.91797 34.5471 3.02297 34.6521 3.15234 34.6521H8.10875L7.2075 35.2918C7.10188 35.3666 7.07719 35.513 7.15203 35.6185C7.22688 35.7241 7.37328 35.7488 7.47875 35.674L8.97953 34.6088C9.11078 34.5155 9.11125 34.3207 8.98031 34.2271Z" fill="white"/>
</svg>
