<svg width="121" height="130" viewBox="0 0 121 130" fill="none" xmlns="http://www.w3.org/2000/svg">
<g filter="url(#filter0_d_483_2880)">
<rect x="16.2578" y="12.0925" width="87.8205" height="88.9568" rx="43.9102" fill="#EE2020" shape-rendering="crispEdges"/>
<path d="M62.9946 43.376H57.3644L52.9217 57.2364L48.6838 43.376H42.9922L49.7074 63.2146H55.7675L60.1283 49.8046L64.5301 63.2146H70.6311L77.3463 43.376H71.7571L67.4987 57.2978L62.9946 43.376Z" fill="white"/>
<path d="M46.5312 65.159C56.826 71.497 62.7517 71.2011 73.556 64.8523" stroke="white" stroke-width="3.27572"/>
<path d="M58.8219 108.043L54.7052 100.633C54.2434 99.8012 54.8445 98.7795 55.7956 98.7795H64.0289C64.98 98.7795 65.5811 99.8012 65.1193 100.633L61.0026 108.043C60.5274 108.898 59.2971 108.898 58.8219 108.043Z" fill="#EE2020"/>
<rect x="16.7578" y="12.5925" width="86.8205" height="87.9568" rx="43.4102" stroke="none" shape-rendering="crispEdges"/>
</g>
<defs>
<filter id="filter0_d_483_2880" x="0.0429802" y="0.866876" width="120.25" height="129.021" filterUnits="userSpaceOnUse" color-interpolation-filters="sRGB">
<feFlood flood-opacity="0" result="BackgroundImageFix"/>
<feColorMatrix in="SourceAlpha" type="matrix" values="0 0 0 0 0 0 0 0 0 0 0 0 0 0 0 0 0 0 127 0" result="hardAlpha"/>
<feOffset dy="4.98918"/>
<feGaussianBlur stdDeviation="8.10742"/>
<feComposite in2="hardAlpha" operator="out"/>
<feColorMatrix type="matrix" values="0 0 0 0 0 0 0 0 0 0 0 0 0 0 0 0 0 0 0.25 0"/>
<feBlend mode="normal" in2="BackgroundImageFix" result="effect1_dropShadow_483_2880"/>
<feBlend mode="normal" in="SourceGraphic" in2="effect1_dropShadow_483_2880" result="shape"/>
</filter>
</defs>
</svg>
