<svg width="678.288" height="659.204" xmlns="http://www.w3.org/2000/svg"><g class="layer"><path d="M394.89 298.5c9.57.04 17.31 7.89 17.27 17.51-.03 9.62-7.83 17.41-17.41 17.37-9.56-.04-17.3-7.87-17.27-17.51.04-9.62 7.84-17.41 17.41-17.37m59.39 32.58c9.9 6.77 12.47 20.32 5.73 30.28-6.73 9.95-20.21 12.54-30.1 5.76-9.9-6.77-12.47-20.32-5.74-30.28 6.73-9.95 20.21-12.54 30.11-5.76m38.91 75.5c5.56 13.98-1.2 29.82-15.1 35.41-13.9 5.59-29.65-1.21-35.21-15.18-5.56-13.98 1.21-29.83 15.1-35.42 13.9-5.57 29.67 1.22 35.21 15.2m-12.14 105.59c-3.96 18.39-22 30.08-40.28 26.08-18.27-3.98-29.88-22.11-25.93-40.49 3.97-18.39 22-30.05 40.28-26.08 18.27 3.99 29.88 22.12 25.93 40.49m-86 100.89c-16.88 16.27-43.68 15.7-59.85-1.28-16.18-16.96-15.61-43.91 1.27-60.18 16.88-16.27 43.68-15.7 59.86 1.28 16.17 16.98 15.58 43.92-1.29 60.18M235.8 657.18c-28.81 5-56.18-14.45-61.14-43.41-4.97-28.96 14.34-56.48 43.15-61.48 28.8-5 56.16 14.44 61.14 43.41 4.96 28.96-14.36 56.49-43.15 61.48M40.11 590.95C6.79 575.87-8.07 536.5 6.91 503c15-33.5 54.15-48.45 87.48-33.38 33.31 15.07 48.17 54.45 33.18 87.96-14.98 33.5-54.15 48.43-87.46 33.37M248.37 384.3c-4.76-8.36-1.87-19.02 6.43-23.8 8.31-4.78 18.91-1.88 23.67 6.48 4.76 8.36 1.87 19-6.43 23.79-8.33 4.78-18.91 1.88-23.67-6.46m-1.66-68.01c.87-12.01 11.27-21.01 23.23-20.14 11.93.89 20.9 11.33 20.01 23.34-.89 12.01-11.27 21.01-23.21 20.14-11.94-.89-20.9-11.33-20.03-23.34m45.57-71.65c9.26-11.82 26.3-13.86 38.05-4.55 11.77 9.31 13.78 26.44 4.53 38.27-9.27 11.82-26.3 13.86-38.05 4.55-11.76-9.32-13.78-26.44-4.53-38.27m97.02-42.22c17.81-5.75 36.88 4.12 42.59 22.03 5.71 17.91-4.09 37.09-21.91 42.83-17.8 5.73-36.87-4.12-42.58-22.03-5.73-17.91 4.1-37.09 21.9-42.83m129.88 24.45c22.45 6.56 35.37 30.19 28.83 52.77-6.53 22.57-30.02 35.55-52.48 28.99-22.44-6.58-35.35-30.19-28.81-52.77 6.53-22.58 30.02-35.55 52.47-28.99M636.8 343.51c18.7 22.58 15.66 56.13-6.81 74.94-22.45 18.82-55.82 15.76-74.52-6.84-18.71-22.58-15.66-56.13 6.81-74.95 22.45-18.8 55.82-15.73 74.52 6.85m40.8 203.53c3.69 36.54-22.8 69.18-59.14 72.88-36.35 3.69-68.81-22.94-72.48-59.48-3.69-36.57 22.8-69.19 59.15-72.9 36.34-3.69 68.79 22.94 72.46 59.49M395.5 468.99c-4.81 8.32-15.44 11.15-23.71 6.29-8.27-4.85-11.07-15.53-6.26-23.84 4.83-8.32 15.44-11.15 23.7-6.29 8.28 4.84 11.08 15.51 6.27 23.84m-57.75 35.44c-10.78 5.24-23.74.69-28.94-10.14-5.21-10.84-.7-23.87 10.08-29.12 10.78-5.23 23.74-.69 28.94 10.16 5.2 10.83.7 23.87-10.08 29.1m-84.49-3.85c-14.8-2.15-25.07-15.97-22.94-30.87 2.14-14.9 15.88-25.22 30.68-23.07 14.83 2.15 25.1 15.97 22.95 30.85-2.14 14.9-15.88 25.24-30.7 23.08m-84.86-63.39c-13.84-12.64-14.9-34.19-2.33-48.12 12.57-13.92 34-14.97 47.85-2.33 13.86 12.64 14.88 34.17 2.31 48.1s-33.98 14.98-47.84 2.34m-43.89-125.34c-5.56-22.84 8.33-45.89 31.04-51.49 22.71-5.59 45.64 8.37 51.21 31.21 5.57 22.84-8.33 45.88-31.04 51.48-22.71 5.6-45.64-8.37-51.21-31.2m41.65-160.73c10.1-27.59 40.52-41.7 67.95-31.56 27.43 10.17 41.47 40.75 31.37 68.34-10.1 27.58-40.52 41.7-67.95 31.54-27.43-10.17-41.47-40.75-31.37-68.33m154.88-137.3c29.64-21.47 70.99-14.72 92.33 15.07 21.37 29.8 14.66 71.39-14.98 92.86-29.64 21.49-70.98 14.74-92.35-15.08-21.34-29.79-14.64-71.37 15-92.85" fill="#fff"/></g></svg>