<svg xmlns="http://www.w3.org/2000/svg" viewBox="0 0 25.6 25.6" version="1.1" id="svg32"><style id="style2"></style><g id="symbol" transform="scale(.19394)"><rect id="rect616" ry="6" rx="6" height="132" width="132" class="cls-1" x="0" y="0" style="fill:transparent"/><circle id="circle618" r="6" cy="54" cx="78" class="cls-2" style="fill:#25fefd"/><circle id="circle620" r="6" cy="30" cx="102" class="cls-2" style="fill:#25fefd"/><circle id="circle622" r="6" cy="30" cx="78" class="cls-2" style="fill:#25fefd"/><circle id="circle624" r="6" cy="30" cx="54" class="cls-2" style="fill:#25fefd"/><circle id="circle626" r="6" cy="30" cx="30" class="cls-2" style="fill:#25fefd"/><circle id="circle628" r="6" cy="54" cx="30" class="cls-2" style="fill:#25fefd"/><path id="path630" d="M30 72a6 6 0 0 0-6 6v24a6 6 0 0 0 12 0V78a6 6 0 0 0-6-6z" class="cls-3" style="fill:#fff"/><path id="path632" d="M78 72a6 6 0 0 0-6 6v24a6 6 0 0 0 12 0V78a6 6 0 0 0-6-6z" class="cls-3" style="fill:#fff"/><path id="path634" d="M54 48a6 6 0 0 0-6 6v48a6 6 0 0 0 12 0V54a6 6 0 0 0-6-6z" class="cls-3" style="fill:#fff"/><path id="path636" d="M102 48a6 6 0 0 0-6 6v48a6 6 0 0 0 12 0V54a6 6 0 0 0-6-6z" class="cls-3" style="fill:#fff"/></g></svg>