<svg width="36" height="14" viewBox="0 0 36 14" fill="none" xmlns="http://www.w3.org/2000/svg">
<path d="M4.43723 0.993896H6.39401V10.0512C5.39021 10.2418 4.65322 10.318 3.85279 10.318C1.46395 10.3179 0.21875 9.23806 0.21875 7.16686C0.21875 5.17197 1.54026 3.87603 3.58589 3.87603C3.90353 3.87603 4.14493 3.90136 4.43723 3.97759V0.993896ZM4.43723 5.55304C4.20854 5.47689 4.01796 5.45148 3.77656 5.45148C2.78546 5.45148 2.21364 6.06142 2.21364 7.12866C2.21364 8.17066 2.76005 8.74239 3.76385 8.74239C3.97976 8.74239 4.15771 8.72969 4.43723 8.69166V5.55304Z" fill="white"/>
<path d="M9.50825 4.01506V8.55109C9.50825 10.114 9.3939 10.8636 9.05086 11.5117C8.73315 12.1344 8.31379 12.5282 7.44983 12.9602L5.63281 12.0962C6.49685 11.6896 6.91613 11.334 7.18294 10.7874C7.46254 10.2283 7.55156 9.5803 7.55156 7.87771V4.01506H9.50825ZM7.55156 1.00366H9.50825V3.01126H7.55156V1.00366Z" fill="white"/>
<path d="M10.6879 4.46034C11.552 4.05385 12.3779 3.87598 13.28 3.87598C14.2838 3.87598 14.9445 4.14271 15.2368 4.6637C15.4019 4.95593 15.4527 5.33708 15.4527 6.15039V10.1273C14.5759 10.2544 13.4705 10.3434 12.6574 10.3434C11.0183 10.3434 10.2812 9.77139 10.2812 8.50086C10.2812 7.12853 11.2596 6.49326 13.6612 6.2899V5.85792C13.6612 5.50217 13.4833 5.3752 12.9877 5.3752C12.2635 5.3752 11.4503 5.57848 10.6878 5.97243L10.6879 4.46034ZM13.7501 7.57338C12.454 7.70043 12.0347 7.9038 12.0347 8.41201C12.0347 8.79316 12.2762 8.97104 12.8098 8.97104C13.1021 8.97104 13.3689 8.94571 13.7501 8.88218V7.57338Z" fill="white"/>
<path d="M16.4043 4.32058C17.5605 4.01565 18.5135 3.87598 19.4791 3.87598C20.4829 3.87598 21.2072 4.10459 21.6394 4.54936C22.0459 4.96855 22.1729 5.42594 22.1729 6.40449V10.2416H20.2161V6.48072C20.2161 5.73111 19.962 5.45143 19.2632 5.45143C18.9964 5.45143 18.755 5.47684 18.361 5.59119V10.2416H16.4043V4.32058Z" fill="white"/>
<path d="M22.9358 11.3091C23.6221 11.6649 24.3082 11.83 25.0324 11.83C26.3156 11.83 26.862 11.3091 26.862 10.0638C26.862 10.0511 26.862 10.0384 26.862 10.0257C26.4808 10.2162 26.0996 10.2925 25.5915 10.2925C23.8761 10.2925 22.7832 9.16169 22.7832 7.37016C22.7832 5.14641 24.397 3.88867 27.2558 3.88867C28.0945 3.88867 28.8696 3.97753 29.8099 4.16811L29.1399 5.57954C28.6189 5.4779 29.0981 5.56593 28.7044 5.52782V5.73118L28.7298 6.55694L28.7424 7.62435C28.7551 7.89108 28.7551 8.15797 28.7679 8.42478C28.7679 8.66618 28.7679 8.78061 28.7679 8.95849C28.7679 10.6357 28.6281 11.4235 28.2088 12.0714C27.5989 13.0245 26.5443 13.4946 25.045 13.4946C24.2826 13.4946 23.622 13.3803 22.9357 13.1134V11.3091H22.9358ZM26.824 5.46421C26.7986 5.46421 26.7732 5.46421 26.7605 5.46421H26.6207C26.2396 5.4515 25.7949 5.55306 25.4898 5.74364C25.0198 6.01054 24.7783 6.49342 24.7783 7.1795C24.7783 8.15797 25.2612 8.71701 26.1252 8.71701C26.392 8.71701 26.6081 8.6661 26.8621 8.58995V8.45011V7.91657C26.8621 7.68788 26.8495 7.43361 26.8495 7.16688L26.8368 6.2648L26.8241 5.61675V5.46421H26.824Z" fill="white"/>
<path d="M32.8476 3.8501C34.8043 3.8501 35.9988 5.08267 35.9988 7.07748C35.9988 9.12328 34.7536 10.4066 32.7714 10.4066C30.8145 10.4066 29.6074 9.17402 29.6074 7.19191C29.6075 5.13333 30.8528 3.8501 32.8476 3.8501ZM32.8093 8.83089C33.5591 8.83089 34.0039 8.20825 34.0039 7.12822C34.0039 6.06098 33.5718 5.42563 32.8223 5.42563C32.0471 5.42563 31.6022 6.04836 31.6022 7.12822C31.6023 8.20834 32.0471 8.83089 32.8093 8.83089Z" fill="white"/>
<path d="M4.43723 0.993896H6.39401V10.0512C5.39021 10.2418 4.65322 10.318 3.85279 10.318C1.46395 10.3179 0.21875 9.23806 0.21875 7.16686C0.21875 5.17197 1.54026 3.87603 3.58589 3.87603C3.90353 3.87603 4.14493 3.90136 4.43723 3.97759V0.993896ZM4.43723 5.55304C4.20854 5.47689 4.01796 5.45148 3.77656 5.45148C2.78546 5.45148 2.21364 6.06142 2.21364 7.12866C2.21364 8.17066 2.76005 8.74239 3.76385 8.74239C3.97976 8.74239 4.15771 8.72969 4.43723 8.69166V5.55304Z" fill="white"/>
<path d="M9.50825 4.01506V8.55109C9.50825 10.114 9.3939 10.8636 9.05086 11.5117C8.73315 12.1344 8.31379 12.5282 7.44983 12.9602L5.63281 12.0962C6.49685 11.6896 6.91613 11.334 7.18294 10.7874C7.46254 10.2283 7.55156 9.5803 7.55156 7.87771V4.01506H9.50825ZM7.55156 1.00366H9.50825V3.01126H7.55156V1.00366Z" fill="white"/>
<path d="M10.6879 4.46034C11.552 4.05385 12.3779 3.87598 13.28 3.87598C14.2838 3.87598 14.9445 4.14271 15.2368 4.6637C15.4019 4.95593 15.4527 5.33708 15.4527 6.15039V10.1273C14.5759 10.2544 13.4705 10.3434 12.6574 10.3434C11.0183 10.3434 10.2812 9.77139 10.2812 8.50086C10.2812 7.12853 11.2596 6.49326 13.6612 6.2899V5.85792C13.6612 5.50217 13.4833 5.3752 12.9877 5.3752C12.2635 5.3752 11.4503 5.57848 10.6878 5.97243L10.6879 4.46034ZM13.7501 7.57338C12.454 7.70043 12.0347 7.9038 12.0347 8.41201C12.0347 8.79316 12.2762 8.97104 12.8098 8.97104C13.1021 8.97104 13.3689 8.94571 13.7501 8.88218V7.57338Z" fill="white"/>
<path d="M16.4043 4.32058C17.5605 4.01565 18.5135 3.87598 19.4791 3.87598C20.4829 3.87598 21.2072 4.10459 21.6394 4.54936C22.0459 4.96855 22.1729 5.42594 22.1729 6.40449V10.2416H20.2161V6.48072C20.2161 5.73111 19.962 5.45143 19.2632 5.45143C18.9964 5.45143 18.755 5.47684 18.361 5.59119V10.2416H16.4043V4.32058Z" fill="white"/>
<path d="M22.9358 11.3091C23.6221 11.6649 24.3082 11.83 25.0324 11.83C26.3156 11.83 26.862 11.3091 26.862 10.0638C26.862 10.0511 26.862 10.0384 26.862 10.0257C26.4808 10.2162 26.0996 10.2925 25.5915 10.2925C23.8761 10.2925 22.7832 9.16169 22.7832 7.37016C22.7832 5.14641 24.397 3.88867 27.2558 3.88867C28.0945 3.88867 28.8696 3.97753 29.8099 4.16811L29.1399 5.57954C28.6189 5.4779 29.0981 5.56593 28.7044 5.52782V5.73118L28.7298 6.55694L28.7424 7.62435C28.7551 7.89108 28.7551 8.15797 28.7679 8.42478C28.7679 8.66618 28.7679 8.78061 28.7679 8.95849C28.7679 10.6357 28.6281 11.4235 28.2088 12.0714C27.5989 13.0245 26.5443 13.4946 25.045 13.4946C24.2826 13.4946 23.622 13.3803 22.9357 13.1134V11.3091H22.9358ZM26.824 5.46421C26.7986 5.46421 26.7732 5.46421 26.7605 5.46421H26.6207C26.2396 5.4515 25.7949 5.55306 25.4898 5.74364C25.0198 6.01054 24.7783 6.49342 24.7783 7.1795C24.7783 8.15797 25.2612 8.71701 26.1252 8.71701C26.392 8.71701 26.6081 8.6661 26.8621 8.58995V8.45011V7.91657C26.8621 7.68788 26.8495 7.43361 26.8495 7.16688L26.8368 6.2648L26.8241 5.61675V5.46421H26.824Z" fill="white"/>
<path d="M32.8476 3.8501C34.8043 3.8501 35.9988 5.08267 35.9988 7.07748C35.9988 9.12328 34.7536 10.4066 32.7714 10.4066C30.8145 10.4066 29.6074 9.17402 29.6074 7.19191C29.6075 5.13333 30.8528 3.8501 32.8476 3.8501ZM32.8093 8.83089C33.5591 8.83089 34.0039 8.20825 34.0039 7.12822C34.0039 6.06098 33.5718 5.42563 32.8223 5.42563C32.0471 5.42563 31.6022 6.04836 31.6022 7.12822C31.6023 8.20834 32.0471 8.83089 32.8093 8.83089Z" fill="white"/>
</svg>
