<svg width="34" height="34" viewBox="0 0 34 34" fill="none" xmlns="http://www.w3.org/2000/svg">
<path d="M28.6373 9.6859C28.6652 9.68397 29.4994 9.64872 30.4233 10.2497C30.9039 10.5622 31.4065 11.0452 31.8386 11.7878C32.5061 12.9353 33 14.6888 33 17.3615C33 25.1276 27.9811 24.7397 27.9811 24.7397L16.7423 24.7385V26.2821H24.6054L24.6142 29.7215C24.6164 29.7362 24.6922 30.3522 24.1532 31.0343C23.8649 31.3997 23.4062 31.7798 22.6859 32.108C21.5609 32.6208 19.8161 33 17.1171 33C14.302 33 12.4951 32.5442 11.3395 31.9272C10.5974 31.5308 10.1312 31.0702 9.84229 30.6292C9.29768 29.7984 9.39235 29.0471 9.39723 29.0138L9.39984 21.9676C9.39984 20.6397 9.84815 19.7551 10.4572 19.1705C11.6001 18.0747 13.2791 18.0228 13.5215 18.0202H21.351C22.9894 18.0202 24.0598 17.484 24.7638 16.7798C26.0726 15.4712 26.1091 13.5529 26.1074 13.2881V13.2657L26.1071 9.68622L28.6373 9.6859ZM21.4525 28.5135C21.2095 28.5135 20.9899 28.6103 20.8312 28.7667C20.6721 28.9234 20.5741 29.1397 20.5741 29.3788C20.5741 29.6183 20.6721 29.8346 20.8312 29.991C20.9899 30.1474 21.2095 30.2442 21.4525 30.2442C21.6952 30.2442 21.9148 30.1474 22.0739 29.991C22.2327 29.8346 22.3309 29.6183 22.3309 29.3788C22.3309 29.1397 22.2327 28.9234 22.0739 28.7667C21.9148 28.6103 21.6952 28.5135 21.4525 28.5135ZM16.8832 1.00064C19.6987 1.00064 21.5059 1.45641 22.6612 2.0734C23.4036 2.47019 23.8695 2.93077 24.1584 3.37179C24.714 4.22051 24.6031 4.9859 24.6031 4.9859L24.6005 12.033C24.6005 13.358 24.1538 14.2417 23.5464 14.8263C22.424 15.9058 20.781 15.9753 20.4905 15.9801H12.6486C11.0106 15.9801 9.94022 16.5163 9.23587 17.2205C7.87857 18.5779 7.88963 20.5904 7.89256 20.7349V24.3141H5.36405C5.31297 24.3167 4.49085 24.3436 3.58089 23.7532C3.09972 23.441 2.5961 22.9583 2.1634 22.2154C1.49451 21.0676 1 19.3131 1 16.6385C1 13.9731 1.56381 12.2558 2.32672 11.1551C2.8222 10.4407 3.39935 9.99135 3.94982 9.71058C5.01497 9.16731 5.97666 9.25577 6.01895 9.26026L17.2577 9.26186V7.71795H9.39496L9.3865 4.27853C9.38422 4.26378 9.30842 3.64776 9.84717 2.9657C10.1354 2.60064 10.5941 2.22019 11.3144 1.89199C12.4391 1.37885 14.1842 1 16.8832 1V1.00064ZM12.5475 3.75577C12.3044 3.75577 12.0848 3.85256 11.9261 4.00897C11.7673 4.16571 11.6691 4.38205 11.6691 4.62115C11.6691 4.86058 11.7673 5.07692 11.9261 5.23333C12.0848 5.38974 12.3044 5.48654 12.5475 5.48654C12.7902 5.48654 13.0098 5.38974 13.1688 5.23333C13.3276 5.07692 13.4259 4.86058 13.4259 4.62115C13.4259 4.38205 13.3276 4.16571 13.1688 4.00897C13.0098 3.85256 12.7902 3.75577 12.5475 3.75577Z" stroke="white" stroke-width="0.5775"/>
</svg>
