<svg width="25" height="36" viewBox="0 0 25 36" fill="none" xmlns="http://www.w3.org/2000/svg">
<path d="M6.99948 0.377013C6.25322 0.675515 6.02105 2.01877 6.60147 2.71528L6.91656 3.11328L12.0408 3.08011L17.1485 3.03036L17.53 2.59919C17.729 2.36703 17.8948 2.00219 17.8948 1.77002C17.8948 1.23935 17.4802 0.443347 17.1485 0.310679C16.7174 0.161428 7.41406 0.211179 6.99948 0.377013Z" fill="#B9B9B9"/>
<path d="M7.94343 7.42509V10.8413L4.01316 20.8245C1.50906 27.1926 0.0662997 31.0897 0.0165494 31.6037C-0.182452 33.6435 1.42614 35.3019 4.14583 35.8491C4.75941 35.9652 7.4791 35.9818 12.9185 35.8989C20.6132 35.7662 20.8122 35.7496 21.774 35.3848C23.6645 34.6385 24.6927 33.1128 24.4605 31.3882C24.4108 30.9736 22.57 26.1146 20.381 20.5923L16.401 10.5428V7.29243V4.02549H12.1722H7.94343V7.42509ZM15.2899 15.2691C16.7492 16.5792 16.003 19.1993 14.1954 19.1496C13.5652 19.133 12.8024 18.4033 12.5536 17.5907C12.4044 17.0767 12.421 16.8445 12.6697 16.1977C13.1672 14.9042 14.411 14.4565 15.2899 15.2691ZM9.81736 17.2425C10.5968 17.9556 10.5139 19.6305 9.6847 20.1778C8.78919 20.7748 7.79418 20.3104 7.46251 19.1496C6.99818 17.541 8.65652 16.2143 9.81736 17.2425ZM17.3131 22.7648C18.2252 22.9638 19.1538 23.2125 19.3694 23.312C19.6679 23.4613 20.0659 24.2407 21.0941 26.7448C22.4042 29.9454 22.6861 30.957 22.4705 31.8028C22.3047 32.4661 21.2931 33.4611 20.3313 33.8923C19.4855 34.2571 19.2865 34.2737 12.8355 34.4064C5.53884 34.539 4.95841 34.4893 3.4659 33.5772C2.42115 32.9304 1.9734 32.2008 1.9734 31.1394C1.9734 30.4263 2.23873 29.6303 3.38299 26.8277C4.14583 24.9372 4.80916 23.3618 4.82575 23.3452C5.00817 23.2291 7.16401 22.715 8.39119 22.516C10.5139 22.1678 15.1241 22.3004 17.3131 22.7648Z" fill="#B9B9B9"/>
</svg>
