<svg xmlns="http://www.w3.org/2000/svg" width="107" height="68" fill="none"><path fill="#fff" d="M68 33.976c-13.338 1.212-21.001 2.326-25.706 6.01C36.764 44.299 35.455 52.2 34 68c-1.504-16.382-2.862-24.234-8.924-28.45C20.37 36.254 12.756 35.188 0 34.023c13.29-1.212 21.001-2.326 25.658-5.961C31.235 23.7 32.545 15.849 34 0c1.358 14.589 2.57 22.392 7.081 26.9C45.592 31.407 53.45 32.666 68 33.975Z"/><path fill="#fff" d="M101.879 28.137c-7.692-1.071-12.166-1.45-15.308.01-3.69 1.709-5.47 5.998-8.371 14.729 1.307-9.45 1.574-14.062-1.295-17.241-2.222-2.48-6.382-4.085-13.433-6.421 7.665 1.065 12.166 1.45 15.274.01 3.724-1.728 5.497-5.99 8.405-14.748-1.153 8.417-1.496 12.983.458 16.122 1.954 3.14 6.225 4.885 14.27 7.54Z" opacity=".6"/></svg>